<svg width="1181" height="783" viewBox="0 0 1181 783" fill="none" xmlns="http://www.w3.org/2000/svg">
<path d="M570.858 51.6437C584.884 65.6693 596.67 80.7178 605.199 95.8649C609.878 104.055 613.353 112.874 615.52 122.052C617.556 130.075 620.354 138.014 623.045 145.69C625.35 152.243 627.724 159.019 629.637 165.856C634.387 182.918 643.17 196.672 658.767 212.315L660.022 213.57C664.513 218.061 667.794 221.342 674.031 223.608C698.138 232.549 721.199 244.097 742.802 258.046C786.459 286.066 810.92 325.563 811.672 369.253C812.599 422.981 793.509 461.033 775.334 478.731C771.378 482.579 767.069 486.426 762.49 490.512C740.736 509.925 716.073 531.923 722.3 562.297C723.966 570.396 726.803 578.312 729.555 585.973C734.127 598.67 738.844 611.806 738.358 626.233C737.129 663.216 706.305 698.245 669.663 704.325L668.408 704.532C647.039 708.079 622.814 712.109 602.224 704C601.108 703.576 599.929 703.06 598.782 702.59C595.967 701.346 593.076 700.28 590.127 699.398C580.226 696.684 561.495 695.543 552.059 700.497C544.555 704.427 538.153 710.998 531.966 717.339C520.639 728.943 508.936 740.939 489.634 738.567C477.709 737.091 466.366 732.335 455.386 727.742C439.855 721.245 425.194 715.11 408.682 717.126C400.707 718.108 393.11 721.376 385.767 724.529C377.354 728.151 368.641 731.889 359.111 732.392C329.68 733.956 299.783 726.313 277.088 711.436C261.517 701.221 249.467 681.137 239.735 662.833C229.78 644.121 212.666 627.946 185.868 611.951L186.552 610.804L185.868 611.951C175.402 605.703 164.46 600.039 154.141 594.753C119.983 577.292 88.0648 545.605 68.8477 509.906C47.2344 469.902 42.8034 428.458 56.336 393.021C57.6115 389.94 59.1423 386.972 60.9124 384.147C62.8949 381.051 64.5203 377.741 65.7577 374.279C73.4909 349.956 66.7037 323.762 59.9195 303.666C47.9931 268.332 45.1006 240.477 67.4892 210.741C75.6052 199.63 85.0411 189.548 95.5898 180.714C106.556 171.52 121.258 166.738 131.665 164.341C134.59 163.665 137.515 163.112 140.402 162.629C145.481 161.861 150.492 160.698 155.389 159.148C163.91 156.219 173.586 154.168 183.847 151.995C206.24 147.255 229.41 142.355 243.476 127.673C255.118 115.507 260.83 99.0269 266.366 83.0782C269.356 74.4188 272.47 65.4669 276.485 57.3392C278.345 53.2497 279.827 48.9986 280.913 44.6387C281.282 43.3609 281.651 42.0678 282.035 40.7746C286.693 25.426 300.645 12.4914 313.719 1.81975C327.133 -9.11346 342.903 -16.7044 358.114 -19.4686C364.465 -20.6435 371.093 -21.2023 377.513 -21.7382C382.517 -22.1207 387.613 -22.5956 392.532 -23.3092L394.295 -23.5778C402.601 -24.7979 410.461 -25.8797 419.13 -24.6592C431.687 -22.7979 443.89 -20.8598 455.216 -17.6133C458.488 -16.6108 461.708 -15.4454 464.864 -14.1213C467.375 -13.1501 469.946 -12.1172 472.533 -11.2846C485.885 -6.98245 497.42 -0.941357 508.077 4.86839C531.11 17.412 552.248 33.161 570.858 51.6437V51.6437ZM656.443 213.761C640.73 198.049 631.924 183.902 627.066 166.563C625.176 159.811 622.81 153.073 620.52 146.567C617.807 138.836 615.008 130.836 612.933 122.698C610.824 113.748 607.434 105.148 602.867 97.1648C583.682 63.0821 547.767 29.4301 506.816 7.13116C496.259 1.39074 484.854 -4.58103 471.726 -8.81376C469.054 -9.66956 466.429 -10.7101 463.872 -11.743C460.808 -12.9454 457.643 -14.2018 454.448 -15.1194C443.307 -18.3042 431.188 -20.2191 418.723 -22.065C410.431 -23.293 402.78 -22.1727 394.666 -20.991L392.88 -20.7455C387.876 -20.0242 382.696 -19.5878 377.692 -19.1591C371.341 -18.6309 364.774 -18.072 358.531 -16.9433C343.759 -14.2173 328.419 -6.85717 315.36 3.81447C302.601 14.2322 288.957 26.8436 284.545 41.4687C284.153 42.7541 283.792 44.0242 283.431 45.2943C282.281 49.8194 280.721 54.2301 278.772 58.472C274.834 66.4458 271.751 75.3207 268.776 83.8723C263.164 100.083 257.359 116.855 245.294 129.429C230.666 144.703 207.088 149.704 184.295 154.52C174.134 156.671 164.52 158.706 156.16 161.581C151.137 163.187 145.998 164.407 140.788 165.231C137.963 165.73 135.046 166.26 132.174 166.913C122.098 169.287 107.781 173.884 97.2152 182.74C86.8178 191.442 77.5185 201.378 69.5223 212.327C47.8416 241.125 50.7029 268.287 62.3441 302.797C69.2594 323.286 76.1777 350.011 68.1985 375.073C66.906 378.697 65.2111 382.165 63.1456 385.41C61.4542 388.107 59.9879 390.939 58.7614 393.876C45.5287 428.537 49.9132 469.256 71.1182 508.529C90.1194 543.735 121.583 575.045 155.28 592.275C165.637 597.568 176.633 603.271 187.152 609.558C214.397 625.83 231.834 642.328 242.029 661.495C251.599 679.498 263.41 699.235 278.488 709.112C300.736 723.665 330.033 731.17 358.902 729.644C367.962 729.163 376.444 725.518 384.649 721.996C392.177 718.751 399.943 715.421 408.288 714.393C425.516 712.338 441.186 718.928 456.378 725.256C467.181 729.78 478.354 734.458 489.91 735.888C507.903 738.106 518.598 727.087 530.025 715.429C536.366 708.934 542.945 702.186 550.795 698.079C560.847 692.818 580.502 693.928 590.819 696.781C593.885 697.698 596.889 698.81 599.813 700.111C600.914 700.551 602.069 701.044 603.208 701.491C623.105 709.322 646.953 705.376 667.976 701.883L669.231 701.676C704.687 695.796 734.503 661.898 735.702 626.116C736.165 612.205 731.532 599.308 727.054 586.842C724.271 579.103 721.395 571.088 719.69 562.811C713.162 530.936 738.433 508.392 760.765 488.463C765.313 484.408 769.607 480.576 773.508 476.767C791.291 459.462 809.958 422.125 809.078 369.213C808.334 326.44 784.296 287.705 741.433 260.201C720.002 246.371 697.128 234.922 673.216 226.056C666.432 223.597 662.797 219.946 658.229 215.394L656.543 213.707L656.443 213.761Z" stroke="url(#paint0_linear_1_4942)" stroke-width="2" stroke-miterlimit="10"/>
<path d="M541.458 3.6136C546.475 8.63003 551.337 13.7388 556.184 18.8169L562.993 25.9492C577.327 40.8525 592.399 57.1717 605.454 75.4923C618.509 93.813 630.64 114.627 643.57 140.844C644.993 143.807 646.439 146.793 647.9 149.794C660.368 175.657 673.283 202.412 699.561 215.65C701.946 216.85 704.501 217.834 706.964 218.788C709.862 219.842 712.693 221.069 715.444 222.464C717.798 223.726 720.107 225.126 722.338 226.479C725.435 228.436 728.635 230.224 731.926 231.833C740.344 235.725 748.501 240.156 756.373 244.425C760.213 246.509 764.075 248.602 767.992 250.656C778.509 256.061 788.157 263.01 796.616 271.273C798.247 272.904 799.886 274.543 801.532 276.189C812.111 286.661 823.037 297.509 829.043 311.553L829.389 312.376C831.766 317.832 834.166 323.526 835.026 329.575C835.233 331.076 835.402 332.554 835.563 334.008C835.877 337.839 836.572 341.628 837.638 345.321C841.471 357.468 843.14 370.195 842.569 382.922C840.656 423.673 822.441 446.135 801.301 472.108C793.094 482.207 784.61 492.661 776.472 504.938C760.904 528.415 753.518 549.435 753.304 571.192C753.407 575.049 753.966 578.88 754.971 582.605C755.478 584.821 755.993 587.122 756.339 589.469C756.784 592.532 757.061 595.595 757.329 598.558C757.647 603.056 758.24 607.531 759.103 611.956C759.664 614.55 760.287 617.159 760.91 619.767C763.546 630.764 766.252 642.123 764.456 653.721C762.386 665.942 758.269 677.727 752.279 688.58C739.451 712.072 712.64 730.204 682.316 735.876C653.501 741.272 628.946 730.773 605.168 720.59C591.732 714.853 582.249 718.765 572.402 734.106C567.644 741.511 563.602 746.661 557.005 751.041C525.576 772.099 502.415 760.007 480.015 748.308C463.124 739.485 445.649 730.355 423.999 734.339C411.946 736.559 400.901 741.788 390.21 746.847C377.479 752.869 364.317 759.106 349.14 760.496C325.42 762.673 296.777 756.493 270.537 743.571C245.121 731.041 229.892 697.86 217.662 671.204C215.986 667.541 214.37 664.017 212.786 660.693C202.049 638.069 181.472 630.071 159.694 621.612C154.154 619.458 148.405 617.22 142.865 614.744C126.848 607.533 111.917 598.122 98.5048 586.781C85.0086 575.527 73.2649 562.326 63.6602 547.61C47.4977 522.579 29.8698 481.487 29.3474 450.434C29.128 436.666 33.3875 423.681 37.5314 411.105C42.1529 397.251 46.8284 382.865 45.278 367.674C43.3668 348.934 35.7603 331.582 28.4075 314.791C17.6398 290.167 6.50295 264.819 13.2376 234.864C15.0715 226.752 19.3754 220.309 25.2648 213.143C30.155 207.191 35.3426 201.49 40.8079 196.061V196.061C70.4765 166.746 101.187 155.563 141.116 147.025L143.117 146.562C180.969 138.471 220.113 130.102 243.272 97.1877C249.878 87.8274 254.483 77.0825 257.802 68.8083C261.253 60.08 263.387 49.3742 265.715 38.1066C269.976 17.1029 274.377 -4.62426 287.679 -17.3418C315.569 -44.0163 365.935 -53.835 400.583 -54.1524C418.923 -54.2717 437.198 -51.9632 454.93 -47.2872C474.192 -42.2516 491.475 -34.9451 506.295 -25.5601C519.261 -17.4443 530.687 -7.15789 541.458 3.6136ZM678.239 203.319C663.82 188.9 654.552 169.686 645.506 150.941C644.053 147.948 642.614 144.97 641.191 142.007C628.331 115.921 616.284 95.2682 603.291 77.0244C590.297 58.7807 575.356 42.6077 561.084 27.7814L554.267 20.6414C539.187 4.80707 523.592 -11.5734 504.909 -23.4048C489.23 -33.0888 472.152 -40.3003 454.275 -44.7858C436.769 -49.4033 418.727 -51.6808 400.62 -51.5588C366.457 -51.2492 316.838 -41.6386 289.541 -15.4953C276.839 -3.34738 272.524 17.9564 268.339 38.5599C266.019 49.9738 263.831 60.7643 260.288 69.6926C256.945 78.1438 252.256 89.0812 245.488 98.6647C221.698 132.411 182.046 140.887 143.694 149.094L141.693 149.557C102.217 158.01 71.8843 169.047 42.6852 197.892C37.284 203.257 32.1605 208.894 27.3346 214.781C21.6761 221.656 17.557 227.79 15.8464 235.395C9.30443 264.495 19.7798 288.396 30.8551 313.667C38.3002 330.642 45.9837 348.195 47.9486 367.358C49.5604 383.119 44.7463 397.75 40.1171 411.874C36.0578 424.227 31.883 437.034 32.0718 450.325C32.579 480.855 49.9839 521.37 65.9464 546.093C75.4114 560.59 86.984 573.595 100.283 584.679C113.507 595.861 128.228 605.141 144.02 612.25C149.522 614.673 155.201 616.918 160.718 619.064C182.034 627.339 204.066 635.899 215.257 659.484C216.841 662.824 218.456 666.363 220.125 670.003C232.178 696.282 247.176 728.986 271.754 741.093C297.532 753.784 325.698 759.887 348.941 757.772C363.656 756.428 376.602 750.299 389.133 744.369C399.971 739.241 411.178 733.927 423.576 731.654C446.158 727.538 464.01 736.845 481.308 745.875C503.978 757.767 525.462 768.936 555.574 748.764C561.748 744.637 565.597 739.711 570.201 732.598C577.662 720.983 587.793 710.159 606.261 718.081C629.662 728.103 653.863 738.447 681.909 733.221C711.464 727.687 737.566 710.079 750.016 687.272C755.859 676.687 759.877 665.194 761.901 653.276C763.628 642.208 760.976 631.119 758.393 620.361C757.763 617.729 757.14 615.105 756.571 612.488C755.683 607.956 755.075 603.374 754.751 598.767C754.49 595.842 754.214 592.81 753.784 589.824C753.453 587.585 752.946 585.338 752.446 583.16C751.397 579.233 750.817 575.195 750.718 571.131C750.986 548.89 758.496 527.393 774.356 503.469C782.563 491.076 791.094 480.576 799.347 470.43C820.171 444.805 838.148 422.673 840.014 382.8C840.569 370.373 838.931 357.947 835.175 346.091C834.067 342.229 833.344 338.267 833.016 334.263C832.878 332.862 832.686 331.377 832.478 329.907C831.672 324.204 829.311 318.702 827.034 313.377L826.688 312.554C820.851 299.018 810.164 288.331 799.746 278.037L794.814 273.105C786.584 264.999 777.153 258.211 766.852 252.98C762.92 250.911 759.057 248.819 755.21 246.726C747.369 242.473 739.251 238.065 730.902 234.212C727.51 232.56 724.214 230.718 721.029 228.696C718.828 227.358 716.559 225.981 714.235 224.719C711.582 223.378 708.853 222.191 706.062 221.166C703.465 220.212 700.918 219.129 698.429 217.92C690.959 214.168 684.141 209.238 678.239 203.319V203.319Z" stroke="url(#paint1_linear_1_4942)" stroke-width="2" stroke-miterlimit="10"/>
<path d="M552.803 -22.3018C565.63 -9.47521 576.733 5.09027 587.513 19.2248L592.946 26.3344C600.309 35.8985 606.188 44.0392 609.727 54.6419C613.328 65.4447 618.615 74.0085 624.655 83.2956C657.703 134.194 691.543 182.237 741.895 210.738C749.259 214.901 757.076 218.64 764.578 222.203C776.25 227.72 788.261 233.483 799.079 241.055C810.729 249.211 821.07 259.275 831.065 268.993C837.382 275.126 843.899 281.474 850.655 287.245C893.936 324.216 885.251 390.748 857.476 440.345C852.506 449.224 845.096 456.264 837.933 463.073L835.994 464.919C824.407 475.983 808.565 492.349 799.024 507.568C793.877 515.793 790.338 525.041 787.63 532.966C781.206 551.625 787.161 570.629 792.902 589.019C797.034 602.23 801.312 615.895 801.051 629.483C801.051 632.561 800.974 635.561 800.905 638.57C800.521 673.071 800.206 700.316 769.391 724.668C749.502 740.386 719.603 759.298 690.126 760.167C670.683 760.728 650.339 759.712 633.381 748.478C631.485 747.152 629.704 745.67 628.056 744.046C626.345 742.338 624.46 740.814 622.432 739.499C606.412 730.019 598.711 742.46 590.547 755.64C586.754 761.788 583.184 767.62 578.66 771.267C564.257 783.023 551.831 787.201 536.988 785.362C523.4 783.669 507.704 778.19 490.353 769.057C481.066 764.171 472.402 759.615 462.208 757.453C452.186 755.222 441.923 754.265 431.661 754.605C415.265 755.474 401.985 763.399 388.012 771.709C381.161 775.963 374.057 779.794 366.738 783.18C347.733 791.551 326.244 793.328 302.861 788.472C256.887 778.907 240.021 743.406 222.223 705.757L219.538 700.087C218.36 697.632 217.229 695.178 216.098 692.754C207.257 673.71 198.908 655.729 179.619 645.226C170.632 640.363 160.429 637.639 150.588 635.046C140.747 632.452 130.352 629.705 121.057 624.688C96.62 611.484 76.0297 592.141 56.1166 573.428L50.3304 567.996C10.4426 530.678 -2.89244 494.937 5.80092 448.495C9.49548 429.555 14.4431 410.882 20.611 392.597C24.4578 381.056 21.5337 369.484 18.1326 359.681C13.9928 347.663 8.94516 336.552 4.08983 325.834C-4.80518 306.167 -13.2462 287.616 -16.3014 264.433C-16.6939 261.44 -17.1633 258.462 -17.6404 255.477C-18.7058 249.423 -19.4355 243.315 -19.826 237.18C-21.0115 213.743 -7.0778 190.715 20.344 170.464C50.3586 148.267 83.9591 138.012 93.5768 135.319C98.6627 133.926 104.087 132.703 111.166 131.364C117.629 130.134 124.331 129.141 131.486 127.972C155.284 124.287 182.268 120.11 201.519 107.753C216.06 98.4126 224.139 82.3934 228.363 70.5829C233.71 55.6331 237.057 38.0364 238.033 19.7011C238.356 13.5149 239.033 6.26699 241.464 -0.657768C250.758 -26.6487 278.018 -52.4314 298.939 -63.5029C327.707 -78.7137 352.875 -86.3227 378.112 -87.43L382.736 -87.6377C400.048 -88.4682 417.968 -89.3373 434.165 -83.774C438.473 -82.2966 442.674 -80.4653 446.729 -78.7032C451.223 -76.7487 455.855 -74.7327 460.587 -73.2168C481.038 -66.6798 500.803 -58.1651 519.602 -47.7936C530.039 -42.0111 539.684 -34.9013 548.295 -26.6415C549.864 -25.1949 551.349 -23.7561 552.803 -22.3018ZM691.074 174.782C665.105 148.813 643.599 117.366 622.416 84.7497C616.506 75.655 610.897 66.568 607.196 55.4806C603.787 45.2702 598.024 37.3065 590.837 27.9502C589.014 25.588 587.206 23.2104 585.397 20.8329C573.456 5.1825 561.137 -11.0142 546.54 -24.6564C538.097 -32.7593 528.642 -39.7371 518.41 -45.4162C499.751 -55.7006 480.139 -64.1505 459.848 -70.647C455.054 -72.2658 450.344 -74.1252 445.737 -76.2179C441.728 -77.9646 437.573 -79.7652 433.372 -81.2118C417.645 -86.5982 399.994 -85.7522 382.929 -84.937L378.297 -84.7217C353.444 -83.6143 328.631 -76.0977 300.224 -61.0792C279.742 -50.2462 253.121 -25.0867 244.019 0.311775C241.665 6.8826 241.019 13.8843 240.696 19.8858C239.703 38.4674 236.311 56.3256 230.879 71.5293C224.632 89.0105 214.976 102.329 202.965 110.031C183.276 122.656 155.962 126.918 131.902 130.634C124.777 131.742 118.06 132.78 111.627 133.981C104.61 135.304 99.2475 136.512 94.2309 137.896C74.7107 143.243 45.4499 155.161 21.8829 172.573C3.29392 186.299 -18.5956 208.635 -17.21 237.011C-16.8035 243.063 -16.0688 249.089 -15.009 255.062C-14.5319 258.062 -14.0471 261.071 -13.6623 264.102C-10.661 286.877 -2.31996 305.267 6.5058 324.741C11.3996 335.529 16.4627 346.685 20.6102 358.85C24.1267 369.045 27.1662 381.133 23.0731 393.443C16.9666 411.613 12.0755 430.169 8.43238 448.988C-0.0763389 494.43 13.0201 529.454 52.1616 566.057L57.9478 571.489C77.7378 590.079 98.1972 609.307 122.334 622.349C131.329 627.205 141.478 629.89 151.28 632.476C161.268 635.107 171.593 637.831 180.88 642.887C200.993 653.767 209.481 672.179 218.514 691.631C219.645 694.054 220.784 696.501 221.961 698.956L224.654 704.634C242.129 741.59 258.726 776.576 303.376 785.833C326.205 790.581 347.156 788.85 365.638 780.726C372.871 777.357 379.894 773.551 386.666 769.331C400.346 761.191 414.495 752.766 431.538 751.866C442.038 751.502 452.542 752.467 462.8 754.737C473.364 756.976 482.174 761.616 491.515 766.525C508.704 775.574 524.093 780.96 537.358 782.607C551.415 784.354 563.272 780.315 577.029 769.097C581.184 765.712 584.661 760.095 588.339 754.14C596.418 741.091 605.573 726.287 623.84 737.106C626.04 738.515 628.08 740.158 629.926 742.007C631.47 743.523 633.135 744.91 634.904 746.154C651.247 756.973 671.098 757.958 690.103 757.405C718.849 756.559 748.217 737.947 767.799 722.475C797.621 698.916 797.913 672.232 798.289 638.447C798.358 635.438 798.396 632.399 798.427 629.352C798.658 616.21 794.449 602.768 790.34 589.734C784.484 570.968 778.32 551.555 785.068 532.035C787.853 523.925 791.415 514.515 796.724 506.083C806.433 490.648 822.422 474.091 834.117 462.919L836.056 461.072C843.08 454.402 850.336 447.5 855.098 438.952C882.335 390.31 890.927 325.132 848.885 289.183C842.06 283.359 835.497 276.98 829.165 270.817C819.239 261.168 808.967 251.188 797.494 243.148C786.868 235.707 774.927 230.028 763.378 224.527C755.806 220.91 747.974 217.186 740.533 212.977C722.389 202.55 705.75 189.7 691.074 174.782Z" stroke="url(#paint2_linear_1_4942)" stroke-width="2" stroke-miterlimit="10"/>
<path d="M574.907 -48.6359C575.939 -47.604 576.979 -46.5645 577.933 -45.3942C580.644 -42.2374 583.401 -39.0651 586.173 -35.8928C603.384 -16.1433 621.104 4.19142 632.853 27.6015C637.475 36.8392 641.398 46.5153 645.189 55.8912C651.677 71.9025 658.374 88.4604 668.687 102.85C681.626 120.881 698.511 135.874 714.858 150.374C719.485 154.479 724.105 158.576 728.655 162.757C747.651 180.214 769.476 191.931 790.577 203.263C806.905 212.038 823.802 221.105 839.516 232.865C849.356 240.212 858.226 249.298 866.812 258.084C868.706 259.978 870.539 261.903 872.403 263.782C894.202 285.766 916.292 320.379 912.946 351.601C912.624 354.571 912.341 357.58 912.05 360.582C910.955 372.241 909.853 384.338 906.488 395.712C900.926 414.764 893.662 430.376 884.825 442.185C874.643 455.802 861.75 467.847 849.281 479.5C844.373 484.085 839.296 488.823 834.535 493.538C817.766 510.107 807.446 527.002 803.853 543.731C800.613 558.845 804.705 568.182 809.436 579.006C812.174 584.887 814.392 590.997 816.064 597.264C816.9 601.012 817.473 604.813 817.779 608.64C818.042 611.457 818.374 614.436 818.907 617.23C819.808 621.327 821.038 625.345 822.584 629.245C823.843 632.52 824.923 635.861 825.822 639.252C839.087 693.101 799.061 753.24 754.367 778.068C745.18 783.173 735.623 785.646 725.496 788.273L724.619 788.504C697.84 795.462 677.308 782.73 655.536 769.281L650.709 766.3C629.322 753.206 613.377 768.874 597.954 784.035C594.792 787.197 591.738 790.127 588.677 792.85C565.022 813.81 541.151 816.983 515.661 802.586C512.297 800.683 508.917 798.827 505.545 796.978C497.47 792.549 489.125 787.957 481.172 782.851C465.906 773.03 454.413 767.675 437.412 767.551C414.408 767.377 401.651 774.528 383.358 789.618C378.935 793.256 374.542 797.479 369.896 801.94C354.873 816.378 337.85 832.739 316.039 831.158C263.703 827.451 231.109 781.381 208.562 741.665L207.907 740.518C182.864 696.413 166.325 667.29 114.969 653.164C94.4327 647.52 76.5023 635.697 58.4174 623.027C8.40512 588.03 -22.8046 540.267 -27.2781 492.102C-29.1047 472.368 -23.5272 453.424 -18.1418 435.087C-12.2801 415.118 -6.21099 394.48 -9.98553 373.183C-12.8029 357.32 -20.4938 337.799 -31.1009 319.607C-33.6404 315.534 -36.6067 311.742 -39.9497 308.297C-41.8517 306.195 -43.823 304.023 -45.7022 301.621C-60.3654 282.82 -67.744 257.242 -65.4477 233.2C-63.052 208.089 -51.8214 182.213 -35.3613 163.935L-31.7386 159.866C-25.5699 152.943 -19.4164 146.358 -12.1766 142.029C10.7199 128.373 46.1826 111.698 85.3704 110.056C91.9966 109.775 98.7846 109.625 105.326 109.52C129.007 109.063 153.503 108.591 176.442 101.038C182.359 99.0939 191.085 95.9584 198.54 91.26C205.495 86.8306 208.301 81.4987 211.561 74.4815C212.568 72.2733 213.706 70.1805 214.797 68.1647C217.189 63.7253 219.449 59.5244 220.431 54.507C221.276 50.2284 221.004 46.234 220.663 41.9548C220.293 38.3455 220.262 34.7097 220.573 31.0955C221.462 23.1843 220.388 14.7873 219.259 5.90536C217.227 -9.88045 215.14 -26.2127 224.946 -39.6988C258.346 -85.6657 313.566 -99.7054 363.171 -107.376C365.819 -107.805 368.427 -108.273 370.975 -108.68C380.402 -110.33 390.152 -112.025 400.149 -111.166C415.796 -109.842 431.052 -106.524 445.853 -103.277C459.569 -100.329 473.67 -97.2128 487.963 -95.7662C490.141 -95.5419 492.342 -95.3868 494.543 -95.2317C500.746 -94.7821 507.173 -94.3246 513.292 -92.4205C519.412 -90.5164 525.047 -87.1117 530.451 -83.815C532.43 -82.6057 534.401 -81.404 536.387 -80.2793C543.562 -76.1812 548.59 -71.6456 554.365 -66.363L557.414 -63.5909C559.847 -61.4039 562.341 -59.4016 564.767 -57.4378C568.303 -54.6889 571.688 -51.7506 574.907 -48.6359V-48.6359ZM687.679 128.888C679.972 121.314 672.897 113.123 666.525 104.396C656.027 89.7598 649.261 73.0403 642.719 56.8827C638.943 47.553 635.044 37.9154 630.467 28.8008C618.873 5.6833 601.23 -14.559 584.158 -34.1392L575.903 -43.6559C572.005 -47.9525 567.716 -51.8763 563.09 -55.3761C560.634 -57.3553 558.085 -59.4115 555.629 -61.6216L552.565 -64.4092C546.929 -69.5531 542.016 -74.0502 535.072 -77.9635C533.094 -79.0651 531.061 -80.3283 529.052 -81.5531C523.801 -84.7574 518.359 -88.0773 512.509 -89.8812C506.659 -91.6852 500.432 -92.1117 494.414 -92.592C492.182 -92.7471 489.957 -92.9099 487.741 -93.1111C473.31 -94.5732 459.093 -97.6668 445.339 -100.668C430.638 -103.877 415.436 -107.187 399.881 -108.526C390.23 -109.347 381.08 -107.759 371.392 -106.063C368.775 -105.603 366.159 -105.142 363.55 -104.751C314.476 -97.1652 259.894 -83.3176 227.079 -38.1508C217.896 -25.5186 219.921 -9.72509 221.876 5.55273C222.989 14.2038 224.109 23.1703 223.205 31.3893C222.915 34.8302 222.955 38.2914 223.326 41.7253C223.851 46.1421 223.763 50.6096 223.064 55.001C222.005 60.4185 219.536 64.9964 217.161 69.4204C216.077 71.4131 215.016 73.429 214.001 75.5834C210.688 82.7929 207.543 88.6942 199.996 93.5003C192.448 98.3064 183.376 101.603 177.32 103.593C154.005 111.262 129.309 111.734 105.42 112.199C98.886 112.326 92.1212 112.453 85.5334 112.727C46.9229 114.377 11.8448 130.821 -10.7593 144.338C-17.6837 148.475 -23.6679 154.891 -29.6981 161.66L-30.9057 163.006L-33.3132 165.707C-49.3811 183.561 -60.3733 208.891 -62.7232 233.448C-64.9276 256.489 -57.5722 281.982 -43.5327 299.975C-41.7152 302.301 -39.7747 304.441 -37.9111 306.505C-34.4417 310.084 -31.3666 314.026 -28.7389 318.262C-17.9547 336.738 -10.1558 356.552 -7.29211 372.723C-3.4172 394.628 -9.56314 415.574 -15.517 435.834C-20.8333 453.933 -26.3262 472.639 -24.5538 491.842C-20.1961 539.276 10.6515 586.277 60.0171 620.843C77.9017 633.358 95.6167 645.058 115.73 650.586C168.094 665.013 184.833 694.552 210.223 739.203L210.877 740.35C253.191 814.847 289.377 826.634 316.16 828.556C336.856 830.068 352.741 814.769 368.04 800.069C372.74 795.539 377.148 791.316 381.648 787.601C400.45 772.095 413.591 764.745 437.426 764.919C455.081 765.051 466.928 770.545 482.61 780.643C490.509 785.726 498.816 790.279 506.845 794.693C510.232 796.542 513.627 798.398 516.991 800.316C541.372 814.082 564.243 811 586.929 790.902C589.952 788.233 592.937 785.295 596.106 782.187C611.505 767.049 628.967 749.896 652.124 764.084L656.959 767.073C678.199 780.237 698.293 792.638 723.956 785.994L724.833 785.764C734.79 783.183 744.186 780.749 753.08 775.812C809.392 744.526 833.34 680.938 823.244 639.951C822.367 636.656 821.315 633.411 820.091 630.229C818.493 626.181 817.232 622.007 816.321 617.752C815.773 614.85 815.456 611.84 815.178 608.916C814.887 605.216 814.337 601.541 813.533 597.917C811.871 591.764 809.673 585.768 806.966 579.997C802.251 569.22 797.797 559.044 801.213 543.091C804.898 525.869 815.472 508.535 832.61 491.582C837.379 486.813 842.494 482.083 847.41 477.491C859.794 465.922 872.61 453.954 882.646 440.529C891.291 428.974 898.44 413.616 903.879 394.902C907.129 383.737 908.261 371.808 909.356 360.272C909.639 357.248 909.922 354.239 910.244 351.253C913.491 320.963 891.824 287.142 870.464 265.597C868.593 263.726 866.706 261.84 864.858 259.884C856.342 251.168 847.548 242.159 837.878 234.935C822.326 223.321 805.528 214.292 789.293 205.564C768.045 194.147 746.074 182.345 726.848 164.657C722.32 160.499 717.708 156.41 713.096 152.321C704.534 144.774 695.864 137.073 687.656 128.865L687.679 128.888Z" stroke="url(#paint3_linear_1_4942)" stroke-width="2" stroke-miterlimit="10"/>
<path d="M578.507 -81.0548C585.808 -73.754 591.978 -64.6756 597.947 -55.8742C598.94 -54.4201 599.909 -52.9738 600.886 -51.5659C616.872 -28.3007 633.296 -2.90418 645.241 25.2165C651.049 38.873 656.556 51.0291 665.226 61.4844C671.719 69.3163 677.666 77.5868 683.42 85.5726C695.175 101.944 706.306 117.385 722.085 130.133L728.348 135.225C733.156 139.156 738.126 143.218 743.119 147.026C758.175 158.543 775.994 167.681 793.212 176.512C800.89 180.45 808.83 184.527 816.355 188.758C820.508 190.967 824.782 192.939 829.157 194.666C834.735 196.981 840.505 199.381 845.66 202.781L846.106 203.089C855.223 209.127 864.617 215.351 871.341 224.583C876.061 230.749 881.163 236.613 886.619 242.139C896.035 252.079 905.767 262.365 910.728 275.175C913.405 282.084 916.405 288.824 919.305 295.34C929.735 318.76 939.589 340.88 934.353 368.872C927.971 403.119 914.772 429.766 891.517 455.313C888.962 458.13 886.469 461.039 884.029 463.893C880.136 468.433 876.119 473.127 871.786 477.46C869.232 480.015 866.6 482.508 863.945 485.009C858.672 489.787 853.684 494.872 849.009 500.237C840.79 510.071 838.181 518.651 835.117 528.623C833.541 534.096 831.655 539.476 829.468 544.735C826.851 550.829 826.189 553.322 828.489 559.454C839.272 588.321 847.025 612.249 852.87 634.762C857.707 653.127 855.804 676.264 852.455 691.737C851.241 696.865 849.733 701.918 847.937 706.872C846.775 710.327 845.497 713.928 844.519 717.537C843.911 719.683 843.334 721.799 842.772 723.9C839.762 735.357 836.922 746.183 829.526 756.533C808.625 785.773 770.359 807.283 732.027 811.319C722.57 812.313 714.284 809.398 706.613 806.329C700.001 803.501 693.585 800.232 687.41 796.545C675.823 789.975 663.844 783.183 650.195 782.769C634.214 782.286 623.903 792.398 612.968 803.071C610.29 805.749 607.481 808.465 604.627 810.997C591.276 822.809 574.693 837.561 555.45 837.709C537.738 837.973 520.674 824.387 505.649 812.44C500.602 808.409 495.832 804.609 491.323 801.547C489.485 800.308 487.638 798.816 485.876 797.393C482.737 794.869 479.506 792.269 476.036 790.769C441.168 775.662 412.697 801.057 382.455 828.051C360.901 847.282 338.617 867.166 313.756 870.886C305.246 872.133 294.275 870.242 287.189 867.773C282.272 866.073 277.995 862.95 273.863 859.926L272.409 858.873C249.19 842.087 226.319 816.983 202.556 782.186C199.164 776.966 196.131 771.522 193.479 765.89C192.309 763.552 191.148 761.22 189.94 758.935C164.786 711.465 122.98 674.539 78.1252 660.156C75.263 659.233 72.2932 658.449 69.4157 657.695C64.2869 656.471 59.2586 654.859 54.3742 652.873C36.3631 645.034 18.9919 626.617 5.0442 611.823L1.10528 607.668C-6.09552 600.083 -12.3575 591.743 -18.4195 583.68C-22.1121 578.772 -25.9278 573.694 -29.9205 568.84L-30.9668 567.562C-35.3979 562.193 -39.583 557.115 -42.5213 550.406C-51.444 530.094 -55.9733 509.113 -59.2642 491.232C-63.2548 469.543 -56.8358 453.215 -49.4086 434.325C-48.4619 431.839 -47.4768 429.316 -46.4685 426.769C-31.6063 387.919 -49.2751 349.72 -66.3439 312.782C-74.6129 294.894 -83.1819 276.383 -87.6884 258.302C-95.0097 228.942 -86.5186 193.479 -62.4309 152.881C-61.4766 151.281 -60.4839 149.708 -59.4526 148.164C-40.1521 119.309 -3.71706 94.152 29.1379 86.9769C36.0137 85.6074 42.9631 84.638 49.9511 84.0737C54.0521 83.6654 58.2916 83.257 62.4004 82.6718C65.8398 82.1866 69.3022 81.5706 72.6492 80.9624C79.1034 79.6517 85.6374 78.7718 92.2081 78.3286C96.6349 78.128 101.064 77.9402 105.496 77.7653C124.47 76.9627 144.075 76.1139 163.349 74.3957C174.475 73.3941 183.531 71.9542 190.426 63.5821C204.385 46.5454 201.71 25.2176 199.112 4.55134C197.783 -6.38192 196.361 -17.7153 197.424 -28.2872C200.883 -61.765 224.915 -87.2587 270.897 -106.207C273.806 -107.408 276.699 -108.64 279.569 -109.848C288.61 -113.704 297.967 -117.691 307.608 -120.516C311.32 -121.497 315.128 -122.07 318.965 -122.225C320.881 -122.371 322.82 -122.51 324.82 -122.787C326.779 -123.084 328.721 -123.485 330.637 -123.988C333.374 -124.73 336.174 -125.218 339.001 -125.444C352.974 -126.107 367.108 -127.855 380.781 -129.558C398.762 -131.783 417.352 -134.078 435.856 -133.981C469.526 -133.8 506.364 -124.695 539.509 -108.387C552.813 -101.737 565.134 -93.2796 576.122 -83.2551C576.984 -82.5627 577.753 -81.8088 578.507 -81.0548ZM710.052 122.824C699.013 111.785 690.027 99.2905 681.265 87.1117C675.534 79.149 669.657 70.8861 663.187 63.1697C654.294 52.4451 648.471 39.5734 642.802 26.2401C630.949 -1.66516 614.594 -26.9308 598.701 -50.0729L595.754 -54.4043C589.239 -63.9982 582.469 -73.9382 574.406 -81.339C563.597 -91.185 551.484 -99.4968 538.408 -106.041C505.587 -122.194 469.187 -131.2 435.894 -131.388C417.544 -131.501 399.062 -129.19 381.157 -126.98C367.454 -125.293 353.25 -123.522 339.154 -122.812C336.496 -122.603 333.863 -122.145 331.291 -121.442C329.284 -120.915 327.249 -120.499 325.197 -120.194C323.135 -119.917 321.127 -119.771 319.188 -119.617C315.531 -119.488 311.9 -118.953 308.362 -118.023C298.859 -115.213 289.603 -111.28 280.623 -107.455C277.722 -106.216 274.821 -104.977 271.897 -103.776C226.907 -85.2354 203.406 -60.4573 200.055 -28.0567C199.007 -17.7771 200.406 -6.57459 201.782 4.26633C204.496 25.4481 207.24 47.4146 192.519 65.3053C184.97 74.4854 175.382 76.0254 163.626 77.0887C144.313 78.83 124.647 79.6633 105.642 80.4659L92.3617 81.0369C85.8997 81.4637 79.4733 82.323 73.126 83.6092C69.7635 84.2174 66.2703 84.8487 62.7848 85.3339C58.6144 85.9192 54.3441 86.3429 50.22 86.7435C43.3159 87.2902 36.449 88.2339 29.6531 89.5698C-2.58631 96.6063 -38.3288 121.301 -57.2831 149.626C-58.2912 151.126 -59.2531 152.658 -60.1843 154.22C-83.8873 194.186 -92.2937 228.98 -85.1339 257.64C-80.6889 275.475 -72.1506 293.894 -63.9585 311.643C-46.6359 349.096 -28.7286 387.826 -43.9988 427.715C-45.0147 430.269 -45.9999 432.793 -46.9543 435.286C-54.2353 453.799 -60.5311 469.789 -56.6789 490.724C-53.4111 508.459 -48.8971 529.286 -40.1129 549.321C-37.2899 555.73 -33.2511 560.63 -28.943 565.846L-27.8967 567.124C-23.8733 572.024 -20.0422 577.117 -16.3342 582.056C-10.3184 590.058 -4.1025 598.336 2.9983 605.806L6.93721 609.976C20.7311 624.601 37.8868 642.788 55.3978 650.418C60.1621 652.341 65.064 653.904 70.0623 655.094C72.9706 655.863 75.9789 656.655 78.9026 657.594C124.45 672.207 166.817 709.619 192.318 757.666C193.541 759.966 194.71 762.32 195.887 764.682C198.491 770.2 201.459 775.539 204.772 780.662C228.342 815.237 250.976 840.086 273.964 856.718L275.472 857.749C279.449 860.649 283.558 863.649 288.105 865.226C294.66 867.503 305.37 869.409 313.403 868.208C337.486 864.589 359.447 844.997 380.717 826.02C410.219 799.703 440.73 772.469 477.168 788.253C480.961 789.892 484.346 792.615 487.615 795.254C489.416 796.7 491.131 798.077 492.862 799.238C497.479 802.316 502.264 806.193 507.357 810.255C522.013 821.94 538.631 835.203 555.489 835.07C573.77 834.883 589.906 820.562 602.903 809.027C605.72 806.534 608.474 803.825 611.152 801.194C621.987 790.574 633.183 779.578 650.295 780.099C664.599 780.551 676.878 787.49 688.749 794.221C694.814 797.85 701.117 801.067 707.614 803.851C715 806.882 722.932 809.643 731.765 808.734C769.36 804.775 806.894 783.704 827.372 755.056C834.49 745.091 837.269 734.496 840.225 723.277C840.795 721.169 841.38 719.045 841.942 716.837C842.927 713.205 844.205 709.542 845.398 706.026C847.171 701.164 848.659 696.203 849.855 691.168C853.142 675.987 855.014 653.343 850.315 635.316C844.494 612.888 836.772 589.053 826.034 560.247C823.434 553.292 824.304 549.976 827.067 543.551C829.215 538.377 831.066 533.085 832.609 527.7C835.611 517.897 838.451 508.641 847.009 498.391C851.752 492.946 856.811 487.784 862.16 482.931C864.784 480.461 867.408 477.991 869.94 475.444C874.203 471.181 878.189 466.533 882.045 462.032C884.522 459.123 887.008 456.222 889.594 453.39C912.456 428.266 925.455 402.019 931.745 368.28C936.804 341.126 927.119 319.376 916.858 296.341C913.943 289.794 910.928 283.023 908.228 276.06C903.459 263.735 893.912 253.649 884.672 243.886C879.128 238.288 873.95 232.339 869.171 226.076C862.77 217.244 853.953 211.413 844.613 205.228L844.175 204.928C839.213 201.643 833.565 199.289 828.095 197.02C823.623 195.256 819.256 193.238 815.016 190.974C807.576 186.813 799.651 182.751 791.996 178.82C774.693 169.966 756.744 160.743 741.495 149.081C736.479 145.25 731.494 141.172 726.662 137.234L720.415 132.141C716.799 129.231 713.34 126.132 710.052 122.855L710.052 122.824Z" stroke="url(#paint4_linear_1_4942)" stroke-width="2" stroke-miterlimit="10"/>
<path d="M618.219 -89.7797C621.398 -86.6011 624.284 -83.238 627.27 -79.7748L631.088 -75.3728C641.486 -63.6056 650.448 -46.923 658.347 -32.2103L662.051 -25.4311C665.328 -19.1133 668.236 -12.6106 670.76 -5.95599C671.73 -3.4476 672.746 -0.985327 673.778 1.47693C696.773 56.1544 722.298 91.646 759.168 120.118C768.618 127.415 778.544 132.881 789.04 138.656L790.449 139.433C802.414 146.016 819.82 156.116 832.865 167.823C835.882 170.517 838.853 173.226 841.808 175.92C856.092 188.943 869.576 201.242 886.066 211.381L891.568 214.745C901.841 220.988 911.537 226.901 920.934 234.498C950.308 258.29 966.283 285.769 974.37 326.384C977.715 343.188 972.771 368.881 966.4 384.55C960.298 399.595 950.849 414.647 938.323 429.282C931.887 436.811 924.642 443.871 917.644 450.684C914.96 453.368 912.192 455.998 909.539 458.651L907.017 461.173C887.215 480.975 864.767 503.423 859.478 531.57C858.907 535.202 858.613 538.871 858.598 542.548C858.567 545.916 858.334 549.278 857.902 552.618C856.099 564.657 864.067 578.778 871.111 591.297C874.296 596.679 877.132 602.259 879.604 608.003C882.238 614.605 884.756 621.214 887.282 627.831L891.556 638.95C896.062 650.468 897.704 660.093 896.893 670.14C896.472 675.302 896.212 680.58 895.968 686.134C894.999 704.359 894.068 723.223 887.527 739.399C885.698 743.937 884.046 748.791 882.463 753.483C879.029 763.629 875.448 774.152 869.551 783.051C866.245 788.019 861.884 792.179 857.678 796.201C856.447 797.432 855.155 798.6 853.925 799.831C847.273 806.483 841.29 811.712 833.898 815.778C801.14 833.852 774.301 839.496 744.141 834.652C733.932 832.994 723.752 830.505 713.881 828.139C695.531 823.631 676.496 819.038 656.902 819.899C648.832 820.273 642.793 821.448 637.787 826.346C636.018 828.115 634.241 829.891 632.473 831.66C631.181 832.952 629.889 834.244 628.628 835.505C625.936 838.197 623.245 840.888 620.561 843.572C614.862 849.27 609.156 854.976 603.458 860.675C592.1 872.279 579.478 878.39 565.938 878.846C551.982 879.302 539.233 874.673 527.376 869.906C517.881 866.087 510.062 860.191 502.482 854.487C497.98 851.092 493.316 847.582 488.322 844.511C485.903 842.93 483.647 841.112 481.588 839.084C480.419 838.007 479.256 836.921 477.987 835.898C474.031 832.726 465.713 829.7 460.497 828.928C435.246 825.102 416.973 839.419 400.985 855.453L399.816 856.622C387.051 869.388 373.901 882.646 357.387 890.648C353.618 892.477 349.68 894.199 345.872 895.867C343.729 896.799 341.593 897.739 339.465 898.687C338.411 899.172 337.38 899.679 336.45 900.163C332.227 902.2 328.243 904.122 322.803 904.127C316.058 904.009 309.341 903.212 302.754 901.75C296.446 900.46 290.307 898.449 284.457 895.757C276.501 892.307 270.067 887.781 263.257 882.985C261.448 881.715 259.563 880.383 257.662 879.083C237.847 865.604 223.998 843.265 211.788 823.565L211.534 823.157C210.68 821.78 209.794 820.464 208.917 819.155C206.343 815.618 204.229 811.768 202.627 807.698C201.091 802.974 199.073 798.42 196.605 794.109C195.697 792.442 194.929 790.702 194.31 788.907C193.592 786.638 192.515 784.498 191.123 782.567C187.095 777.803 182.604 773.451 177.716 769.575C159.962 755.405 143.676 738.612 127.921 722.395C124.127 718.493 120.294 714.538 116.477 710.659C106.633 700.692 94.0128 692.332 76.8691 684.555C68.2126 680.62 59.9112 679.67 51.8868 678.752C39.4617 677.323 27.7366 675.98 15.4151 664.427C10.7435 660.063 5.87192 655.73 1.16196 651.558C-3.548 647.387 -8.49657 642.977 -13.2143 638.551C-41.1745 612.298 -61.3806 584.463 -73.0474 555.94C-83.7979 529.671 -81.5366 509.508 -78.8919 486.191C-77.9721 477.882 -76.9832 469.259 -76.5408 459.812C-76.3727 456.904 -76.1354 454.065 -75.8981 451.226C-75.2009 445.268 -75.0334 439.259 -75.3976 433.27C-76.2632 423.5 -76.2365 413.621 -76.2019 404.059C-76.1889 398.227 -76.1683 392.204 -76.3553 386.28C-76.8851 369.877 -82.4689 354.604 -87.8756 339.816C-91.2831 330.98 -94.2118 321.967 -96.6492 312.816C-97.2117 310.547 -97.705 308.346 -98.1982 306.192C-99.9246 298.513 -101.566 291.258 -105.585 283.763C-106.963 281.17 -108.357 278.669 -109.72 276.214C-116.718 263.602 -123.331 251.683 -124.645 235.834C-126.114 218.216 -123.436 203.054 -120.603 186.999C-119.621 181.399 -118.585 175.622 -117.725 169.591C-115.017 150.766 -104.661 133.853 -94.9044 119.802C-88.9457 111.226 -81.9784 104.305 -74.6344 97.0071L-74.3268 96.6995C-72.2351 94.6078 -70.1818 92.4622 -68.1286 90.3166C-61.3691 83.2339 -54.4251 75.9358 -45.7184 70.9849C-16.3831 54.3949 14.647 43.7908 44.0107 40.3023C85.9599 35.2957 117.257 37.9549 145.426 48.8523C155.529 52.803 163.445 52.6293 168.867 48.4079C183.941 36.6588 178.978 -3.83264 175.698 -30.6295C174.439 -40.8851 173.451 -48.9788 173.78 -53.4484C174.515 -63.7263 178.273 -73.5644 181.892 -83.1103L182.738 -85.341C193.62 -113.955 232.464 -129.695 263.678 -142.346C270.924 -145.282 277.77 -148.048 283.639 -150.746C288.57 -152.87 293.65 -154.632 298.838 -156.018C303.825 -157.337 308.711 -159.009 313.461 -161.02C321.338 -164.617 327.168 -167.031 335.93 -167.942C341.924 -168.681 347.864 -169.799 353.716 -171.289C359.905 -172.857 366.194 -174.004 372.54 -174.721C377.002 -175.134 381.54 -175.809 385.948 -176.462C393.001 -177.673 400.128 -178.407 407.281 -178.661C411.897 -178.659 416.505 -179.188 420.974 -179.64C425.444 -180.092 429.983 -180.552 434.583 -180.627C468.872 -181.159 488.409 -171.989 517.979 -158.106L523.089 -155.719C551.951 -142.236 575.2 -124.063 599.834 -104.843C603.574 -101.918 607.33 -98.993 611.131 -96.0526C613.628 -94.1182 615.996 -92.0228 618.219 -89.7797ZM734.073 101.683C708.821 76.4309 689.275 45.3039 671.294 2.54529C670.254 0.05995 669.253 -2.43304 668.244 -4.93375C665.773 -11.4834 662.922 -17.8834 659.705 -24.1011C658.504 -26.3019 657.28 -28.5872 655.994 -30.888C648.164 -45.4853 639.287 -62.0217 629.081 -73.5657C627.772 -75.0433 626.502 -76.5286 625.248 -77.9832C620.26 -83.7705 615.611 -89.1576 609.486 -93.8992C605.679 -96.8447 601.911 -99.7773 598.181 -102.697C573.662 -121.832 550.521 -139.898 521.943 -153.265L516.834 -155.652C487.594 -169.373 468.28 -178.444 434.592 -177.911C430.076 -177.813 425.583 -177.384 421.214 -176.94C416.844 -176.495 412.013 -176.005 407.289 -175.945C400.267 -175.706 393.269 -174.997 386.342 -173.823C381.911 -173.163 377.318 -172.495 372.764 -172.02C366.55 -171.303 360.392 -170.164 354.332 -168.612C348.37 -167.09 342.317 -165.951 336.208 -165.204C327.838 -164.345 322.223 -161.993 314.57 -158.512C309.737 -156.456 304.763 -154.748 299.686 -153.402C294.617 -152.052 289.655 -150.331 284.84 -148.253C278.909 -145.54 272.041 -142.75 264.764 -139.799C234.027 -127.348 195.798 -111.87 185.323 -84.3244L184.47 -82.1014C180.904 -72.7633 177.208 -63.1097 176.465 -53.1935C176.152 -48.9854 177.186 -40.5993 178.375 -30.89C181.748 -3.4776 186.804 37.8909 170.53 50.5627C164.324 55.3992 155.561 55.6803 144.497 51.3984C116.75 40.6627 85.8763 38.0729 44.358 43.0028C15.3405 46.4529 -15.3512 56.9495 -44.3711 73.3627C-52.7548 78.0984 -59.5835 85.2656 -66.1892 92.1945C-68.2655 94.3632 -70.3264 96.5318 -72.4334 98.6235L-72.7487 98.9388C-80.0082 106.198 -86.9217 113.019 -92.742 121.395C-102.83 135.916 -112.47 151.806 -115.11 170.038C-115.984 176.115 -117.036 181.954 -118.003 187.539C-120.804 203.409 -123.452 218.417 -122.022 235.689C-120.739 250.968 -114.572 262.103 -107.427 274.969C-106.057 277.447 -104.694 279.932 -103.27 282.556C-99.0971 290.374 -97.4092 297.799 -95.6135 305.685C-95.1357 307.824 -94.6424 310.009 -94.0799 312.264C-91.6664 321.318 -88.7659 330.236 -85.391 338.978C-79.9074 353.951 -74.2619 369.425 -73.7243 386.25C-73.5372 392.22 -73.5424 398.275 -73.5631 404.129C-73.59 413.622 -73.6168 423.439 -72.7589 433.094C-72.3825 439.226 -72.5447 445.379 -73.2438 451.481C-73.4965 454.304 -73.7416 457.135 -73.8481 459.951C-74.2982 469.483 -75.2793 478.13 -76.2222 486.507C-78.8209 509.47 -81.0746 529.333 -70.5706 554.956C-59.0577 583.095 -39.0826 610.591 -11.3456 636.636C-6.65096 641.039 -1.74862 645.387 2.98442 649.582C7.71747 653.777 12.5967 658.118 17.2837 662.512C28.9357 673.426 40.253 674.716 52.2088 676.09C60.4718 677.063 68.9424 678.012 77.9913 682.109C95.4351 690.032 108.294 698.477 118.392 708.775C122.24 712.623 125.996 716.563 129.844 720.519C145.537 736.689 161.769 753.413 179.392 767.483C184.429 771.477 189.054 775.963 193.199 780.875C194.802 783.03 196.038 785.435 196.856 787.993C197.426 789.649 198.131 791.255 198.966 792.794C201.512 797.249 203.597 801.952 205.188 806.829C206.72 810.709 208.743 814.376 211.209 817.741C212.109 819.072 213.01 820.419 213.88 821.827L214.134 822.235C226.213 841.711 239.892 863.789 259.246 876.96C261.162 878.261 263.025 879.569 264.872 880.878C271.567 885.589 277.892 890.038 285.602 893.38C291.27 895.984 297.219 897.928 303.33 899.173C309.743 900.593 316.282 901.371 322.849 901.496C327.672 901.491 331.218 899.776 335.325 897.793C336.356 897.286 337.395 896.786 338.456 896.31C340.579 895.357 342.725 894.427 344.871 893.497C348.655 891.836 352.563 890.13 356.293 888.324C372.407 880.506 385.411 867.441 398 854.806L399.131 853.675C415.641 837.165 434.514 822.386 460.935 826.397C466.505 827.246 475.261 830.357 479.686 833.921C481.01 834.983 482.226 836.107 483.442 837.231C485.371 839.139 487.485 840.851 489.752 842.342C494.862 845.483 499.541 849.054 504.127 852.456C511.9 858.322 519.241 863.849 528.421 867.522C540.017 872.181 552.466 876.71 565.883 876.238C578.707 875.82 590.722 869.978 601.588 858.866C607.232 853.098 612.954 847.408 618.714 841.74C621.398 839.056 624.097 836.357 626.773 833.681C628.057 832.397 629.341 831.113 630.618 829.836C632.402 828.052 634.186 826.268 636.001 824.453C642.222 818.37 650.038 817.542 656.87 817.237C676.841 816.369 696.045 821.038 714.603 825.554C724.282 827.958 734.423 830.409 744.563 832.029C774.084 836.757 800.447 831.236 832.613 813.447C839.696 809.565 845.526 804.413 852.047 797.938C853.285 796.699 854.531 795.454 855.838 794.269C859.937 790.355 864.19 786.303 867.334 781.573C873.062 772.935 876.566 762.613 879.924 752.636C881.546 747.936 883.175 743.028 885.034 738.413C891.413 722.645 892.337 704.035 893.237 686.033C893.52 680.425 893.787 675.124 894.208 669.916C894.996 660.308 893.415 651.037 889.103 639.864C887.665 636.171 886.24 632.465 884.828 628.746C882.302 622.144 879.776 615.527 877.158 608.956C874.723 603.329 871.933 597.862 868.804 592.589C861.552 579.738 853.337 565.172 855.294 552.225C855.707 548.992 855.929 545.737 855.959 542.478C855.972 538.664 856.279 534.858 856.877 531.092C862.297 502.106 885.098 479.336 905.154 459.295L907.669 456.781C910.345 454.105 913.052 451.398 915.797 448.791C922.757 442.016 929.955 435.003 936.314 427.566C948.656 413.146 957.951 398.34 963.953 383.564C970.171 368.249 975.015 343.256 971.754 326.937C963.714 286.429 948.494 260.258 919.273 236.59C910.023 229.093 900.396 223.234 890.2 217.037L884.69 213.665C867.984 203.388 854.377 191.042 840.032 177.912C837.076 175.218 834.113 172.517 831.104 169.815C818.252 158.301 801.023 148.3 789.203 141.756L787.803 140.986C777.199 135.15 767.211 129.623 757.576 122.218C749.313 115.88 741.462 109.021 734.073 101.683Z" stroke="url(#paint5_linear_1_4942)" stroke-width="2" stroke-miterlimit="10"/>
<defs>
<linearGradient id="paint0_linear_1_4942" x1="190.808" y1="644.086" x2="677.054" y2="157.84" gradientUnits="userSpaceOnUse">
<stop stop-color="#DCDCDC"/>
<stop offset="1" stop-color="#FFF0E9" stop-opacity="0"/>
</linearGradient>
<linearGradient id="paint1_linear_1_4942" x1="175.904" y1="665.201" x2="689.474" y2="151.63" gradientUnits="userSpaceOnUse">
<stop stop-color="#DCDCDC"/>
<stop offset="1" stop-color="#FFF0E9" stop-opacity="0"/>
</linearGradient>
<linearGradient id="paint2_linear_1_4942" x1="161.932" y1="679.794" x2="708.416" y2="133.31" gradientUnits="userSpaceOnUse">
<stop stop-color="#DCDCDC"/>
<stop offset="1" stop-color="#FFF0E9" stop-opacity="0"/>
</linearGradient>
<linearGradient id="paint3_linear_1_4942" x1="131.812" y1="701.84" x2="728.598" y2="105.055" gradientUnits="userSpaceOnUse">
<stop stop-color="#DCDCDC"/>
<stop offset="1" stop-color="#FFF0E9" stop-opacity="0"/>
</linearGradient>
<linearGradient id="paint4_linear_1_4942" x1="114.736" y1="722.022" x2="748.16" y2="88.5979" gradientUnits="userSpaceOnUse">
<stop stop-color="#DCDCDC"/>
<stop offset="1" stop-color="#FFF0E9" stop-opacity="0"/>
</linearGradient>
<linearGradient id="paint5_linear_1_4942" x1="93.0001" y1="745" x2="773" y2="64.9998" gradientUnits="userSpaceOnUse">
<stop stop-color="#DCDCDC"/>
<stop offset="1" stop-color="#FFF0E9" stop-opacity="0"/>
</linearGradient>
</defs>
</svg>
