<svg width="636" height="688" viewBox="0 0 636 688" fill="none" xmlns="http://www.w3.org/2000/svg">
<path d="M261.916 890.217C250.623 909.777 237.545 927.174 223.4 941.019C215.771 948.578 207.095 955.001 197.639 960.088C189.415 964.692 181.508 970.109 173.858 975.331C167.331 979.797 160.578 984.405 153.622 988.524C136.256 998.777 123.717 1012.49 111.108 1034.25L110.098 1036C106.482 1042.27 103.84 1046.84 103.186 1054.37C100.457 1083.52 94.552 1112.29 85.5772 1140.16C67.6248 1196.43 31.3925 1234.98 -16.4378 1248.68C-75.258 1265.53 -122.736 1255.75 -147.557 1240.97C-152.955 1237.76 -158.456 1234.15 -164.299 1230.32C-192.061 1212.11 -223.525 1191.47 -255.096 1207.27C-263.513 1211.49 -271.383 1216.94 -278.998 1222.23C-291.616 1231 -304.673 1240.06 -320.684 1243.78C-361.722 1253.32 -409.333 1229.75 -426.818 1191.24L-427.416 1189.92C-437.614 1167.46 -449.186 1142 -446.336 1116.97C-446.198 1115.61 -445.978 1114.17 -445.799 1112.77C-445.261 1109.3 -444.94 1105.81 -444.839 1102.31C-444.772 1090.62 -449.037 1069.68 -457.266 1060.76C-463.8 1053.67 -472.915 1048.56 -481.712 1043.62C-497.813 1034.59 -514.456 1025.25 -517.535 1003.32C-519.426 989.771 -517.538 975.894 -515.722 962.464C-513.153 943.468 -510.726 925.535 -517.81 907.968C-521.24 899.486 -527.074 892.093 -532.706 884.946C-539.168 876.761 -545.847 868.28 -549.209 857.946C-559.603 826.037 -560.007 790.903 -550.333 761.558C-543.686 741.421 -525.149 722.249 -507.885 706.151C-490.239 689.687 -477.492 666.098 -467.798 631.91L-466.335 632.325L-467.798 631.91C-464.009 618.558 -461.005 604.854 -458.232 591.947C-449.094 549.232 -423.65 504.789 -390.049 473.132C-352.42 437.571 -308.144 420.484 -265.18 424.924C-261.416 425.419 -257.7 426.228 -254.071 427.342C-250.082 428.611 -245.963 429.423 -241.791 429.764C-212.759 431.101 -185.95 415.917 -165.847 402.532C-130.499 379.002 -100.716 367.612 -61.412 383.472C-46.8004 389.125 -32.9304 396.531 -20.1062 405.53C-6.76188 414.882 2.82978 429.642 8.53318 440.382C10.1388 443.4 11.609 446.455 12.9916 449.487C15.3327 454.847 18.0893 460.016 21.2363 464.945C26.969 473.454 32.0763 483.491 37.4911 494.137C49.3029 517.369 61.5212 541.408 81.8146 552.552C98.6262 561.771 118.435 563.197 137.607 564.585C148.013 565.322 158.776 566.108 168.899 568.129C173.945 568.969 179.057 569.346 184.172 569.256C185.686 569.285 187.217 569.31 188.753 569.352C207.007 569.951 225.345 581.484 240.935 592.719C256.913 604.25 269.909 619.358 277.432 635.273C280.596 641.912 283.164 649.037 285.646 655.941C287.541 661.331 289.565 666.796 291.8 671.996L292.615 673.856C296.404 682.632 299.911 690.958 301.123 700.852C302.776 715.212 304.241 729.204 304.008 742.618C303.87 746.512 303.537 750.397 303.011 754.258C302.682 757.306 302.304 760.438 302.151 763.529C301.354 779.482 298.109 793.949 294.86 807.383C287.852 836.412 276.76 864.302 261.916 890.217V890.217ZM108.833 1032.12C121.484 1010.21 134.447 996.358 152.086 985.904C158.956 981.836 165.669 977.248 172.15 972.812C179.853 967.549 187.827 962.114 196.167 957.434C205.389 952.476 213.848 946.213 221.283 938.837C253.115 907.692 279.543 858.274 292 806.662C295.202 793.359 298.409 779.056 299.196 763.37C299.349 760.179 299.72 756.984 300.103 753.868C300.522 750.143 300.971 746.292 301.039 742.508C301.258 729.315 299.793 715.423 298.15 701.169C297.057 691.687 293.57 683.602 289.879 675.026L289.082 673.134C286.814 667.843 284.808 662.274 282.862 656.897C280.409 650.067 277.859 643.01 274.778 636.476C267.426 621.032 254.81 606.33 239.225 595.112C224.006 584.148 206.115 572.859 188.729 572.317C187.2 572.265 185.697 572.242 184.193 572.219C178.877 572.287 173.567 571.872 168.327 570.978C158.396 568.997 147.727 568.221 137.444 567.469C117.961 566.074 97.8037 564.633 80.4189 555.068C59.3083 543.482 46.8598 519.023 34.8456 495.373C29.4856 484.831 24.4134 474.857 18.7875 466.51C15.5409 461.458 12.6846 456.166 10.2433 450.679C8.86185 447.718 7.41934 444.666 5.85496 441.7C0.274347 431.318 -9.0009 416.926 -21.855 407.915C-34.4903 399.044 -48.1583 391.744 -62.5582 386.176C-100.621 370.817 -129.651 381.969 -164.177 404.943C-184.674 418.587 -212.028 434.072 -241.945 432.682C-246.311 432.329 -250.624 431.486 -254.803 430.171C-258.267 429.106 -261.814 428.327 -265.406 427.844C-307.427 423.505 -350.92 440.327 -387.865 475.223C-420.988 506.497 -446.151 550.329 -455.171 592.469C-457.941 605.42 -460.972 619.195 -464.786 632.617C-474.654 667.378 -487.661 691.419 -505.737 708.279C-522.718 724.111 -540.945 742.918 -547.364 762.413C-556.814 791.171 -556.434 825.604 -546.248 856.906C-543.049 866.73 -536.54 874.985 -530.249 882.971C-524.461 890.294 -518.51 897.854 -514.92 906.729C-507.583 925.072 -510.213 944.248 -512.695 962.822C-514.487 976.038 -516.34 989.705 -514.507 1002.84C-511.644 1023.28 -496.372 1031.8 -480.183 1040.93C-471.171 1045.99 -461.81 1051.23 -454.979 1058.66C-446.231 1068.16 -441.659 1090.11 -441.757 1102.3C-441.862 1105.94 -442.2 1109.57 -442.769 1113.17C-442.928 1114.51 -443.13 1115.93 -443.286 1117.31C-446.035 1141.5 -434.667 1166.57 -424.63 1188.66L-424.032 1189.98C-407.116 1227.24 -361.047 1250.05 -321.338 1240.82C-305.902 1237.23 -293.082 1228.33 -280.691 1219.73C-273 1214.39 -265.032 1208.87 -256.431 1204.55C-223.297 1187.98 -191.054 1209.13 -162.554 1227.82C-156.754 1231.63 -151.274 1235.22 -145.935 1238.39C-121.661 1252.85 -75.0952 1262.37 -17.1587 1245.81C29.6663 1232.39 65.185 1194.54 82.8035 1139.29C91.6983 1111.64 97.5497 1083.11 100.254 1054.2C100.959 1046.01 103.903 1040.94 107.563 1034.57L108.922 1032.22L108.833 1032.12Z" stroke="url(#paint0_linear_1_6004)" stroke-width="2" stroke-miterlimit="10"/>
<path d="M306.077 843.727C302.038 850.723 297.852 857.576 293.696 864.404L287.858 873.995C275.69 894.152 262.184 915.538 245.881 935.296C229.578 955.054 210.261 974.53 185.236 996.477C182.397 998.915 179.54 1001.39 176.67 1003.88C151.899 1025.21 126.277 1047.3 119.462 1080.1C118.846 1083.08 118.516 1086.18 118.193 1089.17C117.888 1092.67 117.372 1096.15 116.648 1099.58C115.955 1102.54 115.095 1105.49 114.264 1108.35C113.024 1112.33 112.002 1116.38 111.201 1120.47C109.401 1130.88 106.932 1141.15 104.557 1151.07C103.396 1155.91 102.233 1160.77 101.128 1165.69C98.2824 1178.85 93.4823 1191.5 86.8876 1203.24C85.5743 1205.52 84.2548 1207.8 82.9291 1210.1C74.5299 1224.82 65.818 1240.03 52.1423 1250.78L51.3387 1251.4C46.0385 1255.62 40.4827 1259.94 34.0833 1262.67C32.4939 1263.34 30.9186 1263.96 29.3663 1264.57C25.2455 1266.04 21.2823 1267.92 17.5356 1270.18C5.30519 1277.98 -8.20111 1283.57 -22.3675 1286.69C-67.7511 1296.59 -97.8242 1283.18 -132.62 1267.58C-146.147 1261.53 -160.144 1255.28 -176.046 1249.95C-206.455 1239.75 -231.751 1237.82 -255.743 1243.99C-259.955 1245.24 -264.004 1246.99 -267.804 1249.19C-270.092 1250.4 -272.471 1251.65 -274.951 1252.72C-278.189 1254.11 -281.476 1255.32 -284.655 1256.49C-289.509 1258.16 -294.256 1260.13 -298.869 1262.39C-301.556 1263.77 -304.242 1265.22 -306.927 1266.67C-318.245 1272.82 -329.941 1279.14 -343.227 1280.58C-357.278 1281.91 -371.453 1280.85 -385.155 1277.46C-414.773 1270.28 -442.616 1246.13 -457.792 1214.45C-472.218 1184.35 -467.908 1154.25 -463.715 1125.09C-461.365 1108.63 -468.462 1099.35 -488.237 1093.04C-497.783 1089.99 -504.639 1087.06 -511.401 1081.1C-543.823 1052.74 -537.35 1023.7 -531.084 995.613C-526.358 974.436 -521.465 952.525 -532.229 929.887C-538.222 917.285 -547.228 906.678 -555.943 896.411C-566.318 884.183 -577.057 871.545 -583.058 855.262C-592.443 829.815 -594.087 796.491 -587.608 763.823C-581.317 732.176 -549.311 705.648 -523.598 684.342C-520.063 681.418 -516.663 678.603 -513.474 675.88C-491.756 657.404 -489.023 632.415 -486.137 605.97C-485.401 599.241 -484.634 592.26 -483.543 585.436C-480.333 565.695 -474.381 546.499 -465.861 528.406C-457.461 510.246 -446.402 493.439 -433.047 478.538C-410.28 453.385 -370.28 421.887 -336.28 412.161C-321.202 407.862 -305.666 408.72 -290.612 409.572C-274.013 410.572 -256.813 411.475 -240.562 405.292C-220.514 397.668 -203.671 384.188 -187.37 371.153C-163.461 352.053 -138.864 332.334 -103.933 330.913C-94.4706 330.54 -86.1161 333.375 -76.4982 337.74C-68.5109 341.364 -60.7115 345.39 -53.1302 349.801V349.801C-12.1448 373.793 9.20549 404.274 30.3637 445.674L31.4619 447.739C51.5161 486.985 72.2565 527.572 115.283 543.343C127.524 547.85 140.699 549.748 150.778 550.961C161.395 552.183 173.799 551.376 186.877 550.615C211.234 549.113 236.428 547.549 254.335 558.432C291.893 581.246 317.535 633.747 328.095 671.761C333.631 691.898 336.477 712.677 336.56 733.558C336.698 756.227 333.756 777.39 327.801 796.455C322.696 813.107 314.75 828.705 306.077 843.727ZM126.741 1053.02C138.35 1032.91 156.751 1017.06 174.702 1001.58C177.566 999.102 180.418 996.642 183.257 994.204C208.157 972.371 227.322 953.036 243.558 933.368C259.795 913.701 273.179 892.501 285.28 872.435L291.124 862.833C304.095 841.581 317.515 819.601 325.022 795.566C331.053 775.468 333.951 754.559 333.616 733.575C333.536 712.96 330.723 692.446 325.253 672.567C314.845 635.084 289.651 583.343 252.853 561.024C235.749 550.634 211.046 552.166 187.152 553.635C173.915 554.448 161.402 555.22 150.538 553.955C140.258 552.77 126.846 550.835 114.311 546.216C70.1847 529.995 49.1759 488.882 28.8471 449.119L27.7489 447.054C6.81777 406.129 -14.2604 376.019 -54.5909 352.405C-62.083 348.046 -69.793 344.072 -77.6906 340.499C-86.9187 336.302 -94.8801 333.579 -103.748 333.939C-137.682 335.32 -160.882 353.885 -185.412 373.513C-201.889 386.705 -218.93 400.328 -239.427 408.137C-256.286 414.554 -273.798 413.571 -290.696 412.642C-305.479 411.818 -320.795 411.001 -335.358 415.125C-368.787 424.681 -408.218 455.763 -430.705 480.606C-443.86 495.288 -454.753 511.849 -463.025 529.743C-471.426 547.582 -477.294 566.508 -480.459 585.972C-481.502 592.737 -482.299 599.645 -483.033 606.346C-485.852 632.228 -488.774 658.982 -511.416 678.242C-514.622 680.969 -518.039 683.788 -521.551 686.697C-546.901 707.697 -578.451 733.831 -584.523 764.431C-590.885 796.523 -589.297 829.3 -580.121 854.24C-574.307 870.029 -563.749 882.461 -553.535 894.496C-544.701 904.904 -535.554 915.664 -529.399 928.631C-518.217 952.254 -523.193 974.632 -528.027 996.319C-534.426 1024.76 -540.378 1051.68 -509.318 1078.85C-502.959 1084.43 -496.406 1087.21 -487.227 1090.18C-472.253 1094.96 -457.363 1102.91 -460.633 1125.56C-464.759 1154.25 -469.004 1183.91 -454.992 1213.22C-440.195 1244.1 -413.137 1267.61 -384.383 1274.59C-371.019 1277.89 -357.194 1278.93 -343.489 1277.64C-330.808 1276.28 -319.393 1270.09 -308.322 1264.08C-305.613 1262.61 -302.91 1261.15 -300.2 1259.76C-295.477 1257.45 -290.616 1255.43 -285.645 1253.71C-282.505 1252.56 -279.252 1251.37 -276.094 1250.01C-273.728 1248.99 -271.407 1247.77 -269.158 1246.58C-265.149 1244.27 -260.879 1242.44 -256.438 1241.13C-231.897 1234.87 -206.04 1236.8 -175.053 1247.19C-159.004 1252.56 -144.942 1258.85 -131.351 1264.94C-97.0295 1280.29 -67.3908 1293.54 -22.9858 1283.84C-9.15477 1280.79 4.02941 1275.33 15.9626 1267.7C19.8834 1265.35 24.0278 1263.38 28.3355 1261.84C29.8353 1261.28 31.4123 1260.63 32.9678 1259.97C39.0021 1257.4 44.3577 1253.18 49.5435 1249.11L50.3471 1248.48C63.5141 1238.07 72.1185 1223.17 80.3708 1208.68L84.3416 1201.8C90.832 1190.36 95.5184 1177.99 98.2357 1165.12C99.3527 1160.18 100.515 1155.32 101.683 1150.47C104.05 1140.59 106.506 1130.36 108.283 1120.05C109.101 1115.83 110.154 1111.66 111.44 1107.56C112.264 1104.75 113.109 1101.84 113.812 1098.92C114.505 1095.6 115.006 1092.25 115.311 1088.88C115.595 1085.74 116.035 1082.62 116.631 1079.53C118.557 1070.21 121.97 1061.26 126.741 1053.02V1053.02Z" stroke="url(#paint1_linear_1_6004)" stroke-width="2" stroke-miterlimit="10"/>
<path d="M337.923 848.567C327.596 866.455 314.848 882.959 302.479 898.981L296.261 907.051C287.912 917.968 280.691 926.833 270.072 933.851C259.252 940.995 251.391 949.333 242.957 958.713C196.716 1010.06 153.848 1061.44 137.34 1125.22C134.932 1134.54 133.123 1144.24 131.415 1153.54C128.787 1168.01 125.988 1182.92 120.849 1197.05C115.311 1212.26 107.29 1226.6 99.5467 1240.46C94.6636 1249.21 89.6024 1258.25 85.2463 1267.38C57.3378 1325.88 -18.3969 1335.94 -81.1309 1320.01C-92.3613 1317.16 -102.288 1311.08 -111.888 1305.21L-114.49 1303.62C-130.074 1294.14 -152.742 1281.54 -172.292 1275.53C-182.856 1272.29 -194.07 1271.12 -203.585 1270.48C-226 1268.91 -245.147 1281.07 -263.681 1292.8C-276.993 1301.24 -290.762 1309.97 -305.784 1313.69C-309.169 1314.59 -312.492 1315.39 -315.821 1316.2C-353.88 1325.95 -383.939 1333.63 -419.803 1306.92C-442.953 1289.67 -472.564 1262.36 -482.207 1230.2C-488.554 1208.98 -493.432 1186.31 -486.074 1164.34C-485.174 1161.87 -484.069 1159.47 -482.768 1157.18C-481.394 1154.8 -480.273 1152.27 -479.424 1149.65C-473.719 1129.24 -489.673 1124.44 -506.574 1119.34C-514.454 1116.98 -521.92 1114.77 -527.265 1110.87C-544.44 1098.5 -552.697 1086.06 -555.048 1069.2C-557.19 1053.75 -555.79 1034.87 -550.858 1013.1C-548.221 1001.44 -545.764 990.572 -546.39 978.722C-546.89 967.042 -548.862 955.472 -552.261 944.287C-558.048 926.509 -570.678 914.239 -583.935 901.32C-590.633 895.039 -596.94 888.353 -602.822 881.302C-617.629 862.867 -625.917 839.755 -627.467 812.606C-630.496 759.223 -596.42 730.21 -560.257 699.54L-554.812 694.915C-552.459 692.897 -550.093 690.93 -547.761 688.971C-529.421 673.635 -512.104 659.154 -506.237 634.842C-503.537 623.525 -503.548 611.501 -503.596 599.913C-503.644 588.325 -503.686 576.083 -500.907 564.381C-493.587 533.613 -478.38 505.266 -463.667 477.849L-459.397 469.885C-430.108 415.016 -394.729 389.817 -341.088 385.692C-319.168 384.173 -297.171 384.112 -275.243 385.507C-261.416 386.337 -249.55 379.71 -239.771 373.081C-227.772 364.986 -217.04 356.16 -206.683 347.661C-187.673 332.082 -169.758 317.331 -145.16 307.138C-141.984 305.825 -138.847 304.431 -135.705 303.026C-129.36 300.07 -122.857 297.468 -116.225 295.23C-90.7973 287.02 -61.363 295.558 -31.0091 319.75C2.24991 346.22 23.4318 380.153 29.2278 389.938C32.2582 395.121 35.2022 400.726 38.7606 408.117C42.0191 414.863 45.0856 421.942 48.4805 429.467C59.5469 454.556 72.0935 483.002 91.357 500.534C105.916 513.775 125.915 517.939 140.15 519.104C158.168 520.58 178.508 519.075 198.962 514.745C205.861 513.277 214.032 511.886 222.365 512.519C253.69 515.082 290.081 537.465 308.423 557.212C333.631 584.37 349.417 609.808 358.072 637.239L359.663 642.264C365.679 661.06 371.916 680.513 370.57 699.966C370.215 705.14 369.439 710.301 368.696 715.28C367.871 720.798 367.018 726.487 366.746 732.138C365.583 756.557 362.043 780.805 356.176 804.538C352.892 817.722 347.914 830.424 341.367 842.329C340.239 844.482 339.094 846.539 337.923 848.567ZM161.909 1058.73C182.818 1022.51 211.067 989.59 240.697 956.679C248.959 947.499 257.3 938.652 268.404 931.314C278.629 924.556 285.69 915.87 293.862 905.208C295.923 902.507 298.005 899.817 300.087 897.128C313.781 879.381 327.964 861.059 338.667 840.985C345.091 829.31 349.979 816.855 353.21 803.927C359.022 780.375 362.536 756.314 363.701 732.083C364.069 726.333 364.726 720.605 365.67 714.921C366.41 709.997 367.166 704.896 367.519 699.85C368.808 680.965 362.676 661.801 356.75 643.271L355.148 638.24C346.606 611.233 331.026 586.157 306.136 559.339C288.186 540.005 252.668 518.14 222.052 515.615C214.131 514.962 206.239 516.314 199.544 517.728C178.814 522.113 158.173 523.644 139.85 522.151C118.783 520.431 101.289 513.736 89.2783 502.796C69.5894 484.862 56.8522 456.076 45.6749 430.709C42.3568 423.199 39.235 416.117 36.0194 409.396C32.496 402.068 29.5871 396.526 26.5856 391.417C14.952 371.523 -6.779 342.853 -32.8744 322.064C-53.4492 305.664 -84.4663 288.171 -115.268 298.058C-121.805 300.288 -128.216 302.872 -134.472 305.798C-137.632 307.207 -140.798 308.627 -144.019 309.944C-168.183 319.956 -185.951 334.55 -204.769 349.996C-215.191 358.558 -225.97 367.414 -238.127 375.561C-248.304 382.433 -260.703 389.338 -275.449 388.464C-297.232 387.103 -319.082 387.192 -340.854 388.731C-393.341 392.765 -428.003 417.491 -456.725 471.327L-460.995 479.292C-475.608 506.537 -490.727 534.706 -497.959 565.097C-500.648 576.42 -500.611 588.374 -500.565 599.917C-500.517 611.677 -500.47 623.837 -503.293 635.541C-509.332 660.869 -527.082 675.63 -545.813 691.297C-548.145 693.256 -550.501 695.229 -552.854 697.248L-558.305 701.883C-593.801 731.993 -627.39 760.559 -624.413 812.395C-622.907 838.903 -614.829 861.436 -600.447 879.368C-594.609 886.331 -588.355 892.933 -581.717 899.138C-568.732 911.785 -555.296 924.865 -549.284 943.344C-545.79 954.785 -543.755 966.622 -543.229 978.573C-542.578 990.852 -545.085 1001.91 -547.731 1013.63C-552.618 1035.2 -554.007 1053.71 -551.909 1068.79C-549.688 1084.77 -541.751 1096.62 -525.359 1108.44C-520.411 1112.01 -513.209 1114.18 -505.575 1116.47C-488.842 1121.51 -469.862 1127.22 -476.378 1150.5C-477.279 1153.33 -478.485 1156.06 -479.975 1158.64C-481.187 1160.78 -482.222 1163.02 -483.069 1165.33C-490.152 1186.5 -485.385 1208.62 -479.175 1229.36C-469.774 1260.73 -440.649 1287.54 -417.86 1304.52C-383.16 1330.38 -353.726 1322.83 -316.456 1313.29C-313.127 1312.48 -309.773 1311.63 -306.413 1310.76C-291.891 1307.14 -278.347 1298.55 -265.223 1290.19C-246.308 1278.22 -226.774 1265.72 -203.316 1267.39C-193.576 1268.06 -182.176 1269.21 -171.337 1272.56C-151.5 1278.69 -128.577 1291.4 -112.843 1300.97L-110.241 1302.56C-100.834 1308.32 -91.1051 1314.26 -80.2999 1316.98C-18.7739 1332.6 55.4443 1322.84 82.5923 1266.01C86.9872 1256.79 92.0686 1247.69 96.981 1238.91C104.668 1225.15 112.617 1210.91 118.08 1195.92C123.132 1182.04 125.858 1167.23 128.506 1152.91C130.252 1143.52 132.04 1133.8 134.476 1124.38C140.597 1101.35 149.827 1079.26 161.909 1058.73Z" stroke="url(#paint2_linear_1_6004)" stroke-width="2" stroke-miterlimit="10"/>
<path d="M373.401 865.118C372.57 866.557 371.733 868.006 370.728 869.402C368.054 873.313 365.378 877.28 362.706 881.264C346.056 906.014 328.913 931.496 306.628 951.317C297.83 959.123 288.344 966.289 279.149 973.222C263.451 985.077 247.214 997.322 234.427 1012.9C218.408 1032.45 206.894 1055.44 195.763 1077.69C192.613 1083.99 189.468 1090.28 186.211 1096.52C172.608 1122.55 166.153 1150.01 159.908 1176.56C155.069 1197.1 150.077 1218.36 141.773 1239.11C136.592 1252.1 129.213 1264.53 122.08 1276.56C120.555 1279.2 118.978 1281.79 117.461 1284.39C99.7061 1314.84 68.1468 1349.34 32.8215 1354.86C29.4595 1355.38 26.0665 1355.96 22.6798 1356.52C9.53402 1358.76 -4.09638 1361.11 -17.5968 1360.76C-40.1911 1360.26 -59.5025 1356.87 -75.0948 1350.63C-93.0721 1343.44 -110.12 1332.81 -126.611 1322.53C-133.1 1318.49 -139.807 1314.3 -146.396 1310.45C-169.561 1296.89 -191.185 1290.52 -210.644 1291.5C-228.221 1292.39 -237.285 1299.64 -247.795 1308.03C-253.457 1312.78 -259.523 1317.02 -265.923 1320.7C-269.799 1322.73 -273.811 1324.48 -277.93 1325.94C-280.95 1327.06 -284.128 1328.31 -287.044 1329.71C-291.285 1331.91 -295.342 1334.45 -299.176 1337.3C-302.407 1339.65 -305.763 1341.82 -309.228 1343.81C-364.544 1374.27 -442.485 1347.97 -482.963 1306.13C-491.285 1297.53 -496.822 1287.75 -502.696 1277.38L-503.208 1276.49C-518.753 1249.09 -510.8 1222.75 -502.425 1194.84L-500.569 1188.65C-492.469 1161.27 -514.402 1148.35 -535.622 1135.86C-540.031 1133.31 -544.154 1130.82 -548.051 1128.25C-578.074 1108.41 -588.6 1083.09 -580.277 1050.81C-579.176 1046.55 -578.13 1042.29 -577.09 1038.04C-574.598 1027.85 -572.008 1017.32 -568.735 1007.07C-562.433 987.381 -559.93 973.162 -564.804 954.427C-571.392 929.075 -583.016 917.152 -605.005 901.479C-610.309 897.686 -616.248 894.1 -622.524 890.305C-642.831 878.036 -665.842 864.135 -670.531 839.68C-681.878 781.026 -640.813 731.6 -603.776 695.097L-602.707 694.039C-561.58 653.497 -534.423 626.724 -534.021 566.077C-533.865 541.827 -526.146 518.622 -517.541 494.998C-493.788 429.678 -450.453 381.276 -398.797 362.161C-377.631 354.336 -355.151 354.888 -333.396 355.407C-309.706 355.969 -285.219 356.562 -262.908 346.134C-246.291 338.361 -227.087 324.149 -210.205 307.121C-206.473 303.128 -203.177 298.748 -200.373 294.056C-198.622 291.345 -196.814 288.536 -194.726 285.762C-178.368 264.093 -152.411 248.44 -125.292 243.881C-96.9675 239.115 -65.1978 243.841 -40.2445 256.559L-34.7011 259.344C-25.2686 264.088 -16.213 268.915 -9.31803 275.602C12.4496 296.761 41.24 330.85 54.5946 373.467C56.8568 380.672 59.0226 388.094 61.0652 395.258C68.5467 421.168 76.2851 447.972 91.3526 470.974C95.2346 476.909 101.255 485.582 108.619 492.397C115.541 498.741 122.232 500.257 130.91 501.774C133.636 502.23 136.273 502.865 138.812 503.472C144.399 504.794 149.686 506.042 155.494 505.644C160.448 505.311 164.762 503.836 169.368 502.2C173.228 500.728 177.218 499.623 181.285 498.9C190.248 497.546 199.167 493.89 208.603 490.031C225.366 483.144 242.714 476.036 260.437 482.846C320.837 506.035 352.552 562.631 375.607 614.929C376.859 617.714 378.143 620.445 379.341 623.127C383.933 633.009 388.672 643.233 390.673 654.482C393.828 672.082 394.675 689.838 395.465 707.074C396.266 723.029 396.994 739.456 399.614 755.602C400.01 758.064 400.488 760.53 400.966 762.997C402.3 769.952 403.69 777.155 403.399 784.447C403.109 791.738 401.025 798.94 398.992 805.855C398.245 808.388 397.504 810.91 396.852 813.426C394.459 822.525 390.953 829.391 386.844 837.3L384.694 841.47C383.006 844.791 381.539 848.125 380.094 851.371C378.112 856.07 375.878 860.659 373.401 865.118V865.118ZM211.385 1041.47C217.444 1030.76 224.369 1020.56 232.089 1010.98C245.093 995.124 261.488 982.755 277.331 970.797C286.479 963.895 295.93 956.766 304.606 949.047C326.615 929.481 343.679 904.112 360.183 879.564L368.217 867.68C371.794 862.128 374.846 856.254 377.332 850.134C378.785 846.85 380.295 843.441 382.002 840.088L384.165 835.896C388.162 828.181 391.66 821.453 393.918 812.662C394.546 810.161 395.336 807.554 396.091 804.983C398.068 798.264 400.116 791.299 400.376 784.333C400.636 777.368 399.27 770.394 398.024 763.633C397.537 761.132 397.061 758.638 396.629 756.14C393.984 739.838 393.197 723.29 392.444 707.278C391.641 690.163 390.801 672.468 387.691 654.965C385.749 644.108 381.306 634.513 376.585 624.357C375.308 621.615 374.031 618.873 372.832 616.119C350.026 564.38 318.71 508.429 259.362 485.648C242.763 479.271 225.989 486.152 209.762 492.805C200.575 496.579 191.043 500.454 181.737 501.882C177.867 502.576 174.072 503.641 170.405 505.061C165.702 506.94 160.762 508.159 155.726 508.684C149.456 509.116 143.693 507.751 138.127 506.441C135.616 505.836 133.086 505.263 130.418 504.782C121.512 503.263 114.095 501.543 106.584 494.659C99.074 487.774 92.7744 478.768 88.8009 472.694C73.4955 449.31 65.6982 422.287 58.1471 396.15C56.0814 389.001 53.9477 381.598 51.7053 374.434C38.512 332.454 10.0888 298.719 -11.4405 277.842C-18.0311 271.445 -26.8508 266.754 -36.0733 262.117L-37.9098 261.185L-41.5889 259.333C-65.9613 246.923 -97.0599 242.298 -124.762 246.95C-150.753 251.316 -176.624 266.919 -192.277 287.663C-194.298 290.347 -196.081 293.112 -197.801 295.77C-200.716 300.641 -204.144 305.184 -208.029 309.323C-225.172 326.629 -244.666 341.046 -261.608 348.961C-284.558 359.678 -309.406 359.092 -333.445 358.514C-354.917 358.001 -377.11 357.472 -397.708 365.081C-448.594 383.852 -491.197 431.632 -514.666 496.113C-523.161 519.472 -530.808 542.404 -530.961 566.154C-531.397 627.999 -558.952 655.115 -600.579 696.198L-601.647 697.257C-671.114 765.75 -673.413 809.022 -667.634 839.047C-663.197 862.255 -641.689 875.216 -621.013 887.712C-614.645 891.546 -608.702 895.149 -603.29 899.004C-580.695 915.113 -568.738 927.4 -561.905 953.667C-556.847 973.123 -559.398 987.773 -565.883 1008C-569.146 1018.18 -571.705 1028.66 -574.194 1038.79C-575.229 1043.06 -576.27 1047.34 -577.389 1051.61C-585.344 1082.48 -575.214 1106.73 -546.423 1125.76C-542.597 1128.29 -538.486 1130.71 -534.134 1133.28C-512.946 1145.76 -488.934 1159.91 -497.715 1189.56L-499.577 1195.76C-507.795 1223 -515.513 1248.75 -500.643 1275.02L-500.131 1275.92C-494.358 1286.11 -488.912 1295.72 -480.861 1304.05C-429.856 1356.76 -352.861 1364.36 -310.756 1341.18C-307.391 1339.25 -304.132 1337.13 -300.993 1334.85C-297.011 1331.9 -292.793 1329.28 -288.38 1327.02C-285.35 1325.57 -282.134 1324.33 -278.999 1323.16C-275.016 1321.75 -271.136 1320.06 -267.387 1318.11C-261.11 1314.47 -255.163 1310.29 -249.613 1305.61C-239.15 1297.25 -229.27 1289.35 -210.718 1288.41C-190.69 1287.38 -168.509 1293.9 -144.813 1307.76C-138.162 1311.6 -131.451 1315.83 -124.952 1319.88C-108.579 1330.09 -91.6385 1340.66 -73.9158 1347.74C-58.6594 1353.85 -39.6612 1357.18 -17.4755 1357.65C-4.23761 1357.93 9.2157 1355.66 22.2261 1353.47C25.6359 1352.89 29.0289 1352.31 32.4078 1351.79C66.6795 1346.43 97.4917 1312.64 114.893 1282.79C116.399 1280.18 117.918 1277.55 119.525 1274.94C126.602 1263.01 133.919 1250.68 139.014 1237.92C147.205 1217.39 152.184 1196.25 156.999 1175.82C163.295 1149.09 169.8 1121.45 183.588 1095.09C186.827 1088.88 189.966 1082.61 193.104 1076.33C198.881 1064.69 204.795 1052.88 211.404 1041.43L211.385 1041.47Z" stroke="url(#paint3_linear_1_6004)" stroke-width="2" stroke-miterlimit="10"/>
<path d="M410.118 859.522C404.24 869.704 396.073 879.165 388.152 888.324C386.845 889.844 385.54 891.337 384.28 892.826C363.403 917.264 340.31 942.813 312.902 964.238C299.594 974.65 287.847 984.29 278.903 996.907C272.202 1006.36 264.858 1015.33 257.771 1024.02C243.229 1041.77 229.526 1058.56 220.156 1079.67L216.401 1088.06C213.494 1094.51 210.491 1101.17 207.775 1107.79C199.545 1127.74 194.746 1150.03 190.107 1171.57C188.039 1181.18 185.894 1191.11 183.459 1200.63C182.253 1205.85 181.344 1211.13 180.734 1216.46C179.832 1223.27 178.893 1230.33 176.672 1237L176.465 1237.58C172.51 1249.39 168.434 1261.55 160.261 1271.67C154.87 1278.68 149.925 1286.02 145.454 1293.65C137.297 1306.93 128.852 1320.67 116.225 1329.9C109.415 1334.88 102.886 1340.16 96.5737 1345.27C73.8893 1363.65 52.465 1381 20.135 1383.5C-19.4133 1386.57 -52.6103 1379.9 -87.5621 1361.86C-91.4126 1359.88 -95.3465 1357.99 -99.2053 1356.15C-105.346 1353.21 -111.693 1350.17 -117.734 1346.68C-121.297 1344.63 -124.815 1342.47 -128.348 1340.28C-135.158 1335.89 -142.22 1331.9 -149.499 1328.34C-162.737 1322.2 -172.942 1321.86 -184.813 1321.43C-191.297 1321.31 -197.77 1320.82 -204.199 1319.96C-211.673 1318.88 -214.61 1318.89 -220.676 1323.23C-249.248 1343.59 -273.28 1359.17 -296.318 1372.23C-315.092 1382.97 -341.099 1387.69 -359.105 1388.57C-365.102 1388.75 -371.105 1388.58 -377.083 1388.06C-381.225 1387.8 -385.562 1387.46 -389.819 1387.44C-392.36 1387.41 -394.857 1387.4 -397.333 1387.4C-410.821 1387.46 -423.565 1387.53 -437.127 1382.45C-475.447 1368.08 -510.382 1332.33 -526.118 1291.36C-529.998 1281.25 -529.234 1271.28 -528.119 1261.94C-526.957 1253.83 -525.252 1245.81 -523.017 1237.93C-519.206 1223.25 -515.266 1208.07 -518.833 1192.94C-523.012 1175.22 -537.172 1166.86 -552.133 1157.98C-555.868 1155.82 -559.683 1153.53 -563.309 1151.14C-580.235 1139.94 -601.347 1126.05 -607.181 1104.93C-612.691 1085.52 -602.778 1062.75 -594.066 1042.71C-591.119 1035.97 -588.345 1029.6 -586.306 1023.74C-585.486 1021.35 -584.389 1018.88 -583.343 1016.52C-581.492 1012.33 -579.585 1008.01 -578.958 1003.75C-572.618 960.948 -608.939 937.117 -647.541 911.812C-675.044 893.773 -703.481 875.123 -714.899 848.876C-718.778 839.884 -719.932 827.26 -719.304 818.739C-718.884 812.83 -716.709 807.205 -714.602 801.77L-713.871 799.861C-702.252 769.376 -681.382 736.823 -650.113 700.432C-645.372 695.163 -640.278 690.223 -634.866 685.646C-632.638 683.671 -630.416 681.706 -628.259 679.705C-583.462 638.049 -555.168 581.187 -552.569 527.614C-552.397 524.194 -552.409 520.697 -552.429 517.31C-552.593 511.308 -552.302 505.303 -551.557 499.345C-548.245 477.226 -533.107 452.692 -520.946 432.992L-517.538 427.435C-511.317 417.28 -503.99 407.935 -496.909 398.892C-492.598 393.384 -488.138 387.691 -483.976 381.869L-482.879 380.342C-478.279 373.885 -473.928 367.786 -467.415 362.577C-447.705 346.778 -425.963 335.613 -407.267 326.724C-384.588 315.943 -364.738 318.191 -341.772 320.792C-338.76 321.101 -335.694 321.441 -332.595 321.799C-285.487 326.696 -248.68 296.006 -213.084 266.347C-195.847 251.981 -178.013 237.101 -159.455 226.816C-129.321 210.111 -87.8139 208.999 -36.064 223.527C-34.0224 224.105 -32.0005 224.734 -29.9984 225.413C7.4264 238.137 45.8327 270.796 63.4067 304.817C66.9393 311.976 70.0534 319.334 72.7335 326.853C74.3912 331.243 76.0897 335.786 77.9443 340.132C79.4915 343.772 81.1893 347.399 82.8447 350.901C86.1884 357.613 89.0817 364.54 91.5056 371.636C93.0308 376.446 94.5427 381.262 96.0412 386.085C102.516 406.717 109.227 428.029 116.797 448.722C121.177 460.663 125.43 470.199 136.67 475.316C159.521 485.648 182.191 476.421 204.155 467.473C215.788 462.788 227.834 457.884 239.775 455.938C277.615 449.876 312.736 468.794 347.128 513.784C349.306 516.629 351.513 519.449 353.688 522.249C360.593 531.057 367.736 540.173 373.684 549.944C375.857 553.738 377.61 557.757 378.911 561.931C379.637 563.995 380.361 566.087 381.255 568.205C382.159 570.272 383.172 572.29 384.29 574.249C385.913 577.041 387.274 579.977 388.356 583.019C393.203 598.192 399.292 613.222 405.193 627.758C412.94 646.879 420.943 666.649 426.289 687.03C436.013 724.115 436.855 767.315 428.687 808.575C425.293 825.168 419.623 841.211 411.835 856.251C411.328 857.403 410.725 858.471 410.118 859.522ZM224.648 1064.29C233.537 1048.89 244.631 1035.33 255.443 1022.1C262.512 1013.45 269.868 1004.55 276.448 995.161C285.623 982.219 298.064 972.022 311.058 961.857C338.256 940.597 361.225 915.163 381.994 890.863L385.889 886.345C394.521 876.352 403.458 865.977 409.222 854.928C416.866 840.138 422.438 824.366 425.781 808.056C433.876 767.197 433.053 724.508 423.448 687.836C418.165 667.62 410.177 647.973 402.469 628.932C396.576 614.358 390.441 599.258 385.507 583.964C384.494 581.101 383.213 578.341 381.682 575.719C380.511 573.666 379.454 571.552 378.514 569.384C377.602 567.197 376.849 565.032 376.108 562.945C374.888 558.961 373.23 555.125 371.164 551.508C365.274 541.884 358.22 532.862 351.367 524.113C349.149 521.288 346.931 518.463 344.749 515.601C311.098 471.582 276.92 453.037 240.297 458.9C228.682 460.777 216.773 465.617 205.255 470.325C182.758 479.552 159.407 489.044 135.391 478.125C123.07 472.528 118.551 462.437 113.916 449.82C106.31 429.092 99.5973 407.707 93.1139 387.041L88.5721 372.603C86.1983 365.622 83.3593 358.807 80.0742 352.205C78.4142 348.686 76.6904 345.03 75.1296 341.339C73.2569 336.925 71.5324 332.353 69.8764 327.935C67.2404 320.503 64.1788 313.229 60.7067 306.148C43.4665 272.763 5.7722 240.729 -30.9666 228.23C-32.914 227.563 -34.8816 226.956 -36.8741 226.393C-87.8166 212.101 -128.562 213.109 -157.974 229.43C-176.279 239.575 -194.021 254.394 -211.129 268.635C-247.216 298.725 -284.537 329.834 -332.908 324.795C-336.017 324.43 -339.083 324.09 -342.107 323.775C-364.614 321.223 -384.055 319.011 -405.946 329.417C-424.488 338.238 -446.065 349.341 -465.511 364.906C-471.728 369.9 -475.928 375.786 -480.395 382.062L-481.492 383.589C-485.696 389.458 -490.169 395.173 -494.508 400.707C-501.536 409.681 -508.808 418.957 -514.932 428.969L-518.357 434.53C-530.377 454.011 -545.324 478.239 -548.556 499.748C-549.267 505.554 -549.542 511.407 -549.378 517.255C-549.366 520.68 -549.351 524.222 -549.521 527.714C-552.171 582.117 -580.832 639.739 -626.162 681.946C-628.331 683.969 -630.576 685.949 -632.827 687.939C-638.129 692.429 -643.125 697.267 -647.784 702.42C-678.865 738.534 -699.525 770.75 -711.043 800.935L-711.732 802.898C-713.75 808.127 -715.839 813.53 -716.233 818.995C-716.805 826.876 -715.746 839.218 -712.058 847.698C-700.98 873.12 -672.959 891.5 -645.82 909.301C-608.18 933.993 -569.235 959.525 -575.857 1004.25C-576.541 1008.91 -578.539 1013.43 -580.477 1017.81C-581.537 1020.21 -582.546 1022.51 -583.314 1024.75C-585.338 1030.74 -588.192 1037.14 -591.159 1043.94C-599.692 1063.5 -609.381 1085.69 -604.267 1104.19C-598.674 1124.24 -578.168 1137.77 -561.65 1148.67C-558.078 1151.03 -554.287 1153.26 -550.604 1155.43C-535.731 1164.22 -520.337 1173.29 -515.867 1192.26C-512.149 1208.13 -516.162 1223.68 -520.066 1238.72C-522.27 1246.46 -523.952 1254.34 -525.099 1262.31C-526.256 1271.32 -526.955 1280.86 -523.352 1290.31C-507.918 1330.49 -473.681 1365.56 -436.138 1379.64C-423.08 1384.53 -410.608 1384.47 -397.398 1384.41C-394.912 1384.42 -392.403 1384.44 -389.809 1384.4C-385.524 1384.42 -381.119 1384.74 -376.9 1385.02C-371.03 1385.54 -365.135 1385.71 -359.245 1385.54C-341.58 1384.68 -316.123 1380.07 -297.681 1369.59C-274.729 1356.58 -250.789 1341.06 -222.272 1320.76C-215.388 1315.85 -211.484 1315.83 -203.603 1316.98C-197.28 1317.81 -190.914 1318.29 -184.537 1318.4C-172.871 1318.81 -161.853 1319.21 -148.058 1325.6C-140.671 1329.21 -133.502 1333.25 -126.589 1337.71C-123.099 1339.87 -119.609 1342.02 -116.062 1344.06C-110.117 1347.49 -103.83 1350.5 -97.7427 1353.42C-93.8133 1355.29 -89.8901 1357.17 -86.0135 1359.17C-51.6429 1376.92 -18.9449 1383.48 20.0176 1380.45C51.373 1378.01 72.441 1360.95 94.7522 1342.88C101.094 1337.74 107.652 1332.43 114.515 1327.41C126.665 1318.53 134.945 1305.06 142.959 1292.02C147.483 1284.27 152.5 1276.82 157.98 1269.72C165.807 1260.08 169.622 1248.66 173.672 1236.57L173.873 1236C176.023 1229.57 176.948 1222.67 177.831 1215.98C178.453 1210.54 179.387 1205.15 180.627 1199.81C183.011 1190.41 185.143 1180.49 187.21 1170.91C191.849 1149.27 196.703 1126.81 205.036 1106.61C207.772 1099.96 210.787 1093.28 213.695 1086.8L217.455 1078.43C219.59 1073.59 221.979 1068.88 224.614 1064.3L224.648 1064.29Z" stroke="url(#paint4_linear_1_6004)" stroke-width="2" stroke-miterlimit="10"/>
<path d="M431.418 900.629C428.859 905.062 426.01 909.227 423.081 913.532L419.365 919.029C409.487 933.933 393.78 948.706 379.926 961.73L373.561 967.801C367.579 973.268 361.284 978.382 354.708 983.119C352.235 984.925 349.827 986.769 347.423 988.629C294.062 1030.03 262.549 1068.57 242.099 1117.51C236.859 1130.05 233.772 1142.58 230.515 1155.83L230.074 1157.61C226.361 1172.71 220.381 1194.83 211.35 1212.62C209.276 1216.74 207.172 1220.8 205.08 1224.85C194.966 1244.39 185.413 1262.85 179.122 1283.97L177.043 1291.02C173.204 1304.16 169.558 1316.56 163.972 1329.14C146.461 1368.46 120.946 1394.12 78.6582 1414.99C61.1629 1423.62 31.447 1425.75 12.3363 1423.36C-6.0099 1421.09 -25.3493 1415.13 -45.1373 1405.67C-55.3149 1400.81 -65.2141 1394.92 -74.7702 1389.23C-78.5129 1387.07 -82.2214 1384.8 -85.9213 1382.66L-89.4389 1380.63C-117.054 1364.69 -148.358 1346.61 -180.875 1349.09C-185.037 1349.53 -189.16 1350.29 -193.208 1351.36C-196.921 1352.32 -200.688 1353.05 -204.489 1353.56C-218.262 1355.13 -231.444 1368.05 -243.137 1379.49C-248.118 1384.58 -253.42 1389.34 -259.008 1393.75C-265.493 1398.6 -272.021 1403.31 -278.554 1408.04L-289.523 1416.02C-300.864 1424.37 -310.966 1429.01 -322.255 1431.08C-328.057 1432.14 -333.938 1433.41 -340.119 1434.78C-360.449 1439.08 -381.47 1443.62 -401.189 1441.19C-406.72 1440.52 -412.545 1440.13 -418.172 1439.77C-430.344 1438.98 -442.972 1438.15 -454.498 1434.28C-460.936 1432.11 -466.797 1428.54 -472.46 1425.1C-474.176 1424.11 -475.842 1423.03 -477.558 1422.04C-486.835 1416.69 -494.349 1411.65 -501 1404.72C-530.532 1374.01 -544.649 1346.16 -548.21 1311.56C-549.395 1299.84 -549.657 1287.91 -549.964 1276.36C-550.414 1254.85 -550.972 1232.56 -557.694 1211.26C-560.484 1202.49 -563.555 1196.2 -570.418 1192.14C-572.885 1190.71 -575.362 1189.28 -577.829 1187.86C-579.63 1186.82 -581.432 1185.78 -583.191 1184.76C-586.944 1182.6 -590.698 1180.43 -594.441 1178.27C-602.387 1173.68 -610.345 1169.08 -618.291 1164.5C-634.402 1155.42 -644.843 1143.34 -649.335 1128.59C-653.949 1113.37 -652.615 1097.98 -650.867 1083.54C-649.464 1071.97 -645.283 1061.63 -641.244 1051.61C-638.837 1045.66 -636.351 1039.5 -634.444 1033.1C-633.419 1029.97 -632.084 1026.96 -630.46 1024.1C-629.62 1022.49 -628.769 1020.89 -628.017 1019.19C-625.695 1013.91 -624.817 1003.87 -625.506 997.905C-628.739 969.005 -649.872 953.127 -672.218 940.268L-673.848 939.327C-691.65 929.049 -710.107 918.493 -723.775 902.688C-726.898 899.082 -729.952 895.258 -732.909 891.562C-734.566 889.479 -736.23 887.407 -737.899 885.346C-738.743 884.33 -739.604 883.345 -740.411 882.465C-743.896 878.42 -747.184 874.605 -748.793 868.624C-750.65 861.17 -751.754 853.548 -752.086 845.872C-752.527 838.554 -752.124 831.209 -750.888 823.982C-749.438 814.214 -746.356 805.805 -743.088 796.901C-742.224 794.538 -741.315 792.072 -740.445 789.598C-731.46 763.831 -710.971 742.016 -692.903 722.781L-692.529 722.382C-691.266 721.036 -690.079 719.675 -688.899 718.324C-685.767 714.45 -682.156 710.991 -678.151 708.029C-673.408 704.948 -668.994 701.387 -664.98 697.402C-663.414 695.911 -661.727 694.554 -659.935 693.345C-657.651 691.886 -655.614 690.071 -653.901 687.97C-649.849 682.136 -646.386 675.914 -643.563 669.396C-633.21 645.693 -619.54 622.832 -606.347 600.726C-603.174 595.402 -599.953 590.021 -596.811 584.679C-588.75 570.915 -583.275 554.571 -579.773 533.424C-577.997 522.743 -579.399 513.333 -580.753 504.237C-582.844 490.15 -584.822 476.858 -575.747 459.902C-572.324 453.478 -568.994 446.843 -565.794 440.433C-562.594 434.023 -559.201 427.281 -555.724 420.788C-535.09 382.299 -510.431 351.872 -482.497 330.634C-456.773 311.069 -433.931 307.614 -407.506 303.651C-398.097 302.214 -388.321 300.76 -377.8 298.463C-374.552 297.791 -371.36 297.215 -368.168 296.64C-361.409 295.65 -354.751 294.064 -348.271 291.898C-337.78 288.067 -326.908 285.185 -316.38 282.405C-309.963 280.701 -303.331 278.948 -296.871 276.997C-278.987 271.58 -263.834 260.938 -249.162 250.633C-240.448 244.281 -231.399 238.404 -222.053 233.026C-219.722 231.739 -217.448 230.548 -215.224 229.37C-207.287 225.209 -199.791 221.265 -192.732 214.636C-190.286 212.356 -187.946 210.086 -185.648 207.864C-173.839 196.45 -162.678 185.664 -145.635 179.548C-126.69 172.74 -109.224 171.218 -90.7321 169.602C-84.2831 169.032 -77.6237 168.469 -70.7371 167.637C-49.2351 165.067 -27.5812 171.473 -9.2511 178.063C1.93679 182.09 11.6022 187.713 21.7932 193.64L22.2221 193.887C25.1391 195.571 28.1041 197.197 31.069 198.823C40.851 204.17 50.9242 209.657 58.9353 217.774C85.8272 245.149 106.635 276.153 119.125 307.42C136.994 352.083 143.293 387.289 139.609 421.482C138.241 433.758 140.765 442.414 147.006 447.133C164.371 460.25 207.443 442.858 235.948 431.353C246.857 426.946 255.468 423.475 260.481 422.519C272.001 420.298 283.929 421.532 295.495 422.7L298.198 422.972C332.876 426.508 361.635 464.592 384.748 495.195C390.112 502.299 395.173 509.013 399.87 514.673C403.659 519.471 407.094 524.539 410.147 529.837C413.068 534.932 416.347 539.814 419.958 544.445C426.236 552.048 430.608 557.75 434.194 567.118C436.772 573.492 439.753 579.696 443.116 585.693C446.665 592.038 449.779 598.618 452.437 605.385C454.207 610.171 456.288 614.964 458.304 619.62C461.714 627.02 464.623 634.642 467.009 642.434C468.368 647.512 470.307 652.424 472.122 657.206C473.936 661.989 475.78 666.846 477.218 671.883C487.908 709.439 483.58 733.629 477.025 770.244L475.906 776.567C469.583 812.285 456.446 843.211 442.567 875.969C440.452 880.944 438.342 885.937 436.228 890.984C434.837 894.301 433.23 897.522 431.418 900.629ZM254.98 1084.48C275.311 1049.26 303.786 1018.59 345.515 986.212C347.943 984.336 350.389 982.5 352.843 980.654C359.318 976.006 365.517 970.983 371.407 965.613C373.474 963.643 375.627 961.623 377.778 959.531C391.525 946.617 407.097 931.981 416.786 917.353C418.025 915.479 419.285 913.644 420.515 911.836C425.41 904.645 429.965 897.944 433.375 889.809C435.493 884.754 437.608 879.745 439.72 874.783C453.54 842.177 466.59 811.401 472.869 776.03L473.989 769.707C480.463 733.504 484.748 709.589 474.234 672.693C472.795 667.756 470.999 662.941 469.223 658.266C467.446 653.591 465.483 648.422 464.025 643.244C461.693 635.591 458.851 628.103 455.517 620.83C453.486 616.151 451.398 611.297 449.534 606.428C446.913 599.804 443.846 593.367 440.353 587.16C436.922 581.051 433.886 574.729 431.263 568.231C427.852 559.278 423.611 553.796 417.526 546.404C413.841 541.694 410.497 536.727 407.519 531.54C404.541 526.363 401.186 521.413 397.482 516.729C392.75 511.006 387.657 504.273 382.267 497.14C359.515 467.003 331.224 429.518 297.841 426.115L295.145 425.832C283.824 424.662 272.117 423.441 260.992 425.547C256.271 426.442 247.352 430.052 237.024 434.22C207.868 446.009 163.859 463.761 145.126 449.597C137.978 444.196 135.086 434.641 136.535 421.21C140.165 387.529 133.915 352.809 116.257 308.598C103.911 277.7 83.3216 247.037 56.7171 219.957C49.038 212.131 39.1426 206.733 29.5751 201.51C26.578 199.865 23.5855 198.238 20.6639 196.537L20.2242 196.283C10.1005 190.438 0.5609 184.844 -10.3663 180.911C-29.3098 174.095 -49.628 168.175 -70.4581 170.645C-77.4 171.475 -84.1316 172.039 -90.5592 172.621C-108.839 174.217 -126.127 175.727 -144.702 182.39C-161.129 188.305 -171.558 198.369 -183.603 210.018C-185.924 212.256 -188.256 214.487 -190.722 216.827C-198.091 223.72 -205.76 227.765 -213.904 232.064C-216.116 233.22 -218.374 234.406 -220.688 235.689C-229.935 241.012 -238.888 246.83 -247.509 253.119C-262.361 263.563 -277.716 274.332 -296.063 279.882C-302.574 281.847 -309.235 283.625 -315.68 285.328C-326.129 288.096 -336.934 290.96 -347.3 294.749C-353.933 296.97 -360.748 298.604 -367.666 299.634C-370.846 300.188 -374.031 300.753 -377.16 301.465C-387.776 303.78 -397.575 305.249 -407.067 306.681C-433.089 310.59 -455.6 313.965 -480.685 333.069C-508.241 354.024 -532.596 384.097 -553.067 422.279C-556.526 428.74 -559.864 435.413 -563.083 441.855C-566.302 448.297 -569.638 454.943 -573.09 461.393C-581.66 477.424 -579.743 490.252 -577.731 503.806C-576.366 513.181 -574.914 522.777 -576.753 533.937C-580.326 555.458 -585.825 572.089 -594.175 586.23C-597.273 591.597 -600.5 596.889 -603.717 602.287C-616.877 624.312 -630.487 647.094 -640.769 670.623C-643.677 677.339 -647.248 683.749 -651.429 689.756C-653.327 692.154 -655.608 694.221 -658.179 695.876C-659.833 696.99 -661.391 698.239 -662.838 699.611C-666.988 703.724 -671.546 707.403 -676.441 710.591C-680.257 713.418 -683.694 716.724 -686.668 720.428C-687.867 721.811 -689.082 723.198 -690.375 724.57L-690.749 724.97C-708.61 743.994 -728.861 765.546 -737.643 790.714C-738.509 793.205 -739.4 795.639 -740.295 798.056C-743.503 806.808 -746.532 815.076 -747.936 824.541C-749.129 831.543 -749.514 838.658 -749.082 845.746C-748.754 853.218 -747.683 860.639 -745.886 867.898C-744.458 873.202 -741.528 876.597 -738.136 880.53C-737.274 881.514 -736.419 882.509 -735.582 883.536C-733.908 885.59 -732.253 887.676 -730.597 889.762C-727.656 893.435 -724.628 897.23 -721.542 900.801C-708.195 916.22 -689.992 926.672 -672.386 936.794L-670.809 937.704C-647.784 950.998 -625.968 967.4 -622.593 997.64C-621.885 1004.02 -622.727 1014.56 -625.343 1020.48C-626.121 1022.25 -626.998 1023.92 -627.876 1025.59C-629.406 1028.27 -630.666 1031.1 -631.637 1034.03C-633.586 1040.58 -636.135 1046.78 -638.526 1052.83C-642.686 1063.1 -646.601 1072.81 -647.936 1083.99C-649.643 1098.11 -650.955 1113.14 -646.482 1127.76C-642.243 1141.74 -632.277 1153.23 -616.853 1161.91C-608.846 1166.42 -600.901 1171.03 -592.97 1175.7C-589.227 1177.86 -585.463 1180.03 -581.731 1182.18C-579.94 1183.22 -578.149 1184.25 -576.369 1185.28C-573.881 1186.72 -571.393 1188.15 -568.862 1189.61C-560.338 1194.66 -557.125 1203.02 -554.776 1210.44C-547.935 1232.15 -547.411 1254.65 -546.909 1276.39C-546.701 1287.74 -546.408 1299.62 -545.201 1311.25C-541.701 1345.11 -527.86 1372.48 -498.815 1402.61C-492.457 1409.26 -485.073 1414.15 -476.029 1419.42C-474.303 1420.42 -472.565 1421.42 -470.878 1422.51C-465.365 1425.86 -459.654 1429.35 -453.525 1431.41C-442.337 1435.16 -429.951 1435.98 -417.989 1436.73C-412.342 1437.13 -406.464 1437.47 -400.84 1438.16C-381.617 1440.53 -360.877 1436.06 -340.812 1431.74C-334.561 1430.4 -328.652 1429.13 -322.8 1428.06C-312 1426.1 -302.269 1421.63 -291.252 1413.59C-287.613 1410.92 -283.957 1408.26 -280.283 1405.61C-273.766 1400.89 -267.233 1396.16 -260.777 1391.34C-255.306 1387.01 -250.115 1382.33 -245.238 1377.33C-233.241 1365.57 -219.641 1352.24 -204.825 1350.58C-201.147 1350.08 -197.502 1349.36 -193.909 1348.44C-189.71 1347.33 -185.433 1346.54 -181.115 1346.09C-147.638 1343.51 -115.874 1361.88 -87.9223 1378.03L-84.4155 1380.05C-80.6834 1382.21 -76.9085 1384.39 -73.2322 1386.64C-63.7298 1392.3 -53.8949 1398.15 -43.8414 1402.95C-24.3446 1412.27 -5.32125 1418.13 12.6994 1420.38C31.3756 1422.71 60.2922 1420.67 77.2793 1412.27C119.463 1391.49 143.761 1367.04 161.182 1327.93C166.701 1315.54 170.308 1303.23 174.119 1290.19L176.204 1283.13C182.584 1261.73 192.152 1243.13 202.366 1223.48C204.458 1219.44 206.556 1215.38 208.64 1211.27C217.517 1193.75 223.438 1171.85 227.153 1156.92L227.587 1155.15C230.88 1141.77 234.016 1129.16 239.321 1116.38C243.857 1105.42 249.087 1094.77 254.98 1084.48Z" stroke="url(#paint5_linear_1_6004)" stroke-width="2" stroke-miterlimit="10"/>
<defs>
<linearGradient id="paint0_linear_1_6004" x1="-501.686" y1="646.814" x2="176.412" y2="1038.31" gradientUnits="userSpaceOnUse">
<stop stop-color="#256252"/>
<stop offset="1" stop-color="#FFF0E9" stop-opacity="0"/>
</linearGradient>
<linearGradient id="paint1_linear_1_6004" x1="-529.301" y1="636.644" x2="186.902" y2="1050.14" gradientUnits="userSpaceOnUse">
<stop stop-color="#256252"/>
<stop offset="1" stop-color="#FFF0E9" stop-opacity="0"/>
</linearGradient>
<linearGradient id="paint2_linear_1_6004" x1="-549.47" y1="625.577" x2="212.633" y2="1065.58" gradientUnits="userSpaceOnUse">
<stop stop-color="#256252"/>
<stop offset="1" stop-color="#FFF0E9" stop-opacity="0"/>
</linearGradient>
<linearGradient id="paint3_linear_1_6004" x1="-582.593" y1="598.948" x2="249.658" y2="1079.45" gradientUnits="userSpaceOnUse">
<stop stop-color="#256252"/>
<stop offset="1" stop-color="#FFF0E9" stop-opacity="0"/>
</linearGradient>
<linearGradient id="paint4_linear_1_6004" x1="-609.823" y1="586.113" x2="273.523" y2="1096.11" gradientUnits="userSpaceOnUse">
<stop stop-color="#256252"/>
<stop offset="1" stop-color="#FFF0E9" stop-opacity="0"/>
</linearGradient>
<linearGradient id="paint5_linear_1_6004" x1="-641.5" y1="568.979" x2="306.798" y2="1116.48" gradientUnits="userSpaceOnUse">
<stop stop-color="#256252"/>
<stop offset="1" stop-color="#FFF0E9" stop-opacity="0"/>
</linearGradient>
</defs>
</svg>
