<svg width="968" height="990" viewBox="0 0 968 990" fill="none" xmlns="http://www.w3.org/2000/svg">
<path d="M831.507 837C808.922 837 787.316 834.373 768.253 829.045C757.892 826.218 747.992 821.915 738.858 816.27C730.759 811.45 722.115 807.311 713.768 803.297C706.636 799.877 699.269 796.333 692.224 792.368C674.662 782.455 656.516 778.453 631.364 778.415H629.342C622.111 778.415 616.828 778.415 609.981 781.612C583.372 793.824 555.507 803.093 526.883 809.257C469.172 821.846 417.676 809.74 381.894 775.169C337.889 732.656 322.621 686.648 323.006 657.764C323.093 651.482 323.465 644.915 323.862 637.939C325.747 604.793 327.892 567.223 298.423 547.782C290.56 542.603 281.903 538.514 273.519 534.561C259.615 528.018 245.24 521.24 234.016 509.234C205.229 478.467 201.843 425.446 226.45 391.048L227.294 389.871C241.644 369.81 257.904 347.06 281.01 337.011C282.25 336.454 283.615 335.921 284.917 335.376C288.185 334.11 291.37 332.641 294.455 330.977C304.612 325.19 320.612 311.027 324.221 299.442C327.099 290.235 326.962 279.79 326.838 269.703C326.615 251.241 326.379 232.159 343.83 218.529C354.62 210.115 367.581 204.812 380.12 199.67C397.856 192.396 414.6 185.531 426.271 170.613C431.902 163.401 435.387 154.653 438.761 146.202C442.618 136.513 446.624 126.488 453.892 118.409C476.329 93.4539 506.554 75.5366 536.805 69.242C557.567 64.9299 583.439 71.398 606.012 78.2998C629.094 85.3502 655.896 84.5944 690.351 75.8959L690.723 77.3705L690.351 75.8959C703.808 72.5008 717.178 68.2507 729.742 64.1988C771.304 50.7546 822.515 50.5687 866.731 63.8395C916.342 78.6467 953.278 108.447 970.914 147.875C972.368 151.382 973.525 155.005 974.375 158.705C975.271 162.793 976.627 166.767 978.418 170.551C991.776 196.361 1018.33 211.986 1039.97 222.704C1078.02 241.551 1102.78 261.649 1108.7 303.618C1111.11 319.098 1111.63 334.813 1110.25 350.418C1108.82 366.65 1100.83 382.337 1094.38 392.647C1092.57 395.546 1090.66 398.347 1088.73 401.06C1085.26 405.768 1082.16 410.739 1079.46 415.929C1074.96 425.148 1068.82 434.59 1062.31 444.602C1048.1 466.448 1033.39 489.049 1033.88 512.195C1034.3 531.364 1042.97 549.232 1051.36 566.53C1055.92 575.91 1060.62 585.624 1063.94 595.401C1065.73 600.191 1067.96 604.807 1070.6 609.192C1071.33 610.518 1072.07 611.856 1072.8 613.206C1081.41 629.315 1080.59 650.962 1078.66 670.081C1076.66 689.684 1070.07 708.493 1060.05 722.966C1055.89 729.025 1051 734.812 1046.26 740.412C1042.54 744.749 1038.82 749.235 1035.43 753.77L1034.23 755.405C1028.53 763.075 1023.07 770.275 1015.11 776.272C1003.5 784.884 992.111 793.148 980.378 799.654C976.936 801.481 973.405 803.135 969.798 804.61C966.995 805.849 964.093 807.088 961.339 808.501C947.126 815.787 932.974 820.21 919.716 824.113C891.072 832.559 861.372 836.897 831.507 837V837ZM632.071 775.38C657.372 775.38 675.852 779.679 693.725 789.728C700.683 793.644 708.013 797.163 715.095 800.558C723.504 804.598 732.198 808.786 740.421 813.668C749.326 819.176 758.979 823.37 769.084 826.121C811.973 838.115 867.984 836.294 918.91 821.276C932.032 817.397 946.022 813.023 960 805.861C962.84 804.399 965.792 803.123 968.682 801.896C972.118 800.397 975.677 798.861 978.989 797.027C990.523 790.621 1001.82 782.405 1013.34 773.856C1021.01 768.168 1026.27 761.105 1031.85 753.621L1033.09 751.985C1036.54 747.376 1040.36 742.853 1044.04 738.479C1048.73 732.941 1053.57 727.204 1057.68 721.268C1067.38 707.18 1073.81 688.903 1075.73 669.796C1077.62 651.135 1078.45 629.996 1070.22 614.669C1069.5 613.318 1068.77 612.004 1068.04 610.691C1065.32 606.122 1063.03 601.315 1061.18 596.33C1057.93 586.739 1053.27 577.111 1048.78 567.831C1040.25 550.26 1031.42 532.083 1031.01 512.245C1030.48 488.169 1045.44 465.159 1059.92 442.929C1066.37 433.017 1072.47 423.637 1076.88 414.591C1079.64 409.254 1082.79 404.134 1086.32 399.276C1088.2 396.6 1090.12 393.824 1091.9 390.986C1098.1 380.962 1105.93 365.734 1107.31 350.096C1108.67 334.718 1108.16 319.231 1105.78 303.977C1100.05 263.334 1075.88 243.769 1038.72 225.356C1016.66 214.427 989.568 198.48 975.814 171.877C973.936 167.918 972.509 163.762 971.559 159.486C970.75 155.952 969.651 152.492 968.273 149.139C951.02 110.578 914.705 81.3232 866.012 66.7762C822.366 53.7284 771.825 53.8524 730.821 67.1107C718.22 71.1873 704.776 75.4498 691.244 78.8574C656.206 87.6921 628.883 88.448 605.243 81.224C583.042 74.4338 557.641 68.0524 537.549 72.2406C507.919 78.4361 478.289 95.9817 456.274 120.454C449.365 128.136 445.471 137.9 441.7 147.342C438.252 156.016 434.68 164.95 428.789 172.496C416.572 188.022 398.65 195.333 381.324 202.47C368.983 207.525 356.22 212.754 345.765 220.908C329.492 233.608 329.753 251.092 329.939 269.679C330.063 280.013 330.199 290.743 327.185 300.371C323.328 312.7 306.609 327.631 296.005 333.641C292.799 335.371 289.484 336.894 286.083 338.201C284.842 338.734 283.515 339.266 282.238 339.824C259.913 349.538 243.888 371.917 229.774 391.656L228.931 392.833C205.117 426.115 208.404 477.414 236.248 507.189C247.076 518.762 261.19 525.416 274.833 531.847C283.304 535.837 292.073 539.976 300.11 545.267C331.03 565.675 328.835 604.173 326.9 638.199C326.503 645.126 326.131 651.668 326.057 657.876C325.672 686.127 340.704 731.218 384.015 773.112C419.053 806.952 469.594 818.785 526.25 806.419C554.64 800.299 582.276 791.1 608.666 778.985C616.108 775.504 621.975 775.516 629.317 775.504H632.033L632.071 775.38Z" stroke="url(#paint0_linear_1_5997)" stroke-width="2" stroke-miterlimit="10"/>
<path d="M893.85 852C885.772 852 877.744 851.802 869.752 851.616L858.527 851.355C834.987 850.897 809.713 849.893 784.451 845.653C759.189 841.414 732.663 834.422 701.144 823.724C697.613 822.484 694.045 821.245 690.452 820.005C659.59 809.22 627.65 798.076 595.833 808.576C592.947 809.53 590.097 810.795 587.347 812.009C584.165 813.494 580.896 814.786 577.559 815.877C574.647 816.757 571.662 817.489 568.775 818.195C564.706 819.113 560.69 820.251 556.745 821.604C546.833 825.249 536.699 828.249 526.923 831.149C522.153 832.563 517.359 833.988 512.551 835.488C499.731 839.604 486.368 841.776 472.905 841.934C470.279 841.934 467.64 841.934 464.988 841.934C448.039 842.021 430.508 842.083 414.365 835.612L413.423 835.228C407.117 832.749 400.6 830.096 395.037 825.918C393.662 824.877 392.336 823.823 391.036 822.782C387.699 819.95 384.088 817.458 380.257 815.344C367.39 808.65 355.799 799.746 346.012 789.039C314.741 754.689 311.322 721.938 307.431 684.005C305.907 669.266 304.322 654.018 300.989 637.581C294.621 606.144 283.644 583.272 266.298 565.583C263.11 562.56 259.575 559.926 255.767 557.736C253.574 556.36 251.307 554.922 249.139 553.31C246.314 551.203 243.626 548.959 241.024 546.79C237.146 543.425 233.066 540.299 228.808 537.431C226.268 535.794 223.666 534.195 221.064 532.596C210.087 525.865 198.763 518.898 190.871 508.113C182.699 496.607 176.525 483.804 172.609 470.243C164.023 441 171.011 404.815 190.859 375.832C209.716 348.288 237.939 336.97 265.282 326.024C280.72 319.826 285.205 309.041 280.782 288.76C278.651 278.967 277.759 271.567 279.543 262.728C287.893 220.469 316.277 211.556 343.732 202.941C364.435 196.445 385.857 189.726 400.08 169.086C407.997 157.595 412.68 144.492 417.214 131.81C422.616 116.712 428.192 101.092 439.292 87.7538C456.638 66.9032 484.675 48.817 516.206 38.0941C546.759 27.7184 585.736 42.1725 617.044 53.7879C621.343 55.387 625.481 56.9242 629.434 58.325C656.294 67.8949 679.301 57.7671 703.647 47.0443C709.841 44.3171 716.272 41.4907 722.726 39.0239C741.428 31.9332 761.027 27.4896 780.957 25.8218C800.884 24.0161 820.969 25.1901 840.55 29.3051C873.717 36.4454 920.995 55.3374 946.418 79.9194C957.68 90.8281 964.705 104.712 971.495 118.174C978.928 133.05 986.746 148.397 1000.23 159.38C1016.85 172.929 1036.95 180.776 1056.39 188.375C1084.88 199.532 1114.26 210.973 1132.95 240.514C1138.01 248.522 1139.73 257.174 1140.76 267.687C1141.61 276.416 1142.03 285.183 1142 293.954V293.954C1141.71 341.445 1125.99 375.175 1100.72 414.199L1099.48 416.182C1075.52 453.173 1050.74 491.428 1058.59 536.575C1060.81 549.43 1065.75 561.789 1069.74 571.124C1073.99 580.929 1080.89 591.268 1088.09 602.214C1101.57 622.556 1115.52 643.593 1115.05 664.543C1114.07 708.475 1081.43 756.933 1053.79 785.085C1039.11 799.948 1022.54 812.803 1004.5 823.315C984.937 834.769 965.139 842.802 945.65 847.178C928.677 851.083 911.195 852 893.85 852ZM622.929 801.336C646.147 801.336 669.08 809.344 691.455 817.154C695.036 818.394 698.592 819.633 702.123 820.873C733.48 831.521 759.808 838.451 784.959 842.678C810.109 846.905 835.161 847.897 858.589 848.343L869.827 848.603C894.717 849.211 920.462 849.843 945.031 844.327C965.452 839.5 985.009 831.556 1003.01 820.774C1020.83 810.396 1037.19 797.704 1051.67 783.027C1078.92 755.271 1111.14 707.583 1112.07 664.555C1112.51 644.547 1098.83 623.92 1085.61 603.962C1078.29 592.904 1071.37 582.454 1067.03 572.413C1062.92 562.918 1057.89 550.335 1055.62 537.17C1047.6 490.845 1072.7 452.094 1096.98 414.608L1098.21 412.624C1123.19 374.035 1138.73 340.726 1139.01 293.992C1139.04 285.323 1138.63 276.66 1137.77 268.034C1136.79 257.943 1135.17 249.687 1130.43 242.187C1112.26 213.49 1084.59 202.68 1055.32 191.251C1035.66 183.577 1015.34 175.631 998.33 161.785C984.343 150.392 976.438 134.736 968.794 119.637C962.116 106.423 955.165 92.7496 944.312 82.2003C919.323 58.0274 872.689 39.4205 839.931 32.367C820.638 28.3157 800.85 27.1626 781.217 28.9456C761.567 30.59 742.243 34.971 723.804 41.9618C717.424 44.4411 711.043 47.2054 704.873 49.9202C681.048 60.4199 656.418 71.2667 628.418 61.2877C624.453 59.8745 620.303 58.325 616.028 56.7382C585.166 45.284 546.759 31.0282 517.222 41.0693C486.249 51.6061 458.657 69.3701 441.646 89.7868C430.88 102.716 425.392 118.075 420.076 132.938C415.48 145.793 410.735 159.095 402.582 170.908C387.715 192.404 365.848 199.284 344.649 205.94C316.823 214.618 290.532 222.923 282.529 263.41C280.881 271.703 281.748 278.769 283.767 288.202C287.113 303.562 287.67 320.433 266.422 328.924C239.512 339.697 211.698 350.854 193.324 377.642C173.984 405.893 167.145 441.086 175.483 469.474C179.302 482.701 185.321 495.189 193.287 506.415C200.808 516.716 211.871 523.51 222.613 530.092C225.24 531.704 227.854 533.315 230.418 534.964C234.782 537.898 238.961 541.098 242.932 544.546C245.496 546.691 248.16 548.91 250.911 550.968C252.98 552.505 255.197 553.905 257.353 555.257C261.36 557.573 265.078 560.357 268.429 563.55C286.121 581.673 297.384 605.028 303.876 637.06C307.246 653.646 308.831 668.968 310.355 683.782C314.221 721.181 317.566 753.474 348.168 787.08C357.726 797.533 369.05 806.219 381.62 812.741C385.621 814.958 389.393 817.566 392.882 820.526C394.12 821.542 395.471 822.584 396.821 823.6C402.062 827.542 408.393 830.071 414.514 832.525L415.455 832.91C431.054 839.108 448.262 839.108 464.939 839.009H472.88C486.034 838.909 499.093 836.781 511.597 832.699C516.429 831.199 521.224 829.773 526.006 828.36C535.745 825.472 545.83 822.484 555.654 818.865C559.715 817.464 563.852 816.292 568.044 815.356C570.893 814.662 573.83 813.943 576.717 813.088C579.933 812.032 583.085 810.79 586.157 809.369C589.016 808.046 591.94 806.867 594.917 805.836C603.953 802.843 613.411 801.323 622.929 801.336V801.336Z" stroke="url(#paint1_linear_1_5997)" stroke-width="2" stroke-miterlimit="10"/>
<path d="M905.581 882C884.927 882 864.26 879.212 844.2 876.511L834.102 875.161C820.472 873.389 809.185 871.568 797.798 865.881C786.201 860.083 775.05 857.444 762.709 854.829C695.12 840.457 629.191 829.022 565.703 846.615C556.423 849.192 547.118 852.475 538.209 855.647C524.369 860.603 510.058 865.633 495.252 868.247C479.306 871.06 462.876 871.283 447.004 871.506C436.981 871.655 426.622 871.791 416.537 872.584C351.921 877.664 305.346 817.103 287.777 754.808C284.63 743.657 284.927 732.023 285.212 720.773L285.286 717.725C285.707 699.488 285.286 673.556 280.714 653.621C278.236 642.854 273.639 632.558 269.439 623.997C259.589 603.802 239.492 593.296 220.064 583.111C206.1 575.801 191.653 568.244 180.923 557.093C178.445 554.615 176.091 552.137 173.724 549.659C146.255 521.572 124.572 499.382 129.776 454.965C133.133 426.295 141.98 386.995 165.014 362.562C180.217 346.456 197.414 330.894 220.113 326.285C222.707 325.826 225.335 325.586 227.969 325.567C230.722 325.564 233.466 325.274 236.159 324.7C256.689 319.434 252.873 303.216 248.834 286.031C246.938 278.028 245.117 270.457 245.823 263.879C247.954 242.816 254.595 229.448 268.027 218.978C280.33 209.401 297.379 201.174 318.703 194.558C330.114 191.015 340.758 187.707 350.707 181.239C360.572 174.967 369.606 167.474 377.594 158.938C390.096 145.037 394.407 127.964 398.967 110.023C401.058 101.082 403.694 92.2775 406.86 83.6582C415.421 61.6169 431.293 42.8837 454.03 27.9666C498.746 -1.34744 540.91 13.6565 585.552 29.6392L592.28 32.0428C595.204 33.0711 598.091 34.1366 600.954 35.1773C623.405 43.3917 644.605 51.1477 668.592 44.0731C679.743 40.7527 690.151 34.7313 700.163 28.8958C710.174 23.0602 720.755 16.9026 732.278 13.4582C762.585 4.41375 794.738 3.41019 825.837 2.44379L834.87 2.15883C897.032 0.0897568 936.545 18.1291 966.938 62.5214C979.213 80.7455 990.264 99.7642 1000.02 119.452C1006.22 131.842 1017.89 138.805 1028.52 143.959C1041.53 150.302 1054.54 155.184 1067.08 159.904C1090.07 168.577 1111.81 176.717 1132.93 192.923C1135.66 195.017 1138.43 197.036 1141.22 199.056C1146.95 203.072 1152.46 207.403 1157.71 212.028C1177.54 229.943 1184.86 259.703 1179.08 298.087C1172.79 340.125 1153.99 375.435 1148.42 385.347C1145.44 390.563 1142.06 395.915 1137.44 402.693C1133.23 408.887 1128.63 415.082 1123.81 421.785C1107.62 443.913 1089.25 469.002 1083.7 494.451C1079.52 513.679 1085.91 533.082 1092.02 545.992C1099.75 562.334 1111.22 579.196 1125.2 594.745C1129.92 599.986 1135.21 606.367 1138.83 613.9C1152.27 642.309 1151.08 685.016 1143.15 710.775C1132.24 746.184 1118.1 772.574 1098.67 793.785L1095.12 797.676C1081.85 812.283 1068.12 827.411 1050.6 835.972C1045.94 838.252 1041.08 840.16 1036.4 842.006C1031.21 844.05 1025.85 846.157 1020.82 848.746C999.094 859.949 976.324 869.007 952.838 875.793C939.779 879.54 926.289 881.581 912.706 881.864C910.277 881.963 907.923 882 905.581 882ZM635.572 834.647C677.389 834.647 720.024 842.65 763.341 851.856C775.421 854.421 787.254 857.221 799.161 863.168C810.126 868.644 821.179 870.416 834.498 872.163C837.868 872.596 841.238 873.055 844.609 873.513C866.824 876.499 889.784 879.621 912.52 878.853C925.842 878.579 939.073 876.584 951.884 872.918C975.187 866.176 997.781 857.188 1019.35 846.082C1024.51 843.526 1029.8 841.231 1035.2 839.206C1039.83 837.385 1044.63 835.489 1049.17 833.271C1066.17 824.946 1079.7 810.053 1092.79 795.656L1096.34 791.754C1115.46 770.852 1129.39 744.821 1140.17 709.858C1147.94 684.645 1149.11 642.953 1135.99 615.176C1132.6 607.99 1127.48 601.832 1122.91 596.74C1108.74 580.98 1097.1 563.87 1089.23 547.255C1080.19 528.151 1077.24 509.653 1080.71 493.782C1086.39 467.763 1104.95 442.34 1121.33 419.976C1126.18 413.348 1130.75 407.103 1134.96 400.958C1139.55 394.243 1142.89 388.952 1145.82 383.798C1157.23 363.777 1171.19 330.622 1176.15 297.628C1180.06 271.61 1179.7 236.002 1155.74 214.27C1150.54 209.725 1145.1 205.464 1139.44 201.509C1136.64 199.477 1133.82 197.445 1131.07 195.314C1110.32 179.393 1088.8 171.303 1066.01 162.729C1053.38 157.984 1040.33 153.078 1027.19 146.623C1016.15 141.245 1003.97 133.96 997.356 120.753C987.644 101.207 976.641 82.3289 964.423 64.2436C934.686 20.8053 895.942 3.15001 834.957 5.1943L825.924 5.47927C795.023 6.44567 763.068 7.43684 733.133 16.3698C721.982 19.7026 711.648 25.7116 701.674 31.5224C691.514 37.4447 681.007 43.5652 669.46 46.9723C644.505 54.4061 622.847 46.4148 599.913 38.027C597.051 36.9862 594.164 35.9331 591.24 34.9048L584.499 32.5012C540.675 16.8158 499.143 2.01015 455.739 30.5064C433.536 45.0643 418.061 63.3267 409.722 84.7485C406.61 93.2851 404.02 102.003 401.966 110.854C397.505 128.422 392.896 146.598 379.898 161.044C371.738 169.791 362.504 177.472 352.417 183.903C342.108 190.606 331.279 193.964 319.806 197.532C298.68 204.086 281.953 212.139 269.947 221.493C257.222 231.405 250.928 244.204 248.884 264.312C248.264 270.383 249.986 277.705 251.82 285.461C255.822 302.472 260.369 321.763 236.952 327.76C234.046 328.397 231.08 328.716 228.105 328.714C225.642 328.736 223.184 328.96 220.758 329.383C198.889 333.831 182.112 349.021 167.256 364.768C144.793 388.593 136.132 427.224 132.824 455.448C127.781 498.428 149.03 520.147 175.93 547.652C178.296 550.13 180.712 552.608 183.141 555.086C193.536 565.852 207.748 573.286 221.551 580.472C241.375 590.867 261.968 601.535 272.252 622.684C276.539 631.456 281.247 641.9 283.762 652.964C288.371 673.209 288.83 699.413 288.409 717.824L288.334 720.872C288.049 731.899 287.764 743.297 290.812 754.015C308.047 815.108 353.606 874.504 416.4 869.598C426.585 868.793 437.005 868.644 447.066 868.508C462.827 868.285 479.132 868.049 494.843 865.286C509.389 862.722 523.576 857.679 537.305 852.81C546.312 849.626 555.618 846.318 564.997 843.716C588.001 837.503 611.744 834.451 635.572 834.647Z" stroke="url(#paint2_linear_1_5997)" stroke-width="2" stroke-miterlimit="10"/>
<path d="M908.987 921C907.325 921 905.651 921 903.94 920.827C899.216 920.467 894.442 920.133 889.656 919.811C859.897 917.767 829.258 915.661 800.95 906.272C789.79 902.556 778.842 897.924 768.24 893.427C750.124 885.76 731.401 877.82 711.512 874.538C686.577 870.438 660.91 871.962 636.074 873.448C629.043 873.869 622.025 874.29 614.994 874.588C585.645 875.826 558.639 883.964 532.525 891.83C512.314 897.911 491.409 904.216 469.288 907.399C455.45 909.406 440.992 909.233 427.006 909.072C423.955 909.072 420.93 908.997 417.917 908.985C382.665 908.836 337.01 898.754 314.567 870.921C312.434 868.27 310.239 865.62 308.057 862.969C299.551 852.7 290.698 842.073 284.25 830.207C273.388 810.388 266.667 791.969 264.274 775.346C261.509 756.184 262.191 736.106 262.848 716.684C263.109 709.041 263.382 701.139 263.419 693.508C263.58 666.667 258.285 644.755 247.709 628.392C238.149 613.615 227.336 609.391 214.813 604.486C207.873 601.955 201.168 598.821 194.775 595.122C191.085 592.777 187.563 590.178 184.236 587.343C181.756 585.287 179.09 583.157 176.411 581.336C172.387 578.762 168.162 576.517 163.776 574.622C160.126 572.999 156.567 571.179 153.113 569.172C99.0757 536.497 82.8819 455.848 98.8773 399.873C102.163 388.366 107.867 378.68 113.905 368.411L114.426 367.519C130.384 340.356 157.167 334.076 185.525 327.374L191.812 325.888C219.574 319.212 219.797 293.757 220.008 269.133C220.008 264.042 220.107 259.224 220.38 254.566C222.55 218.645 239.215 196.87 271.33 187.939C275.57 186.762 279.786 185.536 283.99 184.31C294.058 181.374 304.474 178.352 314.988 176.06C335.187 171.675 348.752 166.733 362.54 153.145C381.202 134.764 385.715 118.735 388.294 91.8566C388.927 85.366 389.063 78.4295 389.212 71.0967C389.683 47.3765 390.216 20.4976 409.051 4.20931C454.173 -34.9446 517.51 -24.094 567.641 -10.2706L569.092 -9.8742C624.765 5.47274 661.53 15.6049 714.253 -14.3705C735.332 -26.3607 759.288 -31.2782 784.049 -35.6382C852.495 -47.7275 916.079 -34.3996 958.461 0.778238C975.82 15.1962 986.583 34.9403 997.011 54.0404C1008.37 74.8374 1020.1 96.3405 1040.29 110.449C1055.33 120.953 1077.24 130.478 1100.42 136.584C1105.75 137.82 1111.19 138.484 1116.65 138.566C1119.88 138.727 1123.21 138.888 1126.66 139.309C1153.6 142.641 1180.14 157.295 1197.65 178.5C1215.94 200.648 1227.73 230.524 1229.19 258.493L1229.55 264.686C1230.16 275.227 1230.51 285.483 1228.16 294.798C1220.72 324.228 1205.6 366.206 1175.37 399.08C1170.26 404.642 1164.91 410.228 1159.73 415.579C1141.03 435.014 1121.69 455.117 1109.3 479.667C1106.1 485.997 1101.6 495.547 1099.38 505.332C1097.35 514.498 1099.38 521.051 1102.41 529.325C1103.37 531.914 1104.14 534.515 1104.89 537.017C1106.54 542.517 1108.1 547.719 1111.35 552.55C1114.11 556.674 1117.55 559.672 1121.27 562.843C1124.47 565.45 1127.42 568.353 1130.08 571.513C1135.74 578.599 1143.36 584.495 1151.42 590.737C1165.77 601.811 1180.6 613.281 1183.56 632.034C1193.68 695.936 1160.52 751.701 1126.76 797.816C1124.97 800.293 1123.25 802.77 1121.53 805.148C1115.27 814.067 1108.78 823.282 1100.04 830.64C1086.37 842.172 1071.42 851.784 1056.89 861.086C1043.47 869.757 1029.61 878.601 1016.94 888.944C1015 890.517 1013.11 892.164 1011.21 893.811C1005.85 898.444 1000.31 903.25 993.849 906.644C987.389 910.038 980.111 911.834 973.105 913.531C970.538 914.15 967.984 914.769 965.479 915.463C956.403 917.94 948.703 918.337 939.8 918.733L935.113 918.956C931.393 919.154 927.772 919.551 924.238 919.922C919.178 920.556 914.086 920.916 908.987 921V921ZM675.256 868.865C687.56 868.758 699.851 869.657 712.008 871.553C732.244 874.885 751.154 882.899 769.43 890.641C779.982 895.112 790.882 899.732 801.905 903.386C829.853 912.664 860.356 914.757 889.867 916.776L904.176 917.792C910.773 918.113 917.386 917.819 923.928 916.912C927.499 916.528 931.207 916.132 934.964 915.934L939.676 915.711C948.355 915.315 955.931 914.98 964.673 912.54C967.153 911.834 969.807 911.215 972.41 910.583C979.218 908.935 986.273 907.226 992.436 903.968C998.598 900.711 1003.95 896.041 1009.19 891.582C1011.11 889.91 1013.03 888.25 1014.98 886.627C1027.77 876.185 1041.71 867.23 1055.2 858.572C1069.62 849.319 1084.53 839.744 1098.13 828.299C1106.56 821.189 1112.65 812.543 1119.08 803.377C1120.82 800.9 1122.56 798.423 1124.34 796.007C1157.75 750.388 1190.54 695.292 1180.6 632.505C1177.82 614.941 1163.47 603.855 1149.6 593.128C1141.74 587.059 1133.62 580.741 1127.73 573.396C1125.19 570.392 1122.37 567.638 1119.31 565.171C1115.33 562.038 1111.8 558.37 1108.83 554.271C1105.32 549.057 1103.62 543.384 1101.97 537.909C1101.24 535.431 1100.47 532.954 1099.55 530.402C1096.42 521.93 1094.2 514.647 1096.41 504.7C1098.61 494.754 1103.26 484.795 1106.54 478.317C1119.13 453.37 1138.64 433.106 1157.5 413.498C1162.66 408.135 1168 402.586 1173.08 397.061C1202.84 364.646 1217.85 323.163 1225.16 294.079C1227.41 285.173 1227.06 275.19 1226.46 264.884L1226.35 262.828L1226.12 258.716C1224.68 231.403 1213.13 202.159 1195.25 180.495C1178.48 160.168 1152.03 145.565 1126.24 142.381C1122.9 141.973 1119.62 141.812 1116.46 141.65C1110.78 141.562 1105.13 140.864 1099.6 139.57C1076.05 133.376 1053.81 123.702 1038.49 112.988C1017.73 98.471 1005.81 76.6583 994.296 55.5516C984.004 36.6992 973.365 17.2152 956.477 3.18123C914.777 -31.5011 852.098 -44.507 784.521 -32.5911C760.044 -28.2682 736.361 -23.4251 715.716 -11.6826C661.939 18.8626 624.679 8.557 568.286 -6.95097L566.835 -7.34734C472.785 -33.26 434.16 -13.6149 411.047 6.40173C393.167 21.8478 392.696 46.9553 392.213 71.1091C392.076 78.541 391.927 85.4899 391.295 92.1043C388.641 119.726 383.979 136.225 364.648 155.276C350.327 169.384 336.365 174.5 315.608 178.996C305.156 181.263 294.802 184.285 284.783 187.196C280.567 188.434 276.339 189.673 272.086 190.837C241.372 199.384 225.439 220.28 223.356 254.727C223.071 259.31 223.034 264.079 222.984 269.133C222.773 293.72 222.525 321.59 192.456 328.811L186.157 330.298C158.457 336.801 132.294 342.994 116.981 369.006L116.46 369.897C110.52 379.993 104.916 389.518 101.729 400.653C81.58 471.182 113.496 541.662 154.625 566.534C157.984 568.48 161.444 570.246 164.991 571.823C169.538 573.795 173.914 576.14 178.073 578.834C180.85 580.729 183.529 582.897 186.108 585.027C189.321 587.772 192.723 590.288 196.288 592.558C202.58 596.174 209.177 599.233 216.003 601.699C228.477 606.58 240.257 611.187 250.35 626.782C261.249 643.615 266.692 666.085 266.543 693.533C266.543 701.213 266.233 709.14 265.973 716.795C265.316 736.081 264.634 756.036 267.362 774.925C269.705 791.189 276.314 809.31 287.003 828.757C293.376 840.363 302.068 850.88 310.475 861.049C312.682 863.712 314.877 866.363 317.022 869.026C338.795 896.029 383.471 905.814 418.016 905.963C421.029 905.963 424.067 905.963 427.13 906.049C441.005 906.21 455.338 906.384 468.941 904.414C490.813 901.243 511.607 894.988 531.707 888.944C558.006 881.029 585.198 872.841 614.92 871.602C621.913 871.305 628.919 870.884 635.925 870.463C648.895 869.645 662.075 868.865 675.293 868.865H675.256Z" stroke="url(#paint3_linear_1_5997)" stroke-width="2" stroke-miterlimit="10"/>
<path d="M932.191 950C920.434 950 908.158 947.658 896.265 945.378C894.295 945.006 892.35 944.622 890.43 944.275C858.827 938.414 825.156 931.19 792.896 918.166C777.225 911.847 763.003 906.494 747.604 905.056C736.071 903.978 724.624 902.107 713.561 900.31C690.915 896.593 669.521 893.123 646.553 895.564L637.41 896.506C630.373 897.213 623.102 897.944 616.015 898.898C594.621 901.748 572.916 908.737 551.943 915.49C542.59 918.501 532.914 921.611 523.45 924.263C518.328 925.828 513.298 927.682 508.385 929.814C502.03 932.441 495.452 935.155 488.564 936.568L487.957 936.679C475.754 939.158 463.18 941.71 450.334 939.69C441.568 938.526 432.739 937.913 423.897 937.856C408.312 937.435 392.195 936.989 377.886 930.669C370.168 927.262 362.327 924.251 354.745 921.339C327.491 910.88 301.748 901.004 283.425 874.251C260.99 841.538 250.163 809.457 248.317 770.163C248.106 765.839 247.772 761.489 247.437 757.227C246.917 750.436 246.372 743.423 246.372 736.446C246.372 732.332 246.483 728.206 246.607 724.055C247.005 715.962 246.927 707.852 246.372 699.768C245.071 685.233 240.264 676.224 234.702 665.728C231.564 660.053 228.751 654.203 226.278 648.207C223.478 641.193 222.004 638.653 215.215 635.568C183.29 621.008 157.783 607.984 134.951 594.565C116.269 583.672 99.1732 563.512 89.4112 548.357C86.2603 543.251 83.4062 537.968 80.8632 532.533C79.0174 528.816 77.1467 524.888 75.0283 521.195C73.7895 518.977 72.5506 516.808 71.3118 514.665C64.5106 503.017 58.081 492.013 55.7025 477.726C48.988 437.355 62.4789 389.226 90.0926 355.113C96.9062 346.699 105.925 342.374 114.572 338.669C122.174 335.623 129.971 333.089 137.912 331.086C152.53 327.046 167.644 322.87 178.967 312.214C192.222 299.736 192.383 283.292 192.594 265.895C192.594 261.582 192.668 257.134 192.928 252.797C194.167 232.537 195.641 207.308 211.015 191.695C225.064 177.222 249.741 174.421 271.458 171.943C278.767 171.125 285.668 170.344 291.763 169.18C294.24 168.696 296.929 168.411 299.493 168.139C304.052 167.643 308.747 167.135 312.748 165.549C352.986 149.638 355.464 106.268 358.077 60.1847C359.948 27.3474 361.881 -6.60509 378.902 -29.616C384.75 -37.4721 395.106 -44.7831 402.799 -48.5005C408.126 -51.0903 414.085 -52.0196 419.846 -52.9118L421.865 -53.234C454.075 -58.4136 492.702 -56.6169 539.852 -47.7322C546.785 -46.2605 553.61 -44.3189 560.28 -41.9206C563.105 -40.9789 565.917 -40.0371 568.729 -39.1697C627.202 -21.2022 690.593 -25.1303 738.288 -49.6653C741.336 -51.2266 744.359 -52.9862 747.282 -54.6962C752.398 -57.8399 757.744 -60.5904 763.276 -62.9241C784.088 -71.1148 812.904 -70.2722 836.045 -69.5907L842.561 -69.4172C854.466 -69.1074 866.223 -67.4346 877.595 -65.8237C884.521 -64.8448 891.681 -63.8287 898.804 -63.1347L900.675 -62.9489C908.566 -62.193 916.024 -61.4743 923.792 -58.4384C947.33 -49.2687 967.869 -36.0223 984.916 -24.2753C1005.59 -10.0251 1013.57 8.28939 1022.8 29.4787C1024.04 32.242 1025.28 35.0672 1026.52 37.9297C1045.83 81.1757 1090.81 97.7059 1134.29 113.703C1155.35 121.448 1177.16 129.453 1195.34 140.382C1224.88 158.126 1246.6 193.516 1259.89 245.597C1260.41 247.654 1260.87 249.72 1261.29 251.793C1268.98 290.566 1259.9 340.156 1239.22 372.386C1234.79 379.025 1229.98 385.401 1224.8 391.482C1221.83 395.112 1218.75 398.855 1215.91 402.634C1213.53 405.794 1211.24 409.077 1209.03 412.262C1204.89 418.514 1200.34 424.483 1195.41 430.13C1192 433.856 1188.59 437.574 1185.16 441.283C1170.53 457.206 1155.43 473.674 1141.29 490.576C1133.14 500.34 1127.01 508.791 1128.2 521.083C1130.68 546.04 1150 561.058 1168.73 575.606C1178.61 583.338 1188.88 591.318 1196.53 600.686C1220.7 630.425 1221.88 670.301 1200.11 722.58C1198.74 725.889 1197.4 729.21 1196.06 732.493C1191.89 742.877 1187.56 753.621 1182.08 763.658C1179.88 767.437 1177.27 770.964 1174.31 774.178C1172.88 775.839 1171.43 777.511 1170.05 779.345C1168.71 781.161 1167.47 783.048 1166.33 784.996C1164.72 787.797 1162.86 790.444 1160.77 792.902C1150.05 804.686 1140.08 817.474 1130.44 829.853C1117.76 846.123 1104.64 862.938 1089.66 877.758C1062.4 904.722 1025.41 927.051 985.597 940.607C969.531 945.965 952.801 949.076 935.883 949.851C934.632 949.988 933.405 950 932.191 950ZM662.125 891.76C679.902 891.76 697.196 894.586 714.057 897.336C725.082 899.133 736.467 901.054 747.889 902.058C763.685 903.532 778.736 909.207 794.036 915.378C826.048 928.303 859.558 935.477 890.987 941.314L896.847 942.429C909.818 944.907 923.271 947.46 935.722 946.927C952.352 946.151 968.797 943.091 984.594 937.832C1024.03 924.412 1060.58 902.355 1087.54 875.701C1102.41 861.017 1115.43 844.276 1128.06 828.081C1137.74 815.689 1147.75 802.827 1158.53 790.907C1160.5 788.598 1162.25 786.109 1163.75 783.472C1164.95 781.432 1166.25 779.459 1167.66 777.561C1169.09 775.677 1170.59 773.943 1172.03 772.257C1174.87 769.21 1177.36 765.856 1179.46 762.258C1184.85 752.344 1189.14 741.725 1193.29 731.415C1194.63 728.082 1195.96 724.749 1197.35 721.428C1218.65 670.276 1217.62 631.404 1194.23 602.619C1186.8 593.499 1176.65 585.606 1166.81 577.985C1147.57 563.115 1127.68 547.638 1125.13 521.381C1123.81 507.911 1130.29 498.952 1138.9 488.63C1153.05 471.679 1168.21 455.174 1182.87 439.226L1193.1 428.073C1197.96 422.527 1202.44 416.661 1206.52 410.515C1208.74 407.318 1211.04 403.997 1213.46 400.8C1216.34 396.971 1219.44 393.192 1222.44 389.549C1227.56 383.55 1232.33 377.261 1236.72 370.714C1257.01 339.091 1265.91 290.43 1258.36 252.363C1257.97 250.343 1257.51 248.336 1257 246.329C1243.91 195.065 1222.66 160.283 1193.82 142.972C1175.88 132.191 1154.18 124.236 1133.29 116.541C1089.19 100.333 1043.59 83.5673 1023.77 39.1564C1022.53 36.2816 1021.29 33.4564 1020.05 30.6807C1011.01 9.91267 1003.2 -8.0301 983.243 -21.7846C966.333 -33.4325 945.93 -46.5674 922.726 -55.6255C915.293 -58.5127 908.096 -59.2067 900.427 -59.9378L898.557 -60.1236C891.371 -60.8299 884.186 -61.846 877.224 -62.8373C865.938 -64.4358 854.268 -66.0963 842.536 -66.3937L836.008 -66.5796C813.126 -67.2487 784.67 -68.0789 764.428 -60.1236C759.044 -57.836 753.838 -55.1478 748.856 -52.0816C745.895 -50.3592 742.835 -48.5748 739.726 -46.9763C691.287 -22.0696 627.053 -18.0795 567.837 -36.233C565 -37.1004 562.163 -38.0545 559.314 -39.0087C552.775 -41.3551 546.087 -43.2635 539.294 -44.7211C492.479 -53.581 454.248 -55.3653 422.348 -50.2477L420.304 -49.8635C414.767 -48.9961 409.043 -48.104 404.113 -45.7124C397.002 -42.2676 386.843 -35.1797 381.343 -27.7449C364.866 -5.4403 362.958 28.0165 361.113 60.4201C358.548 105.364 355.909 151.856 313.863 168.486C309.49 170.22 304.572 170.753 299.815 171.261C297.201 171.546 294.711 171.819 292.382 172.277C286.188 173.517 279.213 174.248 271.842 175.078C250.633 177.469 226.575 180.171 213.109 193.851C198.54 208.721 197.078 233.243 195.902 252.995C195.641 257.27 195.604 261.669 195.567 265.944C195.394 283.218 195.233 301.086 181.035 314.444C169.155 325.596 153.682 329.896 138.704 334.035C130.899 335.997 123.234 338.481 115.761 341.47C107.374 344.977 98.7644 349.14 92.3844 356.984C65.3035 390.441 52.0479 437.627 58.6261 477.181C60.918 490.935 67.2113 501.703 73.8638 513.116C75.1026 515.272 76.3415 517.453 77.667 519.683C79.7978 523.401 81.718 527.378 83.5887 531.17C86.0761 536.512 88.8723 541.705 91.9632 546.721C101.539 561.591 118.264 581.33 136.561 592.061C159.306 605.432 184.715 618.406 216.553 632.953C224.246 636.46 226.216 639.83 229.164 647.228C231.6 653.123 234.372 658.874 237.464 664.452C242.94 674.762 248.106 684.501 249.469 699.644C250.034 707.847 250.116 716.077 249.717 724.29C249.593 728.392 249.469 732.493 249.481 736.583C249.481 743.447 250.014 750.399 250.534 757.128C250.881 761.465 251.216 765.802 251.414 770.163C253.235 808.8 263.901 840.398 286.002 872.628C303.792 898.563 329.101 908.278 355.909 918.563C363.528 921.487 371.407 924.511 379.187 927.943C392.951 934.027 408.758 934.461 424.058 934.882C433.029 934.926 441.987 935.547 450.879 936.741C463.143 938.699 474.937 936.295 487.437 933.755L488.031 933.643C494.671 932.293 501.113 929.641 507.345 927.063C512.365 924.883 517.507 922.992 522.744 921.401C532.084 918.761 541.735 915.651 551.063 912.652C572.123 905.849 594.001 898.823 615.669 895.936C622.792 894.982 630.089 894.251 637.15 893.532L646.28 892.603C651.534 892.034 656.815 891.744 662.1 891.736L662.125 891.76Z" stroke="url(#paint4_linear_1_5997)" stroke-width="2" stroke-miterlimit="10"/>
<path d="M907.242 988.999C902.123 988.999 897.091 988.615 891.898 988.231L885.28 987.761C867.434 986.659 846.786 980.442 828.581 974.957L820.141 972.48C812.415 970.032 804.838 967.138 797.448 963.812C794.647 962.573 791.846 961.409 789.033 960.257C726.496 934.748 677.368 926.723 624.758 933.485C611.274 935.218 598.881 938.81 585.781 942.611L584.021 943.119C569.087 947.453 546.94 953.335 527.012 954.413C522.414 954.673 517.84 954.883 513.292 955.094C491.306 956.109 470.547 957.063 449.107 962.177L441.968 963.898C428.67 967.143 416.103 970.189 402.421 971.638C359.614 976.133 324.627 966.87 285.414 940.679C269.191 929.844 252.485 905.176 244.999 887.431C237.799 870.404 233.288 850.677 231.59 828.808C230.71 817.564 230.859 806.048 231.007 794.928C231.007 790.606 231.119 786.259 231.119 781.987V777.925C231.119 746.038 231.119 709.891 212.715 682.97C210.25 679.586 207.532 676.395 204.585 673.422C201.898 670.686 199.378 667.791 197.037 664.754C188.795 653.609 171.011 648.656 155.259 644.247C148.362 642.478 141.585 640.269 134.971 637.634C127.535 634.44 120.185 631.146 112.824 627.852L100.43 622.341C87.5287 616.694 78.4567 610.267 71.0207 601.525C67.2035 597.03 63.1633 592.572 58.8875 587.903C44.9945 572.449 30.5562 556.511 22.7979 538.221C20.6167 533.094 18.0388 527.856 15.5354 522.804C10.1318 511.869 4.54241 500.514 2.12569 488.601C0.787204 481.939 0.948319 475.078 1.09704 468.453C1.09704 466.472 1.19619 464.491 1.19619 462.509C1.19619 451.798 1.80346 442.77 4.48044 433.545C16.3038 392.618 33.3695 366.464 61.5521 346.081C71.1074 339.196 81.3072 333.004 91.16 326.961C109.564 315.816 128.588 304.188 143.671 287.719C149.868 280.92 153.784 275.112 153.871 267.137C153.871 264.289 153.871 261.429 153.871 258.581C153.871 256.5 153.871 254.42 153.871 252.389C153.871 248.055 153.871 243.721 153.871 239.399C153.871 230.223 153.871 221.034 153.871 211.858C153.672 193.37 158.915 178.287 169.449 167.018C180.318 155.415 194.31 148.877 207.695 143.168C218.416 138.598 229.458 137.051 240.154 135.54C246.511 134.648 253.092 133.719 259.586 132.172C262.807 131.496 266.087 131.143 269.377 131.119C271.187 131.045 272.996 130.983 274.843 130.785C280.581 130.153 289.715 125.893 294.536 122.314C317.947 105.064 321.132 78.8241 321.095 53.042V51.1597C321.095 30.6034 321.008 9.34122 327.862 -10.3978C329.423 -14.9054 331.208 -19.4624 332.931 -23.8709C333.906 -26.3476 334.868 -28.8242 335.818 -31.3009C336.277 -32.5392 336.698 -33.7776 337.058 -34.9168C338.818 -39.9568 340.478 -44.712 344.853 -49.0957C350.38 -54.4313 356.429 -59.198 362.91 -63.3242C369.028 -67.3642 375.59 -70.6883 382.467 -73.2309C391.651 -76.8592 400.475 -78.3947 409.819 -80.0169C412.298 -80.4503 414.888 -80.8961 417.466 -81.3791C444.273 -86.481 473.41 -79.6454 499.102 -73.6147L499.635 -73.4909C501.432 -73.0699 503.204 -72.7231 504.964 -72.3764C509.884 -71.6008 514.686 -70.2027 519.253 -68.2156C524.293 -65.6485 529.584 -63.6068 535.043 -62.123C537.116 -61.5122 539.135 -60.7293 541.078 -59.7826C543.484 -58.5342 546.074 -57.6772 548.75 -57.244C555.828 -56.6517 562.948 -56.7637 570.004 -57.5783C595.708 -60.4636 622.342 -60.055 648.083 -59.6835C654.28 -59.5968 660.551 -59.4977 666.747 -59.4482C682.698 -59.3491 699.59 -62.7793 719.655 -70.3208C729.793 -74.1225 737.241 -80.0417 744.442 -85.7628C755.596 -94.6169 766.118 -102.976 785.34 -103.595C792.615 -103.842 800.026 -104.276 807.177 -104.709C814.328 -105.143 821.863 -105.576 829.225 -105.811C872.875 -107.186 911.554 -101.044 943.914 -87.4717C973.72 -74.9769 988.133 -56.922 1004.78 -36.0189C1010.73 -28.5889 1016.87 -20.8494 1024.12 -12.8869C1026.33 -10.4102 1028.42 -7.93354 1030.52 -5.45687C1034.75 -0.0982424 1039.46 4.87456 1044.57 9.40313C1053.14 16.5731 1061.07 24.548 1068.74 32.2752C1073.42 36.9808 1078.26 41.8475 1083.18 46.4665C1096.81 59.2461 1113.6 67.0475 1129.86 74.6014C1139.72 78.9721 1149.34 83.8706 1158.67 89.2756C1160.95 90.6502 1163.12 92.0247 1165.25 93.3621C1172.82 98.1545 1179.98 102.674 1189.25 105.473C1192.45 106.451 1195.59 107.343 1198.66 108.222C1214.45 112.742 1229.37 117.014 1243.19 128.717C1258.56 141.719 1268.61 156.084 1279.25 171.29C1282.97 176.591 1286.79 182.076 1290.95 187.624C1303.93 204.961 1309.21 226.916 1312.67 246.086C1314.77 257.788 1314.74 268.97 1314.7 280.759V281.254C1314.7 284.623 1314.77 288.003 1314.85 291.384C1315.11 302.529 1315.39 313.996 1312.37 324.992C1302.11 361.969 1285.66 395.491 1264.83 421.942C1235.08 459.748 1207.74 482.806 1176.29 496.712C1164.98 501.665 1158.74 508.179 1157.77 515.943C1155.1 537.54 1191.7 566.145 1215.91 585.08C1225.18 592.324 1232.49 598.045 1235.83 601.909C1243.51 610.775 1248.41 621.722 1253.18 632.322L1254.29 634.799C1268.57 666.599 1249.97 710.548 1235.02 745.865C1231.55 754.063 1228.27 761.802 1225.72 768.7C1223.45 774.38 1220.78 779.889 1217.72 785.182C1214.77 790.259 1212.18 795.54 1209.98 800.983C1206.53 810.221 1203.78 816.858 1197.46 824.648C1193.23 830.068 1189.34 835.751 1185.83 841.662C1182.11 847.908 1177.97 853.895 1173.44 859.581C1170.18 863.506 1167.07 867.704 1164.05 871.779C1159.34 878.432 1154.2 884.762 1148.64 890.725C1144.92 894.44 1141.64 898.576 1138.4 902.539C1135.17 906.501 1131.88 910.526 1128.24 914.29C1101.06 942.326 1077.95 950.673 1042.96 963.304L1036.93 965.496C1002.83 977.879 969.481 981.965 934.172 986.324C928.806 986.981 923.427 987.649 917.999 988.343C914.431 988.796 910.838 989.015 907.242 988.999ZM659.807 928.123C700.47 928.123 741.269 937.447 790.173 957.397C793.011 958.561 795.825 959.762 798.65 960.963C805.913 964.247 813.362 967.104 820.959 969.52C823.698 970.325 826.523 971.18 829.411 971.997C847.468 977.446 867.93 983.612 885.442 984.69C887.685 984.826 889.903 984.999 892.084 985.16C900.76 985.804 908.84 986.399 917.59 985.284C923.027 984.591 928.422 983.918 933.776 983.266C968.924 978.932 1002.1 974.845 1035.87 962.598L1041.91 960.406C1076.5 947.911 1099.35 939.664 1126.05 912.111C1129.6 908.396 1132.88 904.433 1136.04 900.557C1139.2 896.681 1142.69 892.397 1146.45 888.546C1151.91 882.699 1156.97 876.494 1161.6 869.971C1164.64 865.872 1167.8 861.637 1171.08 857.587C1175.51 852.006 1179.55 846.131 1183.18 840.003C1186.76 833.977 1190.71 828.186 1195.03 822.666C1201.08 815.236 1203.7 808.822 1207.06 799.856C1209.3 794.31 1211.93 788.93 1214.93 783.758C1217.93 778.59 1220.54 773.209 1222.74 767.659C1225.33 760.7 1228.62 752.923 1232.1 744.688C1246.82 709.916 1265.14 666.673 1251.39 636.062L1250.29 633.585C1245.64 623.195 1240.85 612.447 1233.46 603.865C1230.33 600.224 1222.74 594.305 1213.97 587.445C1189.18 568.09 1151.8 538.853 1154.7 515.547C1155.8 506.656 1162.63 499.375 1174.99 493.913C1205.97 480.218 1232.92 457.445 1262.37 420.047C1282.96 393.906 1299.22 360.743 1309.37 324.163C1312.31 313.6 1312.04 302.331 1311.78 291.434C1311.7 288.016 1311.61 284.61 1311.63 281.23V280.722C1311.63 269.032 1311.7 257.974 1309.64 246.544C1306.07 226.731 1301.04 206.174 1288.49 189.37C1284.3 183.773 1280.44 178.225 1276.73 172.95C1266.2 157.916 1256.25 143.7 1241.19 130.946C1227.86 119.677 1213.93 115.677 1197.82 111.07C1194.72 110.179 1191.62 109.275 1188.36 108.309C1178.71 105.374 1171.37 100.755 1163.57 95.8512C1161.47 94.5138 1159.31 93.1516 1157.04 91.7895C1147.81 86.4426 1138.29 81.5978 1128.54 77.2762C1112.07 69.6357 1095.06 61.7227 1081.08 48.6088C1076.13 43.9526 1071.26 39.0736 1066.56 34.3432C1058.94 26.6779 1051.05 18.7526 1042.59 11.6693C1037.35 7.03544 1032.53 1.95115 1028.18 -3.52507C1026.11 -6.00174 1024.02 -8.47841 1021.84 -10.8312C1014.53 -18.868 1008.36 -26.62 1002.37 -34.1243C985.977 -54.7054 971.799 -72.5126 942.711 -84.6854C910.786 -98.0718 872.565 -104.127 829.262 -102.765C821.938 -102.53 814.489 -102.084 807.301 -101.651C800.113 -101.217 792.689 -100.784 785.377 -100.548C767.208 -99.9541 757.058 -91.8802 746.325 -83.3604C738.889 -77.4907 731.305 -71.4353 720.721 -67.4478C700.296 -59.7826 683.144 -56.2285 666.723 -56.3895C660.526 -56.3895 654.329 -56.5381 648.046 -56.6248C622.391 -57.0087 595.857 -57.405 570.339 -54.5444C563.069 -53.7047 555.732 -53.5927 548.44 -54.2101C545.414 -54.655 542.483 -55.5964 539.764 -56.9963C537.973 -57.8713 536.111 -58.5961 534.2 -59.1634C528.563 -60.7004 523.098 -62.8082 517.89 -65.4541C513.533 -67.3448 508.952 -68.6683 504.257 -69.392C502.46 -69.7388 500.651 -70.0979 498.817 -70.5313L498.284 -70.6551C472.877 -76.6115 444.087 -83.3728 417.9 -78.3947C415.31 -77.8994 412.757 -77.4536 410.216 -77.0202C401.033 -75.4227 392.357 -73.9119 383.459 -70.3951C376.799 -67.9278 370.444 -64.7035 364.522 -60.7856C358.214 -56.765 352.323 -52.1273 346.935 -46.941C343.056 -43.0527 341.581 -38.8176 339.871 -33.9138C339.45 -32.6754 339.016 -31.4371 338.545 -30.1988C337.603 -27.7221 336.624 -25.2454 335.645 -22.7688C333.935 -18.3851 332.162 -13.8652 330.613 -9.40716C323.933 9.86131 323.983 30.8511 324.02 51.1597V52.9801C324.02 79.5671 320.723 106.662 296.221 124.704C291.053 128.506 281.498 133.051 275.066 133.744C273.145 133.955 271.261 134.029 269.377 134.103C266.288 134.121 263.207 134.444 260.181 135.069C253.539 136.654 246.896 137.546 240.463 138.499C229.483 140.035 219.122 141.496 208.773 145.929C195.686 151.514 182.016 157.892 171.593 169.074C161.604 179.736 156.634 194.113 156.833 211.809C156.932 220.997 156.907 230.186 156.833 239.386C156.833 243.708 156.833 248.055 156.833 252.364C156.833 254.432 156.833 256.5 156.833 258.556C156.833 261.429 156.833 264.302 156.833 267.224C156.721 277.131 151.095 284.09 145.84 289.836C130.46 306.616 111.237 318.318 92.6596 329.624C82.9308 335.481 72.7929 341.673 63.3244 348.533C35.749 368.495 18.9683 394.166 7.39289 434.387C4.81506 443.216 4.26975 452.058 4.23257 462.522C4.23257 464.515 4.23257 466.522 4.13343 468.528C3.98471 474.979 3.82359 481.666 5.10011 488.007C7.44247 499.573 12.9328 510.705 18.2619 521.442C20.7406 526.531 23.3804 531.794 25.5988 537.007C33.1588 554.839 47.3988 570.566 61.1679 585.785C65.456 590.528 69.5087 595.011 73.363 599.543C80.4645 607.914 89.2018 614.106 101.67 619.629C105.801 621.445 109.932 623.282 114.063 625.14C121.412 628.421 128.774 631.715 136.173 634.898C142.664 637.468 149.312 639.623 156.077 641.349C172.262 645.857 190.605 650.971 199.454 662.971C201.724 665.907 204.165 668.706 206.766 671.354C209.825 674.435 212.643 677.747 215.193 681.261C234.168 708.962 234.143 745.654 234.13 777.938V781.987C234.13 786.296 234.13 790.655 234.019 794.965C233.87 806.023 233.721 817.465 234.589 828.573C236.262 850.12 240.699 869.525 247.763 886.255C255.088 903.591 271.311 927.615 287.075 938.128C326.164 964.27 359.49 973.087 402.074 968.616C415.558 967.205 428.025 964.171 441.224 960.951L448.375 959.23C470.101 954.053 490.996 953.038 513.119 952.06C517.667 951.849 522.228 951.639 526.826 951.391C546.444 950.314 568.368 944.493 583.154 940.246L584.901 939.738C598.137 935.899 610.63 932.308 624.349 930.513C636.106 928.963 647.949 928.164 659.807 928.123Z" stroke="url(#paint5_linear_1_5997)" stroke-width="2" stroke-miterlimit="10"/>
<defs>
<linearGradient id="paint0_linear_1_5997" x1="660.5" y1="54" x2="660.5" y2="837" gradientUnits="userSpaceOnUse">
<stop stop-color="#256252"/>
<stop offset="1" stop-color="#FFF0E9" stop-opacity="0"/>
</linearGradient>
<linearGradient id="paint1_linear_1_5997" x1="655.5" y1="25" x2="655.5" y2="852" gradientUnits="userSpaceOnUse">
<stop stop-color="#256252"/>
<stop offset="1" stop-color="#FFF0E9" stop-opacity="0"/>
</linearGradient>
<linearGradient id="paint2_linear_1_5997" x1="655" y1="2" x2="655" y2="882" gradientUnits="userSpaceOnUse">
<stop stop-color="#256252"/>
<stop offset="1" stop-color="#FFF0E9" stop-opacity="0"/>
</linearGradient>
<linearGradient id="paint3_linear_1_5997" x1="661.5" y1="-40" x2="661.5" y2="921" gradientUnits="userSpaceOnUse">
<stop stop-color="#256252"/>
<stop offset="1" stop-color="#FFF0E9" stop-opacity="0"/>
</linearGradient>
<linearGradient id="paint4_linear_1_5997" x1="659" y1="-70" x2="659" y2="950" gradientUnits="userSpaceOnUse">
<stop stop-color="#256252"/>
<stop offset="1" stop-color="#FFF0E9" stop-opacity="0"/>
</linearGradient>
<linearGradient id="paint5_linear_1_5997" x1="658" y1="-106" x2="658" y2="989" gradientUnits="userSpaceOnUse">
<stop stop-color="#256252"/>
<stop offset="1" stop-color="#FFF0E9" stop-opacity="0"/>
</linearGradient>
</defs>
</svg>
