<svg width="340" height="341" viewBox="0 0 340 341" fill="none" xmlns="http://www.w3.org/2000/svg">
<path d="M33.3654 247.522C43.4542 245.168 61.7629 230.859 61.7865 230.838C61.8101 230.817 48.6908 221.633 47.7897 221.159C37.319 215.65 13.8765 211.164 4.42756 220.437C-2.38578 227.117 -0.946359 237.839 6.0846 243.701C13.1156 249.562 24.7628 249.537 33.3654 247.522Z" fill="#39F8C5" fill-opacity="0.4"/>
<path d="M289.325 394.097L290.481 395.249L299.514 392.826C297.94 391.362 296.321 389.896 294.66 388.383C289.938 384.11 284.808 379.624 279.504 375.083C282.985 369.386 286.132 363.491 288.928 357.427C298.735 359.255 317.776 355.756 320.235 355.287C321.86 361.356 323.287 367.287 324.6 372.899C325.503 376.764 326.335 380.473 327.121 384.063L334.17 378.81C333.495 376.287 332.904 373.698 332.216 371.017C330.569 364.867 328.809 358.293 326.903 351.555C329.215 350.481 348.019 341.623 354.389 334.214C360.128 327.501 365.572 317.344 363.581 308.216C361.59 299.088 352.774 293.048 343.694 296.009C331.127 300.125 324.288 323.022 324.35 334.816C324.348 335.518 325.235 343.086 325.865 347.842C325.135 345.115 324.31 342.413 323.459 339.615C321.804 334.037 319.991 328.516 318.05 322.576C317.01 319.746 315.966 316.883 314.918 313.988C313.939 311.093 312.528 308.168 311.329 305.215C308.409 298.456 305.134 291.733 301.679 285.045C306.544 283.579 323.79 278.121 330.506 272.329C337.221 266.538 344.112 257.367 343.528 248.037C342.943 238.708 335.132 231.404 325.734 232.959C312.676 235.131 302.456 256.743 300.719 268.42C300.608 269.151 300.283 277.702 300.235 282.377C298.128 278.382 296.045 274.365 293.782 270.383C287.241 258.879 280.263 247.435 273.357 235.985C271.239 232.49 269.171 228.966 267.093 225.46C268.837 224.992 289.454 218.922 296.975 212.432C303.671 206.676 310.595 197.466 309.997 188.14C309.399 178.814 301.615 171.503 292.204 173.062C279.146 175.234 268.939 196.842 267.202 208.519C267.073 209.401 266.653 221.69 266.703 224.819C262.117 217.074 257.617 209.321 253.493 201.496C247.868 190.968 242.935 180.085 238.724 168.915C239.528 168.699 261.101 162.49 268.815 155.846C275.506 150.075 282.417 140.87 281.833 131.54C281.248 122.21 273.451 114.903 264.043 116.476C250.981 118.634 240.778 140.255 239.028 151.936C238.892 152.849 238.43 166.07 238.546 168.466C238.367 167.797 237.99 167.153 237.76 166.513C233.838 155.19 230.934 143.539 229.083 131.699C227.977 125.169 227.283 118.865 226.748 112.723C230.927 111.968 249.738 108.37 257.339 103.16C264.618 98.1673 272.508 89.7807 272.93 80.4444C273.351 71.1081 266.433 62.9948 256.901 63.5046C243.689 64.2271 231.172 84.5689 228.172 96.0582C228.018 96.6841 227.043 103.187 226.418 107.944C226.214 105.164 225.961 102.308 225.817 99.6426C225.25 89.5626 225.395 80.4468 225.552 72.3068C225.687 67.681 225.882 63.4481 226.146 59.5771C229.77 56.7488 244.489 45.0689 248.752 37.0995C253.015 29.1302 256.065 18.2119 252.145 9.73299C248.225 1.2541 238.33 -2.75756 230.121 2.08978C218.778 8.8153 216.968 32.6585 219.574 44.1939C219.837 45.1758 225.092 60.3859 225.318 60.1938L225.551 60.0289C225.241 63.7808 224.964 67.8165 224.73 72.235C224.384 80.3816 224.077 89.5995 224.404 99.6561C224.644 110.491 225.51 121.303 226.998 132.039C228.622 144.067 231.308 155.927 235.025 167.48C235.062 167.617 235.102 167.767 235.138 167.903C232.838 164.764 226.253 156.151 225.668 155.548C217.45 147.053 196.564 135.479 184.697 141.337C176.145 145.56 174.175 156.203 179.068 163.953C183.962 171.703 195.006 175.319 203.786 176.092C213.707 176.983 234.068 169.798 235.681 169.219C239.765 180.898 244.621 192.292 250.215 203.325C253.403 209.779 256.877 216.156 260.419 222.514C258.362 219.85 256.516 217.48 256.23 217.177C247.998 208.685 227.126 197.108 215.245 202.969C206.693 207.192 204.723 217.835 209.617 225.585C214.51 233.335 225.555 236.951 234.348 237.721C243.141 238.491 260.762 232.742 265.362 231.157C266.74 233.579 268.123 236.015 269.474 238.445C276.143 250.045 282.855 261.59 289.085 273.133C291.282 277.192 293.294 281.271 295.279 285.358C293.467 283.008 291.914 281.028 291.636 280.751C283.418 272.256 262.546 260.679 250.665 266.54C242.113 270.763 240.143 281.406 245.036 289.156C249.93 296.906 260.974 300.522 269.767 301.292C278.279 302.049 294.463 296.876 299.951 295.009C301.904 299.251 303.857 303.492 305.563 307.682C306.659 310.575 307.909 313.28 308.866 316.254C309.822 319.228 310.842 322.053 311.81 324.907C313.478 330.482 315.247 336.219 316.746 341.708C317.765 345.513 318.739 349.154 319.722 352.823C317.58 348.749 313.221 340.87 312.793 340.254C306.461 331.999 298.121 325.504 288.569 321.39C287.902 320.444 287.152 319.559 286.328 318.747C279.757 312.367 268.942 312.066 263.029 319.543C254.809 329.918 261.709 352.8 268.297 362.624C268.686 363.207 273.588 369.025 276.817 372.632C274.631 370.792 272.537 368.971 270.277 367.077C265.818 363.347 261.261 359.746 256.364 355.855L249.063 350.403C246.65 348.536 243.868 346.87 241.24 345.075C235.078 341.042 228.643 337.243 222.097 333.575C225.358 329.661 236.734 315.588 239.144 307.078C241.554 298.568 242.247 287.083 236.612 279.619C230.978 272.156 220.453 270.374 213.463 276.882C203.77 285.899 207.151 309.548 212.153 320.266C212.461 320.929 216.923 328.21 219.442 332.168C215.471 329.988 211.526 327.801 207.491 325.711C195.668 319.732 183.582 314.028 171.507 308.306C167.809 306.55 164.149 304.769 160.471 302.978C161.649 301.595 175.521 285.172 178.235 275.616C180.631 267.109 181.334 255.607 175.69 248.161C170.045 240.715 159.531 238.916 152.55 245.407C142.861 254.437 146.225 278.076 151.226 288.794C151.603 289.599 158.041 300.121 159.802 302.66C151.712 298.735 143.679 294.75 135.929 290.514C125.429 284.824 115.307 278.462 105.624 271.468C106.182 270.822 120.742 253.747 123.51 243.957C125.919 235.447 126.612 223.962 120.978 216.499C115.343 209.035 104.805 207.257 97.8282 213.761C88.1354 222.778 91.5167 246.427 96.5144 257.131C96.9016 257.978 103.832 269.245 105.23 271.194C104.669 270.789 104.047 270.43 103.455 270.019C93.8315 262.739 84.8774 254.613 76.6992 245.738C72.1765 240.9 68.1289 236.036 64.2941 231.204C67.3282 228.3 81.0702 214.879 84.5402 206.348C87.8515 198.151 89.8098 186.81 85.0315 178.78C80.2533 170.751 69.9728 167.807 62.325 173.498C51.6931 181.407 52.4604 205.275 56.3029 216.464C56.4708 217.091 59.2865 222.972 61.3926 227.348C59.6926 225.144 57.8926 222.893 56.3098 220.745C50.3476 212.712 45.3725 204.983 41.0309 198.094C38.59 194.159 36.4558 190.551 34.51 187.155C36.0031 182.75 41.8181 164.921 40.9686 155.911C40.1466 147.113 36.6533 136.137 28.7212 131.219C20.7891 126.301 10.3066 128.44 6.13243 137.014C0.341248 148.931 11.9834 169.78 20.5383 177.952C21.2824 178.658 34.0689 188.399 34.1541 188.171L34.2455 187.913C36.0632 191.211 38.0456 194.743 40.3027 198.538C44.4954 205.525 49.3189 213.397 55.1332 221.587C61.2925 230.498 67.968 239.04 75.1253 247.169C83.1036 256.306 91.879 264.715 101.348 272.294L101.708 272.548C98.0813 271.167 87.812 267.665 87.0013 267.474C75.4546 264.928 51.6571 266.808 44.9922 278.243C40.1897 286.489 44.4051 296.452 52.7258 300.258C61.0464 304.063 72.2855 300.932 80.0541 296.729C88.8025 291.985 101.845 274.806 102.864 273.378C112.689 280.859 123.002 287.674 133.736 293.777C139.969 297.367 146.36 300.784 152.809 304.141C149.598 303.058 146.8 302.098 146.395 302.003C134.848 299.457 111.064 301.334 104.385 312.772C99.5794 321.004 103.798 330.981 112.129 334.769C120.46 338.557 131.679 335.461 139.444 331.244C147.209 327.028 158.719 312.525 161.682 308.646C164.18 309.905 166.641 311.189 169.151 312.49C181.111 318.491 193.067 324.42 204.665 330.591C208.735 332.759 212.665 335.053 216.607 337.342C213.778 336.376 211.404 335.581 211.029 335.491C199.486 332.959 175.685 334.826 169.02 346.26C164.204 354.51 168.433 364.47 176.754 368.275C185.075 372.08 196.314 368.949 204.082 364.746C211.593 360.671 222.241 347.423 225.778 342.849C229.751 345.306 233.723 347.764 237.462 350.328C239.973 352.124 242.511 353.695 244.928 355.634L252.15 361.225C256.623 364.951 261.252 368.767 265.527 372.517C268.51 375.094 271.272 377.612 274.138 380.133C270.114 377.923 262.133 373.749 261.434 373.483C250.406 369.22 226.599 367.463 218.268 377.751C212.276 385.205 214.932 395.675 222.596 400.679C230.259 405.684 241.818 404.294 250.124 401.336C259.281 398.062 274.221 383.662 276.072 381.85C280.649 386.016 285.128 390.092 289.325 394.097Z" fill="#39F8C5" fill-opacity="0.4"/>
</svg>
