<svg width="220" height="279" viewBox="0 0 220 279" fill="none" xmlns="http://www.w3.org/2000/svg">
<g opacity="0.3">
<path d="M197.056 67.2806C196.868 67.2974 196.686 67.3565 196.524 67.4535C196.363 67.5506 196.225 67.683 196.121 67.8409C196.018 67.9988 195.952 68.1781 195.927 68.3653C195.903 68.5524 195.922 68.7427 195.981 68.9217C216.561 128.817 272.33 178.679 341.309 199.018C341.511 199.109 341.727 199.167 341.947 199.189L342.6 196.751C342.429 196.668 342.243 196.618 342.054 196.605C274.162 176.582 219.346 127.536 199.025 68.5896C198.907 68.1722 198.644 67.8108 198.283 67.5708C197.922 67.3307 197.487 67.2278 197.056 67.2806V67.2806Z" fill="#39F8C5" fill-opacity="0.8"/>
<path d="M234.124 166.342C220.733 177.405 245.433 187.93 258.331 181.35C271.312 175.281 281.588 172.564 286.041 173.44C283.088 171.794 280.176 170.086 277.328 168.322C277.18 168.966 247.373 156.266 234.124 166.342Z" fill="#39F8C5" fill-opacity="0.8"/>
<path d="M207.923 139.64C192.337 148.503 214.947 162.18 229.18 157.545C243.345 153.526 254.122 152.312 258.359 153.813C255.75 151.796 253.198 149.744 250.711 147.637C250.447 148.348 223.159 131.806 207.923 139.64Z" fill="#39F8C5" fill-opacity="0.8"/>
<path d="M237.637 90.8034C219.709 96.7439 228.155 123.548 228.865 123.543C230.762 126.029 232.712 128.505 234.725 130.925C233.461 127.167 236.723 118.274 245.966 108.932C254.79 99.3308 254.511 84.6048 237.637 90.8034Z" fill="#39F8C5" fill-opacity="0.8"/>
<path d="M186.882 109.9C169.548 116.268 189.539 132.882 204.655 130.51C219.585 128.65 230.615 129.042 234.533 131.19C232.323 128.865 230.172 126.506 228.084 124.09C227.761 124.566 203.662 104.507 186.882 109.9Z" fill="#39F8C5" fill-opacity="0.8"/>
<path d="M226.111 66.5679C206.97 69.7418 210.256 97.2143 211.015 97.2957C212.44 99.9973 213.917 102.688 215.474 105.352C214.915 101.515 219.893 93.3256 230.986 85.5537C241.615 77.5107 244.163 63.0783 226.111 66.5679Z" fill="#39F8C5" fill-opacity="0.8"/>
<path d="M171.552 77.7109C152.964 81.3746 169.788 100.607 185.369 100.509C200.702 100.881 211.597 102.872 215.226 105.457C213.473 102.887 211.738 100.249 210.152 97.6015C209.736 98.1495 189.409 74.9503 171.552 77.7109Z" fill="#39F8C5" fill-opacity="0.8"/>
<path d="M202.508 81.5615C202.285 81.9411 184.547 60.9253 180.976 47.3683C177.057 34.1087 187.447 29.323 193.937 31.6235C200.426 33.924 202.817 43.1357 202.869 50.9635C202.187 61.1485 202.066 71.3633 202.508 81.5615V81.5615Z" fill="#39F8C5" fill-opacity="0.8"/>
<path d="M203.532 81.9335L203.502 82.0474C203.379 82.2213 203.207 82.3552 203.008 82.4322C202.81 82.5092 202.593 82.5261 202.384 82.4806V82.4806C202.237 82.4648 202.096 82.4125 201.973 82.3286C201.851 82.2446 201.751 82.1316 201.683 81.9996C197.737 78.5004 183.112 59.1733 180.052 47.5359C178.091 41.0033 179.397 35.4926 183.62 32.3997C185.157 31.2977 186.935 30.5771 188.806 30.2972C190.677 30.0174 192.587 30.1862 194.38 30.7899C203.335 33.8241 204.033 47.0753 204.063 51.0637C203.393 58.5761 203.285 79.3032 203.606 81.2939C203.639 81.3998 203.649 81.5113 203.636 81.6214C203.623 81.7315 203.588 81.8377 203.532 81.9335V81.9335ZM181.968 37.7443C180.879 40.8118 180.905 44.1648 182.043 47.2146C184.844 57.9036 196.461 73.055 201.172 78.7126C201.107 76.7662 201.117 73.8141 201.176 68.9462C201.244 62.8597 201.43 54.8756 201.803 50.751C201.74 43.2377 199.583 34.4304 193.632 32.3965C192.188 31.9318 190.654 31.8143 189.156 32.0535C187.658 32.2927 186.237 32.882 185.01 33.7733C183.633 34.7748 182.576 36.1542 181.968 37.7443Z" fill="#39F8C5" fill-opacity="0.8"/>
<path d="M338.883 210.626C232.126 214.717 123.729 170.069 55.4963 93.4493C55.0588 92.9666 54.4692 92.648 53.8256 92.5466C53.182 92.4453 52.5231 92.5671 51.9584 92.892C51.7071 93.0413 51.4935 93.2462 51.3338 93.491C51.1742 93.7357 51.0729 94.0139 51.0376 94.3039C51.0023 94.594 51.0341 94.8883 51.1304 95.1642C51.2267 95.4401 51.385 95.6903 51.5931 95.8954C120.557 173.248 229.818 218.592 337.711 215L338.883 210.626Z" fill="#39F8C5" fill-opacity="0.8"/>
<path d="M202.794 152.038C190.746 175.402 232.127 201.409 233.019 200.721C238.068 202.171 243.164 203.537 248.307 204.817C242.348 201.267 235.02 187.24 233.576 167.294C231.346 147.454 213.342 129.346 202.794 152.038Z" fill="#39F8C5" fill-opacity="0.8"/>
<path d="M171.633 221.121C160.787 244.465 202.121 247.409 215.379 231.011C229.139 215.382 241.448 206.08 248.198 205.13C242.981 204.188 237.792 203.139 232.631 201.984C232.923 202.99 182.979 199.375 171.633 221.121Z" fill="#39F8C5" fill-opacity="0.8"/>
<path d="M161.668 132.276C145.089 153.229 181.257 184.385 182.21 183.834C186.961 185.97 191.771 188.008 196.64 189.947C191.403 185.614 186.901 170.977 189.416 151.383C191.071 131.901 176.78 111.784 161.668 132.276Z" fill="#39F8C5" fill-opacity="0.8"/>
<path d="M116.996 194.832C101.57 215.948 142.291 224.735 158.764 210.737C175.538 197.528 189.604 190.235 196.498 190.3C191.491 188.633 186.543 186.867 181.654 185.004C181.745 186.029 132.605 175.402 116.996 194.832Z" fill="#39F8C5" fill-opacity="0.8"/>
<path d="M124.313 107.103C103.642 125.104 133.838 160.593 134.875 160.187C139.207 162.975 143.611 165.645 148.088 168.196C143.72 163.265 142.094 148.373 148.403 129.747C153.879 111.044 143.327 89.3655 124.313 107.103Z" fill="#39F8C5" fill-opacity="0.8"/>
<path d="M67.3632 161.437C47.8145 179.714 86.9405 194.178 106.136 182.961C125.507 172.548 140.999 167.493 147.854 168.524C143.201 166.203 138.607 163.783 134.073 161.266C133.971 162.191 86.8324 144.823 67.3632 161.437Z" fill="#39F8C5" fill-opacity="0.8"/>
<path d="M91.6009 76.9952C67.3558 91.4746 90.9062 130.531 91.9624 130.325C95.7857 133.645 99.6852 136.863 103.671 140.031C100.244 134.595 101.492 119.912 111.412 102.669C120.571 85.3438 114.123 62.5669 91.6009 76.9952Z" fill="#39F8C5" fill-opacity="0.8"/>
<path d="M23.9294 121.4C0.78078 136.344 37.3021 156.337 58.7683 148.219C80.2486 140.959 96.7596 138.302 103.426 140.308C99.1841 137.364 95.0455 134.31 91.0098 131.145C90.7107 132.261 46.6825 108.205 23.9294 121.4Z" fill="#39F8C5" fill-opacity="0.8"/>
</g>
</svg>
