<svg width="479" height="777" viewBox="0 0 479 777" fill="none" xmlns="http://www.w3.org/2000/svg">
<path d="M800.343 832.14C781.919 835.073 763.953 835.736 747.711 833.865C738.892 832.904 730.257 830.68 722.073 827.261C714.841 824.38 707.251 822.127 699.921 819.936C693.659 818.072 687.189 816.138 680.928 813.818C665.314 808.013 649.992 807.104 629.469 810.34L627.82 810.603C621.921 811.542 617.611 812.228 612.441 815.725C592.321 829.142 570.794 840.322 548.244 849.067C502.802 866.831 459.222 863.643 425.543 840.088C384.126 811.122 365.696 775.574 362.259 751.963C361.514 746.827 360.965 741.422 360.383 735.679C357.616 708.396 354.488 677.47 327.924 665.437C320.837 662.233 313.244 660.022 305.891 657.886C293.7 654.355 281.093 650.693 270.378 642.356C242.899 620.996 233.252 578.184 248.858 546.929L249.393 545.859C258.494 527.631 268.804 506.961 286.348 495.763C287.287 495.147 288.331 494.535 289.323 493.921C291.824 492.465 294.232 490.853 296.532 489.095C304.067 483.055 315.279 469.424 316.719 459.504C317.87 451.621 316.403 443.117 314.992 434.906C312.412 419.874 309.742 404.338 322.207 390.953C329.917 382.689 339.801 376.68 349.362 370.856C362.885 362.62 375.653 354.846 383.236 341.16C386.893 334.546 388.6 326.957 390.254 319.626C392.143 311.22 394.109 302.523 398.989 294.989C414.05 271.718 436.38 253.177 460.239 244.113C476.616 237.9 498.561 239.816 517.871 242.515C537.616 245.269 559.382 241.172 586.358 229.602L586.853 230.756L586.358 229.602C596.895 225.085 607.25 219.881 616.973 214.945C649.131 198.58 690.882 191.778 728.674 196.862C771.067 202.498 805.067 222.012 824.574 251.885C826.215 254.557 827.63 257.362 828.803 260.27C830.065 263.488 831.688 266.554 833.64 269.408C847.888 288.728 871.579 298.026 890.626 303.958C924.114 314.391 946.919 327.571 957.195 361.039C961.172 373.353 963.637 386.105 964.537 399.015C965.481 412.441 961.003 426.275 957.081 435.523C955.98 438.123 954.785 440.655 953.559 443.12C951.339 447.411 949.457 451.869 947.933 456.453C945.457 464.558 941.675 473.057 937.664 482.07C928.906 501.736 919.841 522.083 923.252 540.9C926.085 556.483 935.478 569.932 944.563 582.954C949.505 590.013 954.601 597.327 958.572 604.872C960.658 608.547 963.076 612.023 965.796 615.258C966.565 616.244 967.346 617.239 968.118 618.246C977.231 630.268 979.375 648.033 980.279 663.881C981.196 680.131 978.266 696.33 971.971 709.438C969.358 714.922 966.123 720.277 962.985 725.461C960.513 729.482 958.061 733.624 955.887 737.763L955.118 739.253C951.46 746.251 947.944 752.833 942.227 758.759C933.875 767.291 925.661 775.512 916.934 782.342C914.364 784.28 911.699 786.088 908.948 787.759C906.822 789.134 904.615 790.522 902.553 792.031C891.904 799.821 880.935 805.267 870.626 810.173C848.356 820.782 824.692 828.178 800.343 832.14V832.14ZM629.651 807.772C650.291 804.486 665.925 805.594 681.809 811.471C687.993 813.761 694.43 815.68 700.648 817.53C708.032 819.733 715.668 822.02 723.01 824.935C730.989 828.272 739.409 830.44 748.009 831.371C784.553 835.586 830.007 826.827 869.6 807.963C879.8 803.095 890.645 797.71 901.117 790.052C903.244 788.491 905.487 787.066 907.685 785.691C910.293 784.021 912.997 782.306 915.46 780.38C924.037 773.656 932.188 765.487 940.476 757.016C945.991 751.382 949.363 744.937 952.944 738.107L953.744 736.612C955.958 732.404 958.486 728.218 960.923 724.172C964.029 719.045 967.229 713.737 969.818 708.36C975.9 695.608 978.767 679.865 977.854 664.029C976.969 648.561 974.902 631.209 966.203 619.774C965.441 618.765 964.674 617.789 963.906 616.813C961.096 613.438 958.599 609.815 956.446 605.988C952.55 598.587 947.496 591.338 942.628 584.351C933.385 571.126 923.821 557.444 920.911 541.314C917.36 521.742 926.573 501.03 935.494 481.016C939.467 472.093 943.227 463.648 945.654 455.696C947.206 450.985 949.115 446.399 951.365 441.977C952.545 439.551 953.753 437.037 954.841 434.49C958.598 425.508 963.005 412.069 962.097 399.134C961.214 386.412 958.785 373.845 954.864 361.71C944.912 329.3 922.652 316.479 889.949 306.284C870.53 300.234 846.363 290.743 831.688 270.827C829.642 267.842 827.938 264.637 826.608 261.272C825.489 258.495 824.143 255.815 822.583 253.259C803.502 224.043 770.079 204.894 728.469 199.351C691.171 194.375 649.958 201.04 618.231 217.18C608.481 222.142 598.067 227.365 587.471 231.902C560.037 243.659 537.846 247.823 517.624 245C498.632 242.344 477.082 240.437 461.236 246.463C437.87 255.365 415.977 273.525 401.197 296.347C396.559 303.511 394.65 311.982 392.8 320.174C391.114 327.697 389.36 335.449 385.534 342.37C377.585 356.621 363.914 364.912 350.707 372.985C341.297 378.711 331.565 384.634 324.094 392.643C312.47 405.117 314.952 419.345 317.518 434.483C318.961 442.897 320.466 451.632 319.257 459.878C317.712 470.436 306.013 484.787 298.142 491.066C295.752 492.894 293.246 494.567 290.641 496.075C289.698 496.67 288.685 497.277 287.715 497.898C270.765 508.722 260.599 529.058 251.649 546.993L251.114 548.062C236.01 578.305 245.353 619.724 271.933 640.398C282.269 648.433 294.647 652.028 306.611 655.502C314.039 657.657 321.73 659.894 328.973 663.166C356.846 675.799 360.055 707.489 362.895 735.497C363.471 741.199 364.017 746.584 364.763 751.658C368.118 774.754 386.236 809.584 427.006 838.135C459.983 861.19 502.748 864.279 547.359 846.834C569.724 838.155 591.073 827.062 611.028 813.753C616.646 809.946 621.433 809.194 627.421 808.231L629.637 807.878L629.651 807.772Z" stroke="url(#paint0_linear_1_4835)" stroke-width="2" stroke-miterlimit="10"/>
<path d="M853.148 836.28C846.558 837.329 839.983 838.21 833.44 839.096L824.25 840.341C804.988 843.024 784.24 845.487 763.082 845.309C741.923 845.131 719.377 842.873 692.277 838.239C689.235 837.686 686.163 837.138 683.072 836.594C656.495 831.804 628.993 826.86 604.403 839.557C602.172 840.711 600.011 842.112 597.925 843.46C595.523 845.085 593.024 846.563 590.443 847.886C588.183 848.983 585.842 849.967 583.579 850.918C580.379 852.195 577.251 853.645 574.208 855.261C566.596 859.521 558.718 863.285 551.121 866.92C547.413 868.693 543.687 870.478 539.96 872.326C530.037 877.348 519.418 880.856 508.456 882.733C506.314 883.074 504.161 883.417 501.998 883.761C488.183 886.033 473.89 888.36 459.881 885.178L459.063 884.986C453.597 883.783 447.936 882.465 442.856 879.78C441.599 879.109 440.381 878.422 439.184 877.741C436.094 875.864 432.825 874.301 429.425 873.073C418.06 869.284 407.449 863.526 398.075 856.062C368.105 832.102 361.062 805.829 352.963 775.391C349.805 763.565 346.532 751.333 341.678 738.357C332.401 713.54 320.477 696.308 304.03 684.13C301.037 682.078 297.811 680.389 294.42 679.097C292.453 678.259 290.417 677.38 288.439 676.347C285.861 674.995 283.376 673.514 280.972 672.082C277.372 669.84 273.638 667.82 269.791 666.034C267.507 665.029 265.177 664.062 262.847 663.095C253.018 659.03 242.876 654.817 235.038 647.045C226.877 638.72 220.178 629.077 215.222 618.523C204.421 595.783 205.422 565.358 217.849 539.138C229.655 514.22 251.208 501.322 272.092 488.842C283.88 481.782 286.138 472.401 279.897 456.432C276.886 448.72 275.198 442.799 275.505 435.357C276.829 399.8 298.826 388.843 320.104 378.25C336.149 370.263 352.751 362 361.673 343.316C366.639 332.914 368.757 321.617 370.81 310.683C373.255 297.665 375.775 284.2 383.099 271.877C394.54 252.616 415.063 234.221 439.392 221.38C462.968 208.948 496.64 215.677 523.688 221.087C527.403 221.833 530.978 222.55 534.384 223.179C557.538 227.498 574.991 216.248 593.458 204.34C598.157 201.31 603.036 198.17 607.981 195.319C622.316 187.106 637.727 180.936 653.768 176.988C669.789 172.927 686.325 171.277 702.833 172.091C730.816 173.608 771.837 182.88 795.768 199.631C806.371 207.067 813.905 217.481 821.191 227.581C829.187 238.75 837.557 250.254 849.98 257.463C865.302 266.357 882.714 270.148 899.559 273.823C924.253 279.223 949.702 284.742 968.789 306.412C973.952 312.288 976.481 319.123 978.685 327.564C980.516 334.574 981.991 341.672 983.106 348.831V348.831C989.041 387.608 980.596 417.166 965.046 452.281L964.293 454.06C949.55 487.347 934.305 521.771 946.575 557.58C950.053 567.778 955.691 577.218 960.158 584.315C964.897 591.762 971.869 599.299 979.163 607.293C992.801 622.137 1006.91 637.486 1009.25 654.637C1014.16 690.602 993.817 734.37 974.925 760.925C964.887 774.954 953.038 787.593 939.685 798.511C925.214 810.395 910.107 819.519 894.778 825.619C881.438 831.009 867.297 834.028 853.148 836.28ZM625.566 830.133C644.506 827.118 664.253 830.672 683.52 834.137C686.602 834.684 689.663 835.233 692.705 835.786C719.668 840.4 742.044 842.634 763.11 842.816C784.175 842.998 804.74 840.554 823.909 837.876L833.11 836.629C853.493 833.892 874.577 831.065 893.902 823.374C909.934 816.785 924.855 807.765 938.143 796.631C951.326 785.853 963.023 773.374 972.93 759.521C991.56 733.34 1011.64 690.255 1006.81 655.035C1004.58 638.656 990.744 623.605 977.369 609.041C969.96 600.972 962.953 593.346 958.112 585.719C953.523 578.507 947.786 568.896 944.227 558.451C931.672 521.703 947.116 486.832 962.047 453.101L962.8 451.322C978.164 416.599 986.512 387.41 980.675 349.249C979.574 342.175 978.111 335.161 976.294 328.235C974.185 320.131 971.789 313.607 966.944 308.105C948.401 287.054 924.419 281.83 899.063 276.307C882.027 272.601 864.42 268.757 848.746 259.671C835.856 252.194 827.375 240.449 819.178 229.125C812.015 219.212 804.569 208.961 794.346 201.765C770.821 185.291 730.364 176.169 702.726 174.669C686.461 173.869 670.169 175.498 654.386 179.502C638.57 183.395 623.375 189.479 609.242 197.576C604.359 200.427 599.513 203.511 594.832 206.526C576.761 218.185 558.077 230.232 533.94 225.728C530.522 225.09 526.935 224.365 523.243 223.626C496.579 218.29 463.397 211.648 440.607 223.675C416.709 236.292 396.508 254.366 385.283 273.23C378.179 285.175 375.696 298.417 373.291 311.232C371.211 322.315 369.067 333.782 363.951 344.478C354.614 363.943 337.67 372.395 321.241 380.578C299.669 391.27 279.301 401.46 278.03 435.526C277.762 442.505 279.387 448.156 282.26 455.589C286.983 467.684 289.629 481.374 273.399 491.061C252.846 503.343 231.605 516.056 220.096 540.294C207.988 565.852 206.979 595.449 217.467 617.523C222.3 627.817 228.832 637.223 236.788 645.345C244.26 652.772 254.168 656.877 263.785 660.852C266.137 661.825 268.479 662.8 270.785 663.812C274.726 665.639 278.55 667.707 282.237 670.004C284.608 671.42 287.069 672.885 289.58 674.206C291.467 675.191 293.458 676.046 295.392 676.868C298.961 678.238 302.356 680.026 305.504 682.195C322.29 694.682 334.51 712.271 343.966 737.558C348.869 750.65 352.152 762.943 355.319 774.829C363.329 804.836 370.251 830.744 399.579 854.184C408.733 861.47 419.098 867.085 430.199 870.773C433.751 872.062 437.167 873.699 440.397 875.661C441.54 876.329 442.777 877.003 444.01 877.657C448.797 880.192 454.29 881.433 459.602 882.64L460.42 882.832C473.949 885.862 487.987 883.627 501.578 881.381L508.056 880.35C518.773 878.56 529.149 875.128 538.82 870.175C542.567 868.324 546.293 866.538 550.011 864.764C557.579 861.143 565.418 857.397 572.963 853.168C576.093 851.498 579.316 850.005 582.614 848.697C584.848 847.761 587.15 846.793 589.394 845.721C591.88 844.442 594.291 843.019 596.612 841.461C598.773 840.01 601.004 838.669 603.299 837.441C610.281 833.826 617.8 831.358 625.566 830.133V830.133Z" stroke="url(#paint1_linear_1_4835)" stroke-width="2" stroke-miterlimit="10"/>
<path d="M866.613 859.229C849.764 861.911 832.543 862.321 815.828 862.723L807.416 862.932C796.067 863.257 786.623 863.237 776.596 860.077C766.382 856.853 756.943 856.148 746.537 855.618C689.535 852.671 634.269 851.904 584.763 874.5C577.528 877.808 570.363 881.695 563.508 885.439C552.862 891.279 541.841 897.241 530.102 901.296C517.459 905.661 504.086 907.976 491.167 910.219C483.01 911.642 474.578 913.099 466.453 915.055C414.403 927.59 368.545 884.236 346.123 835.7C342.108 827.013 340.84 817.484 339.611 808.27L339.276 805.774C337.252 790.842 333.54 769.743 327.222 754.075C323.802 745.614 318.716 737.812 314.177 731.374C303.519 716.179 285.761 710.218 268.59 704.433C256.25 700.283 243.483 695.994 233.282 688.291C230.939 686.592 228.697 684.876 226.445 683.162C200.389 663.817 179.82 648.531 178.297 611.623C177.313 587.799 179.426 554.591 195.043 531.67C205.353 516.556 217.361 501.629 235.279 494.921C237.335 494.21 239.448 493.673 241.594 493.315C243.839 492.956 246.041 492.362 248.162 491.544C264.226 484.583 259.007 471.848 253.48 458.355C250.895 452.072 248.426 446.133 248.148 440.675C247.151 423.216 250.832 411.448 260.429 401.164C269.222 391.754 282.061 382.829 298.597 374.663C307.446 370.29 315.698 366.209 322.975 359.642C330.208 353.244 336.604 345.958 342.012 337.958C350.405 324.994 351.705 310.507 353.095 295.28C353.639 287.715 354.646 280.19 356.109 272.748C360.231 253.656 370.746 236.313 387.356 221.192C420.026 191.473 456.37 198.236 494.862 205.477L500.663 206.564C503.182 207.023 505.675 207.518 508.145 207.995C527.526 211.78 545.827 215.354 564.476 206.468C573.142 202.311 580.85 196.048 588.259 189.987C595.668 183.927 603.5 177.53 612.452 173.224C636 161.91 662.099 156.916 687.343 152.089L694.674 150.684C745.114 140.923 779.689 150.508 810.247 182.774C822.626 196.046 834.111 210.125 844.626 224.919C851.289 234.221 861.714 238.385 871.056 241.209C882.492 244.695 893.739 246.987 904.58 249.21C924.466 253.298 943.251 257.116 962.589 267.593C965.084 268.947 967.61 270.234 970.147 271.519C975.345 274.051 980.398 276.869 985.284 279.959C1003.78 291.999 1013.62 315.325 1013.9 347.386C1014.22 382.496 1003.47 413.741 1000.21 422.551C998.463 427.192 996.399 431.997 993.509 438.126C990.877 443.726 987.931 449.377 984.87 455.471C974.533 475.624 962.812 498.475 961.589 519.956C960.67 536.185 968.404 551.182 975.064 560.92C983.493 573.247 995.042 585.513 1008.46 596.382C1012.99 600.044 1018.14 604.562 1022.07 610.237C1036.72 631.666 1041.3 666.659 1038.18 688.701C1033.87 719.004 1025.76 742.368 1012.67 762.193L1010.27 765.829C1001.35 779.468 992.112 793.591 978.932 802.85C975.428 805.315 971.713 807.502 968.133 809.616C964.163 811.958 960.07 814.371 956.303 817.137C940.032 829.097 922.634 839.443 904.356 848.029C894.19 852.782 883.451 856.198 872.407 858.193C870.439 858.589 868.523 858.925 866.613 859.229ZM640.204 855.664C674.317 850.234 710.135 851.226 746.666 853.11C756.854 853.634 766.87 854.381 777.355 857.686C787.011 860.73 796.257 860.74 807.35 860.435C810.155 860.351 812.964 860.287 815.773 860.224C834.283 859.775 853.417 859.34 871.864 855.761C882.696 853.807 893.23 850.462 903.205 845.808C921.339 837.281 938.603 827.016 954.754 815.155C958.634 812.399 962.651 809.84 966.789 807.488C970.332 805.401 973.998 803.232 977.419 800.832C990.205 791.833 999.308 777.927 1008.11 764.484L1010.51 760.838C1023.39 741.305 1031.37 718.262 1035.62 688.341C1038.68 666.765 1034.23 632.602 1019.92 611.647C1016.22 606.226 1011.24 601.867 1006.85 598.307C993.252 587.29 981.53 574.845 972.954 562.313C963.095 547.903 958.287 533.197 959.056 519.799C960.316 497.836 972.156 474.687 982.613 454.317C985.705 448.28 988.623 442.593 991.262 437.033C994.13 430.96 996.171 426.209 997.888 421.625C1004.6 403.811 1011.68 374.951 1011.44 347.393C1011.26 325.66 1006.34 296.66 983.968 282.044C979.136 279.012 974.143 276.243 969.01 273.752C966.462 272.458 963.904 271.166 961.383 269.784C942.386 259.492 923.779 255.687 904.078 251.652C893.162 249.421 881.872 247.115 870.32 243.554C860.616 240.602 849.735 236.241 842.622 226.326C832.161 211.643 820.734 197.672 808.418 184.505C778.52 152.932 744.622 143.561 695.139 153.149L687.807 154.554C662.725 159.355 636.787 164.313 613.528 175.488C604.864 179.655 597.215 185.898 589.833 191.934C582.314 198.084 574.538 204.441 565.56 208.72C546.169 218.025 527.464 214.319 507.666 210.455C505.196 209.977 502.704 209.493 500.185 209.034L494.375 207.948C456.588 200.844 420.786 194.16 389.08 223.042C372.859 237.801 362.606 254.708 358.586 273.266C357.156 280.634 356.175 288.081 355.648 295.568C354.291 310.479 352.892 325.904 344.165 339.377C338.644 347.572 332.109 355.036 324.715 361.593C317.177 368.399 308.779 372.544 299.883 376.945C283.501 385.035 270.902 393.776 262.322 402.966C253.229 412.704 249.757 423.962 250.7 440.631C250.983 445.664 253.339 451.413 255.842 457.502C261.316 470.859 267.531 486.005 249.206 493.938C246.919 494.834 244.541 495.481 242.114 495.865C240.107 496.203 238.132 496.705 236.207 497.365C218.945 503.833 207.232 518.402 197.158 533.177C181.928 555.53 179.879 588.168 180.846 611.621C182.314 647.336 202.468 662.294 227.983 681.238C230.235 682.952 232.528 684.66 234.831 686.366C244.709 693.799 257.268 698.017 269.46 702.087C286.982 707.992 305.166 714.02 316.301 729.937C320.937 736.536 326.135 744.445 329.623 753.143C336.012 769.059 339.789 790.376 341.836 805.449L342.171 807.945C343.371 816.977 344.618 826.313 348.497 834.659C370.49 882.258 415.367 924.794 465.954 912.637C474.158 910.658 482.639 909.183 490.828 907.766C503.656 905.537 516.927 903.227 529.384 898.933C540.917 894.952 551.835 888.997 562.402 883.242C569.336 879.475 576.497 875.568 583.811 872.227C601.769 864.171 620.742 858.599 640.204 855.664Z" stroke="url(#paint2_linear_1_4835)" stroke-width="2" stroke-miterlimit="10"/>
<path d="M874.455 890.601C873.1 890.817 871.734 891.034 870.316 891.115C866.416 891.435 862.478 891.782 858.532 892.141C833.991 894.338 808.724 896.6 784.412 892.617C774.826 891.034 765.293 888.677 756.061 886.386C740.287 882.484 723.983 878.439 707.332 878.344C686.459 878.237 665.719 882.813 645.652 887.251C639.972 888.508 634.301 889.763 628.605 890.918C604.824 895.74 583.85 905.885 563.57 915.693C547.872 923.279 531.637 931.136 514.006 936.606C502.978 940.04 491.162 941.776 479.731 943.461C477.243 943.857 474.765 944.189 472.306 944.57C443.53 949.027 404.978 946.731 383.056 926.941C380.972 925.055 378.837 923.178 376.713 921.299C368.44 914.027 359.838 906.508 353.038 897.665C341.603 882.909 333.729 868.756 329.618 855.507C324.874 840.235 322.823 823.767 320.837 807.838C320.057 801.57 319.253 795.088 318.293 788.859C314.939 766.942 307.774 749.755 297.021 737.781C287.304 726.968 277.935 724.927 267.082 722.552C261.092 721.388 255.216 719.702 249.52 717.515C246.206 716.081 242.995 714.418 239.913 712.538C237.623 711.183 235.171 709.791 232.75 708.653C229.133 707.077 225.395 705.794 221.571 704.818C218.383 703.967 215.243 702.945 212.165 701.757C163.841 682.119 140.158 618.433 145.937 570.694C147.123 560.881 150.518 552.238 154.111 543.078L154.42 542.283C163.91 518.051 184.942 509.451 207.205 500.302L212.14 498.273C233.92 489.221 230.797 468.428 227.771 448.313C227.11 444.16 226.565 440.217 226.183 436.382C223.288 406.798 234.055 386.871 259.093 375.415C262.399 373.904 265.679 372.357 268.949 370.81C276.781 367.108 284.885 363.29 293.165 360.055C309.072 353.855 319.496 348.062 328.979 335.187C341.815 317.769 343.416 304.108 342.029 281.847C341.702 276.47 340.912 270.794 340.082 264.793C337.386 245.382 334.33 223.386 347.579 207.653C379.303 169.854 432.379 170.481 475.068 175.247L476.303 175.382C523.712 180.671 555.018 184.162 594.134 152.863C609.772 140.345 628.675 133.223 648.309 126.45C702.573 107.7 756.173 110.315 795.313 133.508C811.346 143.015 822.69 157.724 833.677 171.95C845.643 187.44 858.004 203.458 876.303 212.346C889.937 218.961 909.046 223.886 928.754 225.856C933.258 226.172 937.783 226.008 942.252 225.365C944.903 225.078 947.645 224.776 950.511 224.672C972.923 223.891 996.472 232.398 1013.51 247.423C1031.3 263.115 1044.8 285.955 1049.63 308.581L1050.73 313.586C1052.59 322.106 1054.21 330.427 1053.5 338.33C1051.26 363.304 1044.37 399.512 1023.98 430.254C1020.53 435.455 1016.9 440.706 1013.36 445.744C1000.63 464.026 987.466 482.937 980.549 504.572C978.762 510.151 976.33 518.526 975.79 526.796C975.322 534.538 977.832 539.619 981.374 545.975C982.499 547.962 983.464 549.984 984.396 551.928C986.455 556.2 988.405 560.241 991.683 563.76C994.474 566.766 997.665 568.765 1001.11 570.868C1004.06 572.579 1006.85 574.564 1009.43 576.797C1014.96 581.842 1021.95 585.661 1029.33 589.707C1042.47 596.878 1056.06 604.308 1060.91 619.221C1077.47 670.035 1057.66 719.831 1036.11 761.834C1034.97 764.086 1033.89 766.331 1032.79 768.495C1028.84 776.583 1024.75 784.943 1018.57 792.08C1008.92 803.262 997.972 813.044 987.325 822.52C977.507 831.335 967.347 840.35 958.353 850.432C956.979 851.967 955.645 853.557 954.312 855.147C950.544 859.622 946.646 864.262 941.817 867.87C936.988 871.477 931.284 873.888 925.789 876.182C923.776 877.02 921.773 877.857 919.82 878.748C912.737 881.948 906.507 883.271 899.296 884.75L895.502 885.541C892.493 886.186 889.591 886.979 886.757 887.741C882.711 888.916 878.604 889.87 874.455 890.601V890.601ZM677.02 878.424C687.043 876.739 697.186 875.876 707.349 875.844C724.29 875.934 740.755 880.016 756.67 883.958C765.859 886.235 775.349 888.589 784.816 890.138C808.82 894.077 833.974 891.823 858.31 889.638L870.114 888.609C875.538 888.014 880.894 886.915 886.113 885.326C888.976 884.549 891.949 883.744 894.988 883.095L898.803 882.301C905.832 880.851 911.968 879.594 918.783 876.468C920.714 875.57 922.798 874.72 924.84 873.867C930.179 871.639 935.713 869.328 940.317 865.871C944.921 862.413 948.684 857.908 952.373 853.591C953.724 851.977 955.076 850.374 956.454 848.797C965.536 838.618 975.742 829.502 985.623 820.688C996.185 811.267 1007.1 801.521 1016.71 790.418C1022.66 783.523 1026.51 775.68 1030.57 767.367C1031.66 765.121 1032.76 762.875 1033.9 760.672C1055.22 719.12 1074.82 669.917 1058.56 619.99C1054.01 606.023 1040.87 598.843 1028.16 591.894C1020.96 587.964 1013.51 583.865 1007.75 578.638C1005.29 576.517 1002.63 574.636 999.816 573.022C996.163 570.983 992.81 568.449 989.853 565.491C986.313 561.693 984.191 557.286 982.135 553.034C981.216 551.108 980.267 549.187 979.188 547.225C975.528 540.721 972.772 535.068 973.281 526.667C973.79 518.267 976.289 509.539 978.118 503.83C985.156 481.844 998.435 462.78 1011.27 444.336C1014.78 439.291 1018.42 434.07 1021.85 428.904C1041.92 398.596 1048.77 362.808 1050.96 338.134C1051.64 330.577 1050.06 322.478 1048.23 314.149L1047.87 312.486L1047.15 309.162C1042.43 287.069 1029.21 264.711 1011.81 249.361C995.49 234.958 972.019 226.48 950.566 227.232C947.792 227.332 945.091 227.628 942.491 227.907C937.849 228.572 933.15 228.736 928.474 228.398C908.452 226.405 889.06 221.4 875.166 214.65C856.349 205.504 843.796 189.257 831.658 173.536C820.815 159.493 809.606 144.981 794.007 135.726C755.487 112.849 702.667 110.379 649.089 128.875C629.683 135.58 610.993 142.606 595.676 154.866C555.775 186.767 524.041 183.199 476.025 177.871L474.79 177.736C394.704 168.811 365.747 189.853 349.492 209.183C336.913 224.105 339.789 244.647 342.531 264.413C343.385 270.494 344.166 276.181 344.509 281.659C345.931 304.536 344.271 318.601 330.976 336.651C321.125 350.02 310.4 356.006 294.052 362.37C285.819 365.576 277.766 369.386 269.971 373.062C266.693 374.619 263.404 376.179 260.086 377.681C236.141 388.642 225.857 407.757 228.631 436.127C228.994 439.903 229.583 443.798 230.199 447.927C233.22 468.011 236.637 490.778 213.046 500.574L208.1 502.604C186.348 511.506 165.81 519.956 156.696 543.163L156.387 543.958C152.853 552.965 149.518 561.463 148.365 570.96C141.087 631.111 176.275 684.46 213.056 699.408C216.048 700.56 219.1 701.551 222.199 702.376C226.164 703.395 230.038 704.74 233.781 706.397C236.292 707.582 238.759 709.002 241.139 710.405C244.117 712.227 247.219 713.838 250.422 715.227C256.024 717.359 261.803 718.998 267.691 720.123C278.501 722.485 288.708 724.714 298.967 736.124C310.044 748.441 317.402 766.063 320.845 788.474C321.842 794.738 322.619 801.245 323.401 807.524C325.369 823.341 327.404 839.708 332.082 854.763C336.106 867.725 343.85 881.65 355.095 896.125C361.801 904.765 370.257 912.215 378.436 919.419C380.582 921.305 382.716 923.182 384.812 925.076C406.08 944.276 443.795 946.457 471.994 942.092C474.452 941.701 476.93 941.306 479.44 940.979C490.78 939.309 502.495 937.589 513.335 934.216C530.766 928.789 546.916 920.986 562.527 913.445C582.953 903.573 604.072 893.363 628.156 888.493C633.823 887.342 639.483 886.089 645.143 884.835C655.617 882.484 666.268 880.136 677.05 878.419L677.02 878.424Z" stroke="url(#paint3_linear_1_4835)" stroke-width="2" stroke-miterlimit="10"/>
<path d="M897.15 911.244C887.56 912.771 877.241 912.455 867.243 912.139C865.588 912.092 863.952 912.031 862.34 911.997C835.799 911.32 807.393 909.799 779.387 903.365C765.782 900.245 753.486 897.725 740.738 898.552C731.189 899.17 721.608 899.13 712.351 899.101C693.395 899.01 675.491 898.958 657.072 903.932L649.737 905.887C644.088 907.377 638.251 908.918 632.594 910.616C615.512 915.72 598.714 924.239 582.482 932.472C575.243 936.143 567.755 939.936 560.378 943.329C556.403 945.271 552.541 947.436 548.81 949.813C543.967 952.782 538.954 955.85 533.518 957.896L533.037 958.066C523.405 961.672 513.479 965.388 502.737 965.408C495.436 965.597 488.154 966.244 480.933 967.345C468.166 969.025 454.96 970.755 442.467 967.457C435.729 965.68 428.941 964.242 422.378 962.851C398.787 957.859 376.505 953.146 358.084 933.701C335.535 909.929 322.536 885.165 315.928 853.351C315.194 849.851 314.357 846.346 313.53 842.912C312.224 837.441 310.869 831.79 309.963 826.099C309.428 822.743 308.983 819.363 308.545 815.96C307.819 809.306 306.702 802.701 305.2 796.179C302.251 784.491 297.16 777.766 291.26 769.927C287.962 765.704 284.908 761.297 282.112 756.728C278.918 751.37 277.385 749.489 271.446 747.854C243.513 740.122 221.014 732.811 200.647 724.829C183.993 718.369 167.429 704.143 157.497 693.049C154.264 689.293 151.249 685.354 148.469 681.251C146.481 678.458 144.445 675.496 142.237 672.759C140.939 671.111 139.646 669.503 138.357 667.915C131.297 659.296 124.623 651.155 120.827 639.809C110.107 607.748 114.863 566.736 132.958 535.322C137.424 527.574 144.219 522.875 150.792 518.729C156.597 515.257 162.629 512.177 168.846 509.512C180.247 504.319 192.033 498.949 199.886 488.786C209.079 476.885 207.075 463.451 204.987 449.232C204.427 445.714 203.91 442.075 203.559 438.504C201.939 421.816 199.865 401.044 210.379 386.311C219.96 372.68 239.727 367.191 257.12 362.349C262.976 360.733 268.504 359.2 273.325 357.458C275.283 356.742 277.439 356.161 279.496 355.605C283.15 354.609 286.914 353.585 289.972 351.771C320.73 333.567 317.119 297.867 313.267 259.934C310.528 232.905 307.696 204.957 318.593 183.976C322.343 176.808 329.842 169.499 335.635 165.467C339.644 162.663 344.384 161.131 348.967 159.655L350.573 159.13C376.175 150.722 407.918 147.172 447.535 148.296C453.381 148.596 459.201 149.294 464.954 150.384C467.38 150.786 469.796 151.189 472.203 151.531C522.235 158.595 573.437 147.158 609.158 120.95C611.441 119.281 613.678 117.453 615.841 115.678C619.606 112.45 623.61 109.512 627.819 106.89C643.733 97.5054 667.349 94.4508 686.315 92.0016L691.653 91.2969C701.405 90.0036 711.212 89.8415 720.699 89.6787C726.475 89.578 732.448 89.477 738.349 89.118L739.899 89.0267C746.435 88.6186 752.612 88.2364 759.342 89.7042C779.734 94.1277 798.209 102.266 813.64 109.635C832.357 118.575 841.244 132.479 851.524 148.565C852.894 150.658 854.271 152.802 855.653 154.976C877.024 187.746 915.865 195.389 953.414 202.792C971.599 206.375 990.425 210.074 1006.68 216.627C1033.08 227.267 1055.39 253.316 1072.99 294.075C1073.69 295.685 1074.33 297.31 1074.94 298.947C1086.25 329.577 1085.28 371.21 1072.6 400.186C1069.85 406.177 1066.75 412.004 1063.32 417.636C1061.36 420.983 1059.33 424.437 1057.51 427.888C1055.98 430.775 1054.54 433.751 1053.15 436.635C1050.59 442.273 1047.65 447.733 1044.36 452.981C1042.06 456.462 1039.76 459.938 1037.45 463.409C1027.58 478.298 1017.4 493.693 1008.06 509.316C1002.68 518.34 998.778 526.03 1001.34 535.903C1006.61 555.939 1024.32 565.681 1041.49 575.115C1050.55 580.141 1059.96 585.317 1067.42 591.965C1091 613.086 1097.14 645.461 1086.17 690.935C1085.48 693.812 1084.82 696.695 1084.16 699.547C1082.1 708.56 1079.97 717.885 1076.79 726.786C1075.49 730.154 1073.83 733.37 1071.82 736.376C1070.88 737.916 1069.91 739.469 1069.02 741.145C1068.16 742.8 1067.4 744.5 1066.72 746.237C1065.77 748.731 1064.6 751.131 1063.21 753.408C1056 764.413 1049.52 776.14 1043.27 787.489C1035.03 802.409 1026.52 817.83 1016.22 831.864C997.492 857.399 970.216 880.418 939.496 896.647C927.086 903.104 913.842 907.814 900.142 910.643C899.139 910.917 898.14 911.087 897.15 911.244ZM669.281 898.806C683.783 896.498 698.258 896.557 712.369 896.611C721.596 896.645 731.133 896.733 740.581 896.069C753.657 895.22 766.673 897.895 779.955 900.943C807.746 907.328 836.014 908.829 862.41 909.509L867.335 909.658C878.238 909.995 889.544 910.33 899.631 908.279C913.097 905.486 926.114 900.854 938.317 894.513C968.741 878.445 995.699 855.705 1014.23 830.461C1024.45 816.552 1032.9 801.205 1041.1 786.353C1047.38 774.988 1053.88 763.196 1061.12 752.072C1062.43 749.933 1063.54 747.675 1064.42 745.328C1065.13 743.509 1065.94 741.731 1066.84 740C1067.76 738.277 1068.76 736.667 1069.72 735.106C1071.64 732.251 1073.24 729.191 1074.48 725.983C1077.59 717.197 1079.71 707.977 1081.75 699.028C1082.41 696.135 1083.07 693.242 1083.77 690.353C1094.5 645.861 1088.61 614.285 1065.8 593.841C1058.55 587.366 1049.25 582.245 1040.23 577.306C1022.61 567.674 1004.37 557.633 998.877 536.545C996.056 525.727 1000.18 517.578 1005.86 508.039C1015.2 492.374 1025.43 476.941 1035.31 462.028L1042.21 451.602C1045.45 446.446 1048.35 441.079 1050.87 435.536C1052.27 432.64 1053.72 429.632 1055.27 426.711C1057.13 423.212 1059.17 419.727 1061.14 416.366C1064.53 410.808 1067.61 405.058 1070.34 399.147C1082.79 370.715 1083.73 329.865 1072.63 299.792C1072.04 298.196 1071.41 296.618 1070.73 295.046C1053.4 254.929 1031.55 229.314 1005.77 218.938C989.74 212.473 971.001 208.802 952.964 205.237C914.882 197.743 875.506 189.988 853.569 156.334C852.185 154.15 850.808 152.006 849.437 149.903C839.363 134.136 830.666 120.512 812.6 111.884C797.293 104.578 778.943 96.5131 758.838 92.1371C752.4 90.7472 746.438 91.1158 740.088 91.5152L738.538 91.6065C732.585 91.9634 726.591 92.0676 720.783 92.1631C711.369 92.3247 701.634 92.4856 692.025 93.7665L686.675 94.4627C667.923 96.8883 644.602 99.9063 629.123 109.025C625.027 111.59 621.13 114.459 617.464 117.607C615.272 119.397 613.008 121.25 610.679 122.957C574.4 149.565 522.52 161.161 471.857 154.043C469.43 153.703 466.992 153.294 464.544 152.885C458.905 151.82 453.201 151.132 447.471 150.825C408.131 149.677 376.712 153.186 351.355 161.503L349.737 162.082C345.332 163.509 340.779 164.98 337.068 167.571C331.715 171.305 324.348 178.406 320.827 185.185C310.283 205.52 313.071 233.06 315.773 259.732C319.518 296.728 323.403 334.997 291.263 354.022C287.921 356.005 283.978 357.079 280.164 358.111C278.068 358.683 276.073 359.229 274.232 359.905C269.34 361.72 263.746 363.222 257.841 364.857C240.85 369.562 221.575 374.89 212.367 387.798C202.414 401.82 204.406 422.014 206.011 438.279C206.354 441.8 206.894 445.394 207.419 448.886C209.521 462.999 211.71 477.596 201.863 490.337C193.62 500.977 181.557 506.494 169.876 511.815C163.764 514.429 157.833 517.45 152.126 520.859C145.74 524.809 139.257 529.324 135.071 536.551C117.324 567.36 112.639 607.573 123.141 638.985C126.797 649.907 133.329 657.874 140.238 666.32C141.529 667.918 142.822 669.536 144.193 671.183C146.414 673.939 148.497 676.935 150.516 679.785C153.238 683.819 156.194 687.692 159.367 691.383C169.109 702.269 185.315 716.2 201.635 722.578C221.926 730.531 244.337 737.815 272.198 745.547C278.929 747.409 280.974 749.902 284.34 755.554C287.093 760.047 290.1 764.378 293.347 768.527C299.153 776.226 304.632 783.5 307.71 795.675C309.236 802.294 310.372 808.997 311.113 815.749C311.544 819.11 311.976 822.472 312.517 825.806C313.408 831.406 314.746 837.008 316.044 842.429C316.89 845.922 317.726 849.417 318.454 852.949C324.957 884.23 337.761 908.621 359.976 932.043C377.855 950.889 399.763 955.527 422.968 960.436C429.562 961.832 436.382 963.275 443.174 965.065C455.192 968.241 468.143 966.542 480.679 964.898C488.002 963.769 495.391 963.112 502.799 962.932C513.058 962.936 522.366 959.444 532.233 955.748L532.704 955.58C537.945 953.616 542.856 950.616 547.604 947.704C551.417 945.274 555.365 943.064 559.43 941.085C566.707 937.719 574.176 933.929 581.396 930.271C597.692 921.987 614.627 913.414 631.927 908.246C637.614 906.542 643.471 904.998 649.138 903.495L656.465 901.551C660.678 900.405 664.948 899.483 669.258 898.789L669.281 898.806Z" stroke="url(#paint4_linear_1_4835)" stroke-width="2" stroke-miterlimit="10"/>
<path d="M881.862 946.298C877.687 946.962 873.532 947.303 869.247 947.664L863.787 948.139C849.085 949.558 831.435 947.168 815.871 945.057L808.665 944.133C802.045 943.139 795.488 941.762 789.028 940.009C786.582 939.362 784.146 938.776 781.702 938.202C727.375 925.514 686.257 925.348 644.218 937.695C633.444 940.86 623.8 945.399 613.608 950.202L612.238 950.844C600.619 956.319 583.316 963.994 567.199 967.46C563.482 968.27 559.779 969.035 556.096 969.798C538.293 973.481 521.483 976.955 504.657 983.911L499.057 986.242C488.631 990.616 478.775 994.733 467.802 997.691C433.466 1006.92 403.723 1003.9 368.334 987.632C353.693 980.899 336.861 962.946 328.451 949.443C320.366 936.488 314.124 920.982 309.899 903.363C307.721 894.305 306.347 884.891 305.024 875.8C304.463 872.275 303.989 868.715 303.434 865.23L302.907 861.916C298.766 835.904 294.072 806.418 275.563 786.847C273.113 784.407 270.482 782.156 267.691 780.114C265.144 778.231 262.712 776.197 260.408 774.023C252.238 766.002 237.087 764.27 223.665 762.72C217.809 762.172 211.994 761.25 206.256 759.96C199.775 758.32 193.353 756.587 186.919 754.856L176.094 751.97C164.836 749.039 156.601 744.974 149.4 738.808C145.702 735.637 141.828 732.525 137.733 729.272C124.393 718.469 110.546 707.343 101.842 693.431C99.3967 689.532 96.6136 685.594 93.9153 681.797C88.0874 673.579 82.0532 665.042 78.5348 655.638C76.5778 650.377 75.8183 644.76 75.0793 639.336C74.822 637.72 74.6456 636.091 74.3883 634.474C72.9973 625.736 72.3203 618.293 73.306 610.42C77.6361 575.499 88.1611 551.948 108.504 531.661C115.405 524.803 122.921 518.428 130.174 512.219C143.74 500.737 157.748 488.781 167.913 473.387C172.085 467.037 174.526 461.791 173.561 455.274C173.191 452.951 172.82 450.617 172.45 448.294C172.18 446.597 171.909 444.9 171.646 443.243C171.083 439.707 170.52 436.172 169.959 432.646C168.767 425.161 167.574 417.665 166.382 410.18C163.82 395.124 166.138 382.139 173.268 371.579C180.627 360.702 191.192 353.551 201.369 347.156C209.521 342.037 218.328 339.34 226.857 336.719C231.927 335.166 237.175 333.554 242.272 331.448C244.811 330.478 247.441 329.765 250.122 329.317C251.588 329.022 253.056 328.736 254.537 328.335C259.136 327.075 266.033 322.413 269.501 318.868C286.359 301.756 285.55 279.937 282.171 258.91L281.927 257.375C279.257 240.606 276.425 223.273 279.453 206.281C280.141 202.401 281.005 198.452 281.838 194.632C282.312 192.485 282.775 190.34 283.229 188.196C283.442 187.126 283.625 186.061 283.77 185.085C284.551 180.745 285.289 176.651 288.288 172.507C292.104 167.436 296.42 162.762 301.171 158.555C305.636 154.465 310.558 150.901 315.838 147.934C322.858 143.781 329.857 141.383 337.269 138.846C339.235 138.171 341.29 137.471 343.33 136.742C364.535 129.099 389.191 130.891 410.932 132.474L411.383 132.506C412.903 132.616 414.394 132.669 415.875 132.723C419.989 132.717 424.088 133.234 428.072 134.262C432.516 135.702 437.097 136.68 441.743 137.181C443.514 137.411 445.262 137.787 446.97 138.307C449.095 139.013 451.319 139.376 453.558 139.382C459.409 138.945 465.203 137.929 470.853 136.349C491.446 130.657 513.226 127.532 534.272 124.492C539.338 123.758 544.467 123.025 549.528 122.26C562.552 120.27 575.887 115.278 591.275 106.52C599.052 102.103 604.359 96.3068 609.49 90.7047C617.439 82.0336 624.937 73.8486 640.537 70.8473C646.439 69.7005 652.429 68.3845 658.206 67.1023C663.983 65.8201 670.073 64.4881 676.048 63.3401C711.477 56.5505 743.827 56.5379 771.987 63.4072C797.923 69.7291 812.026 82.5856 828.318 97.4758C834.136 102.764 840.155 108.28 847.103 113.833C849.225 115.567 851.255 117.316 853.285 119.064C857.436 122.885 861.919 126.331 866.679 129.361C874.596 134.098 882.102 139.573 889.364 144.88C893.796 148.111 898.371 151.453 902.985 154.582C915.765 163.236 930.477 167.42 944.722 171.47C953.331 173.755 961.811 176.503 970.123 179.7C972.162 180.526 974.11 181.365 976.022 182.179C982.822 185.105 989.252 187.862 997.178 188.941C999.913 189.324 1002.59 189.644 1005.21 189.962C1018.68 191.599 1031.4 193.146 1044.19 200.898C1058.42 209.509 1068.48 219.922 1079.14 230.944C1082.86 234.785 1086.69 238.764 1090.81 242.749C1103.64 255.206 1110.8 272.431 1116.11 287.619C1119.35 296.892 1120.77 306.018 1122.27 315.64L1122.34 316.044C1122.77 318.792 1123.27 321.54 1123.77 324.288C1125.43 333.346 1127.16 342.663 1126.12 352.026C1122.55 383.522 1113.48 413.003 1099.92 437.285C1080.57 471.988 1061.26 494.348 1037.41 509.777C1028.82 515.287 1024.58 521.41 1024.8 527.869C1025.42 545.834 1058.99 564.417 1081.21 576.717C1089.71 581.423 1096.42 585.14 1099.64 587.859C1107.06 594.094 1112.47 602.388 1117.74 610.416L1118.97 612.291C1134.75 636.378 1125.28 674.645 1117.68 705.396C1115.91 712.534 1114.24 719.274 1113.05 725.232C1111.94 730.159 1110.48 735 1108.67 739.715C1106.92 744.241 1105.49 748.884 1104.4 753.611C1102.79 761.594 1101.41 767.366 1097.26 774.541C1094.52 779.512 1092.09 784.652 1089.99 789.93C1087.77 795.508 1085.16 800.929 1082.21 806.156C1080.06 809.782 1078.06 813.61 1076.13 817.327C1073.15 823.365 1069.78 829.197 1066.02 834.783C1063.47 838.296 1061.33 842.096 1059.2 845.749C1057.08 849.401 1054.92 853.111 1052.44 856.655C1033.91 883.055 1016.14 892.865 989.239 907.712L984.6 910.284C958.396 924.813 931.721 932.477 903.484 940.618C899.191 941.851 894.891 943.095 890.553 944.365C887.701 945.198 884.798 945.843 881.862 946.298ZM672.113 928.77C705.283 923.489 739.776 925.798 782.26 935.721C784.727 936.302 787.178 936.916 789.639 937.529C795.99 939.265 802.437 940.628 808.948 941.612C811.287 941.913 813.703 942.243 816.164 942.535C831.602 944.635 849.094 947.008 863.519 945.613C865.367 945.433 867.199 945.286 868.999 945.134C876.16 944.533 882.829 943.969 889.822 941.923C894.167 940.651 898.48 939.402 902.763 938.175C930.872 930.075 957.405 922.433 983.364 908.057L988.003 905.485C1014.6 890.8 1032.17 881.105 1050.37 855.162C1052.79 851.67 1054.94 848.012 1057.02 844.44C1059.09 840.868 1061.39 836.919 1063.95 833.29C1067.64 827.811 1070.97 822.091 1073.9 816.169C1075.85 812.431 1077.87 808.566 1080.03 804.836C1082.91 799.708 1085.45 794.391 1087.61 788.921C1089.74 783.541 1092.22 778.303 1095.02 773.24C1098.99 766.393 1100.3 760.819 1101.88 753.07C1102.98 748.255 1104.43 743.525 1106.21 738.916C1107.98 734.311 1109.41 729.583 1110.49 724.769C1111.7 718.756 1113.37 711.986 1115.14 704.816C1122.63 674.538 1131.96 636.885 1116.77 613.698L1115.55 611.821C1110.41 603.949 1105.1 595.804 1097.96 589.762C1094.93 587.2 1087.97 583.356 1079.93 578.899C1057.19 566.329 1022.9 547.333 1022.24 527.945C1021.99 520.549 1026.61 513.722 1035.98 507.663C1059.48 492.467 1078.5 470.391 1097.68 436.059C1111.07 412.061 1120.03 382.897 1123.56 351.738C1124.59 342.74 1122.9 333.583 1121.27 324.727C1120.77 321.949 1120.26 319.182 1119.83 316.423L1119.76 316.009C1118.24 306.473 1116.87 297.442 1113.7 288.386C1108.22 272.687 1101.45 256.571 1089.02 244.494C1084.88 240.472 1081.01 236.447 1077.3 232.626C1066.76 221.729 1056.8 211.425 1042.86 202.975C1030.51 195.515 1018.63 194.061 1004.89 192.395C1002.25 192.07 999.603 191.735 996.818 191.371C988.562 190.23 981.977 187.415 974.981 184.427C973.088 183.61 971.152 182.779 969.125 181.962C960.899 178.799 952.508 176.083 943.988 173.824C929.56 169.731 914.661 165.484 901.554 156.601C896.906 153.447 892.299 150.099 887.853 146.851C880.64 141.587 873.181 136.146 865.356 131.467C860.48 128.367 855.885 124.846 851.625 120.944C849.615 119.192 847.595 117.442 845.51 115.806C838.502 110.2 832.46 104.678 826.603 99.3336C810.555 84.6739 796.676 71.9888 771.368 65.8362C743.586 59.0621 711.621 59.0858 676.474 65.8203C670.53 66.9634 664.511 68.2943 658.704 69.5813C652.897 70.8684 646.897 72.186 640.963 73.3274C626.219 76.1717 618.987 84.0761 611.338 92.4198C606.035 98.1737 600.634 104.098 592.518 108.726C576.852 117.631 563.322 122.757 549.905 124.759C544.85 125.563 539.776 126.247 534.639 126.992C513.662 130.01 491.965 133.133 471.52 138.78C465.698 140.409 459.728 141.453 453.699 141.897C451.173 141.927 448.66 141.539 446.261 140.75C444.685 140.269 443.073 139.92 441.44 139.705C436.642 139.183 431.91 138.174 427.318 136.692C423.519 135.715 419.609 135.23 415.686 135.25C414.175 135.2 412.652 135.142 411.1 135.027L410.649 134.995C389.15 133.435 364.787 131.659 344.071 139.12C342.023 139.861 339.998 140.556 337.982 141.239C330.698 143.735 323.817 146.094 317.015 150.118C311.902 152.996 307.137 156.451 302.815 160.416C298.192 164.515 293.988 169.063 290.267 173.994C287.607 177.669 286.954 181.316 286.196 185.538C286.013 186.603 285.82 187.67 285.596 188.741C285.15 190.884 284.672 193.031 284.195 195.178C283.369 198.977 282.511 202.894 281.826 206.732C278.879 223.317 281.645 240.433 284.313 256.995L284.549 258.48C288.002 280.168 288.831 302.699 271.187 320.599C267.465 324.371 260.26 329.319 255.103 330.72C253.563 331.141 252.036 331.447 250.509 331.752C247.991 332.167 245.52 332.831 243.133 333.734C237.92 335.89 232.617 337.48 227.494 339.093C218.736 341.771 210.474 344.309 202.608 349.269C192.657 355.524 182.334 362.502 175.284 372.977C168.52 382.972 166.332 395.346 168.792 409.755C170.066 417.238 171.239 424.736 172.373 432.251C172.935 435.777 173.499 439.323 174.059 442.838C174.327 444.525 174.596 446.212 174.863 447.889C175.236 450.232 175.609 452.576 175.988 454.96C177.184 463.056 173.498 469.464 169.957 474.833C159.59 490.518 145.429 502.561 131.743 514.196C124.567 520.237 117.101 526.605 110.268 533.431C90.3659 553.295 80.0107 576.415 75.7912 610.729C74.8349 618.266 75.5383 625.549 76.8668 634.09C77.1257 635.717 77.3862 637.353 77.5658 639.002C78.2824 644.285 79.0193 649.76 80.884 654.767C84.2967 663.898 90.2211 672.266 95.9626 680.332C98.6455 684.162 101.482 688.112 103.969 692.077C112.452 705.642 126.11 716.622 139.319 727.249C143.433 730.561 147.321 733.691 151.053 736.888C157.933 742.794 165.865 746.711 176.753 749.597C180.359 750.542 183.967 751.504 187.578 752.483C194 754.205 200.433 755.936 206.882 757.572C212.51 758.826 218.213 759.72 223.956 760.25C237.745 761.825 253.372 763.615 262.148 772.254C264.381 774.355 266.737 776.321 269.202 778.144C272.098 780.26 274.826 782.596 277.363 785.131C296.439 805.264 301.183 835.198 305.365 861.535L305.891 864.838C306.451 868.354 307.017 871.91 307.486 875.439C308.8 884.48 310.165 893.833 312.315 902.781C316.478 920.141 322.617 935.394 330.552 948.124C338.779 961.315 355.132 978.806 369.357 985.335C404.639 1001.58 432.969 1004.45 467.126 995.272C477.942 992.369 487.719 988.275 498.068 983.934L503.678 981.602C520.728 974.558 537.642 971.016 555.561 967.345C559.244 966.583 562.937 965.819 566.655 965.02C582.519 961.593 599.648 953.998 611.158 948.613L612.517 947.972C622.816 943.122 632.54 938.57 643.499 935.324C652.888 932.533 662.445 930.343 672.113 928.77Z" stroke="url(#paint5_linear_1_4835)" stroke-width="2" stroke-miterlimit="10"/>
<defs>
<linearGradient id="paint0_linear_1_4835" x1="559.164" y1="215.617" x2="660.845" y2="854.347" gradientUnits="userSpaceOnUse">
<stop stop-color="#74CBB4" stop-opacity="0.5"/>
<stop offset="1" stop-color="#FFF0E9" stop-opacity="0"/>
</linearGradient>
<linearGradient id="paint1_linear_1_4835" x1="551.32" y1="192.609" x2="658.715" y2="867.232" gradientUnits="userSpaceOnUse">
<stop stop-color="#74CBB4" stop-opacity="0.5"/>
<stop offset="1" stop-color="#FFF0E9" stop-opacity="0"/>
</linearGradient>
<linearGradient id="paint2_linear_1_4835" x1="547.925" y1="173.912" x2="662.202" y2="891.769" gradientUnits="userSpaceOnUse">
<stop stop-color="#74CBB4" stop-opacity="0.5"/>
<stop offset="1" stop-color="#FFF0E9" stop-opacity="0"/>
</linearGradient>
<linearGradient id="paint3_linear_1_4835" x1="547.773" y1="138.807" x2="672.569" y2="922.74" gradientUnits="userSpaceOnUse">
<stop stop-color="#74CBB4" stop-opacity="0.5"/>
<stop offset="1" stop-color="#FFF0E9" stop-opacity="0"/>
</linearGradient>
<linearGradient id="paint4_linear_1_4835" x1="541.838" y1="114.659" x2="674.295" y2="946.721" gradientUnits="userSpaceOnUse">
<stop stop-color="#74CBB4" stop-opacity="0.5"/>
<stop offset="1" stop-color="#FFF0E9" stop-opacity="0"/>
</linearGradient>
<linearGradient id="paint5_linear_1_4835" x1="536.347" y1="85.4216" x2="678.544" y2="978.665" gradientUnits="userSpaceOnUse">
<stop stop-color="#74CBB4" stop-opacity="0.5"/>
<stop offset="1" stop-color="#FFF0E9" stop-opacity="0"/>
</linearGradient>
</defs>
</svg>
